<svg xmlns="http://www.w3.org/2000/svg" xmlns:xlink="http://www.w3.org/1999/xlink" viewBox="0 0 79.86 46.36"><defs><style>.cls-1,.cls-2,.cls-3,.cls-6{fill:none;}.cls-1{clip-rule:evenodd;}.cls-2,.cls-4,.cls-5{fill-rule:evenodd;}.cls-4{fill:#b64726;}.cls-5{fill:#fdc70c;}.cls-6{stroke:#bd912d;stroke-miterlimit:8;stroke-width:0.08px;}.cls-7{clip-path:url(#clip-path);}.cls-8{fill:#fff;}.cls-9{clip-path:url(#clip-path-18);}.cls-10{fill:#f2ec70;}.cls-11{clip-path:url(#clip-path-19);}</style><clipPath id="clip-path" transform="translate(-0.02 -0.02)"><polygon class="cls-1" points="0 46.39 79.92 46.39 79.92 0 0 0 0 46.39 0 46.39"/></clipPath><clipPath id="clip-path-18" transform="translate(-0.02 -0.02)"><polygon class="cls-3" points="73.75 10.52 58.41 10.52 58.41 5.96 73.75 5.96 73.75 10.52 73.75 10.52"/></clipPath><clipPath id="clip-path-19" transform="translate(-0.02 -0.02)"><polygon class="cls-3" points="6.16 10.52 21.51 10.52 21.51 5.96 6.16 5.96 6.16 10.52 6.16 10.52"/></clipPath></defs><g id="Layer_2" data-name="Layer 2"><g id="Layer_1-2" data-name="Layer 1"><path class="cls-4" d="M79.84,40.25V6C77.36,6,75.35,3.35,75.29.06H4.61C4.55,3.35,2.54,6,.05,6v34.1c2.52,0,4.57,2.73,4.57,6.09,0,0,0,.11,0,.16H75.28c0-3.37,2-6.09,4.56-6.09Z" transform="translate(-0.02 -0.02)"/><path class="cls-5" d="M74.18,1.75a8.74,8.74,0,0,0,1.59,3.72,5.59,5.59,0,0,0,2.81,2V38.74c-2.2.66-3.94,3-4.43,5.9H5.77c-.45-3-2.21-5.39-4.45-6V7.5a5.59,5.59,0,0,0,2.81-2A8.74,8.74,0,0,0,5.72,1.75H74.18M75.29.06H4.61C4.55,3.35,2.54,6,.05,6v34.1c2.52,0,4.57,2.73,4.57,6.09,0,0,0,.11,0,.16H75.28c0-3.36,2-6.09,4.56-6.09V6C77.36,6,75.35,3.35,75.29.06Z" transform="translate(-0.02 -0.02)"/><path class="cls-6" d="M74.18,1.75a8.74,8.74,0,0,0,1.59,3.72,5.59,5.59,0,0,0,2.81,2V38.74c-2.2.66-3.94,3-4.43,5.9H5.77c-.45-3-2.21-5.39-4.45-6V7.5a5.59,5.59,0,0,0,2.81-2A8.74,8.74,0,0,0,5.72,1.75H74.18M75.29.06H4.61C4.55,3.35,2.54,6,.05,6v34.1c2.52,0,4.57,2.73,4.57,6.09,0,0,0,.11,0,.16H75.28c0-3.36,2-6.09,4.56-6.09V6C77.36,6,75.35,3.35,75.29.06Z" transform="translate(-0.02 -0.02)"/><g class="cls-7"><path class="cls-5" d="M73.43,3.15c-.06,0-.11,0-.13-.14l-.06-.28a.21.21,0,0,1,.1-.23c.08,0,.15,0,.17.14s0,.18,0,.27a.21.21,0,0,1-.09.23Z" transform="translate(-0.02 -0.02)"/><g class="cls-7"><path class="cls-5" d="M76.43,7.81l-.06,0a3.3,3.3,0,0,1-.43-.3.23.23,0,0,1-.06-.26.13.13,0,0,1,.2-.07l.41.29a.2.2,0,0,1,.06.25.14.14,0,0,1-.12.11ZM75.11,6.65A.12.12,0,0,1,75,6.6a2,2,0,0,1-.19-.22l-.17-.22a.24.24,0,0,1,0-.27.12.12,0,0,1,.2,0l.16.21.17.21a.22.22,0,0,1,0,.27.11.11,0,0,1-.1.06Zm-1-1.59A.14.14,0,0,1,74,5c-.09-.18-.17-.37-.25-.56a.23.23,0,0,1,.06-.25.12.12,0,0,1,.19.08c.08.18.15.36.24.53a.23.23,0,0,1,0,.26.11.11,0,0,1-.07,0Z" transform="translate(-0.02 -0.02)"/><g class="cls-7"><path class="cls-5" d="M77.67,8.65c-.08,0-.14-.09-.14-.19V8.33l-.1,0a.2.2,0,0,1-.11-.22.16.16,0,0,1,.18-.14.66.66,0,0,0,.2.06.18.18,0,0,1,.11.18v.28c0,.1-.06.19-.14.19Z" transform="translate(-0.02 -0.02)"/><g class="cls-7"><path class="cls-5" d="M77.67,36.67a.18.18,0,0,1-.15-.19v-.56a.18.18,0,0,1,.15-.19c.08,0,.14.09.14.19v.56c0,.1-.06.19-.14.19Zm0-1.87a.18.18,0,0,1-.15-.19v-.56a.18.18,0,0,1,.15-.19c.08,0,.14.09.14.19v.56c0,.1-.06.19-.14.19Zm0-1.87a.17.17,0,0,1-.15-.19v-.56a.17.17,0,0,1,.15-.18.16.16,0,0,1,.14.18v.56c0,.11-.06.19-.14.19Zm0-1.87a.17.17,0,0,1-.15-.18v-.56a.17.17,0,0,1,.15-.19c.08,0,.14.08.14.19v.56a.16.16,0,0,1-.14.18Zm0-1.86a.18.18,0,0,1-.15-.19v-.56a.17.17,0,0,1,.15-.19c.08,0,.14.08.14.19V29c0,.1-.06.19-.14.19Zm0-1.87a.18.18,0,0,1-.15-.19v-.56a.17.17,0,0,1,.15-.19c.08,0,.14.08.14.19v.56c0,.1-.06.19-.14.19Zm0-1.87a.18.18,0,0,1-.15-.19v-.56a.18.18,0,0,1,.15-.19c.08,0,.14.09.14.19v.56c0,.1-.06.19-.14.19Zm0-1.87a.17.17,0,0,1-.15-.19v-.56a.17.17,0,0,1,.15-.18.16.16,0,0,1,.14.18v.56c0,.11-.06.19-.14.19Zm0-1.87a.17.17,0,0,1-.15-.18V21a.17.17,0,0,1,.15-.18.16.16,0,0,1,.14.18v.57a.16.16,0,0,1-.14.18Zm0-1.87a.17.17,0,0,1-.15-.18v-.56a.17.17,0,0,1,.15-.19c.08,0,.14.08.14.19v.56a.16.16,0,0,1-.14.18Zm0-1.86a.18.18,0,0,1-.15-.19v-.56a.17.17,0,0,1,.15-.19c.08,0,.14.08.14.19v.56c0,.1-.06.19-.14.19Zm0-1.87a.18.18,0,0,1-.15-.19v-.56a.17.17,0,0,1,.15-.19c.08,0,.14.08.14.19v.56c0,.1-.06.19-.14.19Zm0-1.87a.17.17,0,0,1-.15-.19V13.5a.18.18,0,0,1,.15-.19c.08,0,.14.09.14.19v.56c0,.1-.06.19-.14.19Zm0-1.87a.17.17,0,0,1-.15-.19v-.56a.17.17,0,0,1,.15-.18.16.16,0,0,1,.14.18v.56c0,.11-.06.19-.14.19Zm0-1.87a.17.17,0,0,1-.15-.18V9.76a.17.17,0,0,1,.15-.18.16.16,0,0,1,.14.18v.57a.16.16,0,0,1-.14.18Z" transform="translate(-0.02 -0.02)"/><g class="cls-7"><path class="cls-5" d="M77.46,38.31a.17.17,0,0,1-.14-.14.18.18,0,0,1,.11-.22l.1,0v-.13a.14.14,0,1,1,.28,0v.28a.17.17,0,0,1-.11.18l-.2.06Z" transform="translate(-0.02 -0.02)"/><g class="cls-7"><path class="cls-5" d="M73.71,42.5l-.06,0a.22.22,0,0,1-.07-.25c0-.15.11-.31.17-.46s.12-.13.19-.08A.22.22,0,0,1,74,42c-.06.14-.11.29-.16.44a.16.16,0,0,1-.13.11Zm.65-1.44a.18.18,0,0,1-.09,0,.24.24,0,0,1,0-.27c.07-.13.16-.27.24-.4a.12.12,0,0,1,.2,0,.21.21,0,0,1,0,.26c-.08.12-.16.25-.23.38a.14.14,0,0,1-.11.08Zm.87-1.22a.13.13,0,0,1-.11-.07.23.23,0,0,1,0-.26l.31-.32a.13.13,0,0,1,.2,0,.24.24,0,0,1,0,.27c-.1.09-.19.19-.29.3a.11.11,0,0,1-.09,0Zm1.06-.92a.14.14,0,0,1-.13-.11.23.23,0,0,1,.06-.25l.35-.22c.08,0,.16,0,.19.1a.22.22,0,0,1-.07.25,2.39,2.39,0,0,0-.34.21l-.06,0Z" transform="translate(-0.02 -0.02)"/><g class="cls-7"><path class="cls-5" d="M73.36,43.9h-.22c-.08,0-.14-.09-.14-.19s.06-.19.14-.19h.1l0-.14c0-.1.1-.16.17-.13a.2.2,0,0,1,.1.23,2.56,2.56,0,0,1-.05.27.15.15,0,0,1-.13.15Z" transform="translate(-0.02 -0.02)"/><g class="cls-7"><path class="cls-5" d="M72.15,43.9h-.43c-.08,0-.14-.09-.14-.19s.06-.19.14-.19h.43c.07,0,.14.09.14.19s-.07.19-.14.19Zm-1.42,0H70.3c-.08,0-.14-.09-.14-.19s.06-.19.14-.19h.43c.07,0,.14.09.14.19s-.07.19-.14.19Zm-1.42,0h-.43c-.08,0-.14-.09-.14-.19s.06-.19.14-.19h.43c.07,0,.14.09.14.19s-.07.19-.14.19Zm-1.43,0h-.42c-.08,0-.14-.09-.14-.19s.06-.19.14-.19h.42c.08,0,.14.09.14.19a.16.16,0,0,1-.14.19Zm-1.42,0H66c-.08,0-.14-.09-.14-.19s.06-.19.14-.19h.42c.08,0,.14.09.14.19s-.06.19-.14.19ZM65,43.9h-.42a.2.2,0,0,1,0-.38H65c.08,0,.14.09.14.19s-.06.19-.14.19Zm-1.42,0h-.43c-.07,0-.14-.09-.14-.19s.07-.19.14-.19h.43c.08,0,.14.09.14.19s-.06.19-.14.19Zm-1.42,0h-.43c-.08,0-.14-.09-.14-.19s.06-.19.14-.19h.43c.08,0,.14.09.14.19s-.06.19-.14.19Zm-1.42,0h-.43c-.08,0-.14-.09-.14-.19s.06-.19.14-.19h.43c.08,0,.14.09.14.19s-.06.19-.14.19Zm-1.42,0h-.43c-.08,0-.14-.09-.14-.19s.06-.19.14-.19h.43c.07,0,.14.09.14.19s-.07.19-.14.19Zm-1.42,0h-.43c-.08,0-.14-.09-.14-.19s.06-.19.14-.19h.43c.07,0,.14.09.14.19s-.07.19-.14.19Zm-1.43,0h-.42c-.08,0-.14-.09-.14-.19s.06-.19.14-.19h.42c.08,0,.14.09.14.19a.16.16,0,0,1-.14.19Zm-1.42,0h-.42c-.08,0-.14-.09-.14-.19s.06-.19.14-.19h.42c.08,0,.14.09.14.19s-.06.19-.14.19Zm-1.42,0h-.42c-.08,0-.14-.09-.14-.19s.06-.19.14-.19h.42c.08,0,.14.09.14.19s-.06.19-.14.19Zm-1.42,0h-.42a.2.2,0,0,1,0-.38h.42c.08,0,.14.09.14.19s-.06.19-.14.19Zm-1.42,0H50.4c-.07,0-.14-.09-.14-.19s.07-.19.14-.19h.43c.08,0,.14.09.14.19s-.06.19-.14.19Zm-1.42,0H49c-.08,0-.14-.09-.14-.19s.06-.19.14-.19h.43c.08,0,.14.09.14.19s-.06.19-.14.19ZM48,43.9h-.43c-.08,0-.14-.09-.14-.19s.06-.19.14-.19H48c.08,0,.14.09.14.19s-.06.19-.14.19Zm-1.42,0h-.43c-.08,0-.14-.09-.14-.19s.06-.19.14-.19h.43c.08,0,.14.09.14.19s-.06.19-.14.19Zm-1.42,0h-.43c-.08,0-.14-.09-.14-.19s.06-.19.14-.19h.43c.07,0,.14.09.14.19s-.07.19-.14.19Zm-1.43,0H43.3c-.08,0-.14-.09-.14-.19s.06-.19.14-.19h.42c.08,0,.14.09.14.19a.16.16,0,0,1-.14.19Zm-1.42,0h-.42c-.08,0-.14-.09-.14-.19s.06-.19.14-.19h.42c.08,0,.14.09.14.19s-.06.19-.14.19Zm-1.42,0h-.42c-.08,0-.14-.09-.14-.19s.06-.19.14-.19h.42c.08,0,.14.09.14.19s-.06.19-.14.19Zm-1.42,0H39c-.08,0-.14-.09-.14-.19s.06-.19.14-.19h.42c.08,0,.14.09.14.19s-.06.19-.14.19ZM38,43.9h-.43c-.07,0-.14-.09-.14-.19s.07-.19.14-.19H38c.08,0,.14.09.14.19s-.06.19-.14.19Zm-1.42,0h-.43c-.08,0-.14-.09-.14-.19s.06-.19.14-.19h.43c.08,0,.14.09.14.19s-.06.19-.14.19Zm-1.42,0h-.43c-.08,0-.14-.09-.14-.19s.06-.19.14-.19h.43c.08,0,.14.09.14.19s-.06.19-.14.19Zm-1.42,0h-.43c-.08,0-.14-.09-.14-.19s.06-.19.14-.19h.43c.08,0,.14.09.14.19s-.06.19-.14.19Zm-1.42,0h-.43c-.08,0-.14-.09-.14-.19s.06-.19.14-.19h.43c.07,0,.14.09.14.19s-.07.19-.14.19Zm-1.43,0h-.42c-.08,0-.14-.09-.14-.19s.06-.19.14-.19h.42c.08,0,.14.09.14.19s-.06.19-.14.19Zm-1.42,0h-.42c-.08,0-.14-.09-.14-.19s.06-.19.14-.19h.42c.08,0,.14.09.14.19s-.06.19-.14.19Zm-1.42,0h-.42c-.08,0-.14-.09-.14-.19s.06-.19.14-.19h.42c.08,0,.14.09.14.19s-.06.19-.14.19Zm-1.42,0h-.42c-.08,0-.14-.09-.14-.19s.06-.19.14-.19h.42c.08,0,.14.09.14.19s-.06.19-.14.19Zm-1.42,0h-.43c-.07,0-.14-.09-.14-.19s.07-.19.14-.19h.43c.08,0,.14.09.14.19s-.06.19-.14.19Zm-1.42,0H23.4c-.08,0-.14-.09-.14-.19s.06-.19.14-.19h.43c.08,0,.14.09.14.19s-.06.19-.14.19Zm-1.42,0H22c-.08,0-.14-.09-.14-.19s.06-.19.14-.19h.43c.08,0,.14.09.14.19s-.06.19-.14.19ZM21,43.9h-.43c-.08,0-.14-.09-.14-.19s.06-.19.14-.19H21c.08,0,.14.09.14.19s-.06.19-.14.19Zm-1.42,0h-.43c-.08,0-.14-.09-.14-.19s.06-.19.14-.19h.43c.07,0,.14.09.14.19s-.07.19-.14.19Zm-1.43,0h-.42c-.08,0-.14-.09-.14-.19s.06-.19.14-.19h.42a.2.2,0,0,1,0,.38Zm-1.42,0H16.3c-.08,0-.14-.09-.14-.19s.06-.19.14-.19h.42c.08,0,.14.09.14.19s-.06.19-.14.19Zm-1.42,0h-.42c-.08,0-.14-.09-.14-.19s.06-.19.14-.19h.42c.08,0,.14.09.14.19s-.06.19-.14.19Zm-1.42,0h-.43c-.07,0-.14-.09-.14-.19s.07-.19.14-.19h.43c.08,0,.14.09.14.19s-.06.19-.14.19Zm-1.42,0H12c-.07,0-.14-.09-.14-.19s.07-.19.14-.19h.43c.08,0,.14.09.14.19s-.06.19-.14.19ZM11,43.9h-.43c-.07,0-.14-.09-.14-.19s.07-.19.14-.19H11c.08,0,.14.09.14.19s-.06.19-.14.19Zm-1.42,0H9.19c-.08,0-.14-.09-.14-.19s.06-.19.14-.19h.43c.08,0,.14.09.14.19s-.06.19-.14.19Zm-1.42,0H7.77c-.08,0-.14-.09-.14-.19s.06-.19.14-.19H8.2c.07,0,.14.09.14.19s-.07.19-.14.19Z" transform="translate(-0.02 -0.02)"/><g class="cls-7"><path class="cls-5" d="M6.78,43.9H6.57c-.07,0-.12-.07-.14-.15a2.51,2.51,0,0,0,0-.27.21.21,0,0,1,.1-.23c.07,0,.15,0,.17.14s0,.08,0,.13h.1a.17.17,0,0,1,.14.19c0,.1-.07.19-.14.19Z" transform="translate(-0.02 -0.02)"/><g class="cls-7"><path class="cls-5" d="M6.23,42.48a.14.14,0,0,1-.13-.11c0-.16-.11-.31-.16-.46A.21.21,0,0,1,6,41.66c.06,0,.15,0,.18.08s.12.31.18.48a.21.21,0,0,1-.08.24.06.06,0,0,1,0,0ZM5.58,41a.12.12,0,0,1-.11-.08c-.07-.13-.15-.26-.23-.39a.22.22,0,0,1,0-.26.12.12,0,0,1,.2,0l.25.42a.24.24,0,0,1,0,.26.12.12,0,0,1-.09,0ZM4.7,39.73a.12.12,0,0,1-.09,0c-.09-.11-.19-.21-.29-.31a.23.23,0,0,1,0-.27.12.12,0,0,1,.19,0l.31.33a.24.24,0,0,1,0,.27.14.14,0,0,1-.11.06Zm-1.06-.95-.07,0-.34-.22a.22.22,0,0,1-.07-.25c0-.1.11-.14.18-.1l.36.23a.21.21,0,0,1,.06.25.14.14,0,0,1-.12.11Z" transform="translate(-0.02 -0.02)"/><g class="cls-7"><path class="cls-5" d="M2.43,38.18h0l-.2-.06a.19.19,0,0,1-.1-.19v-.28c0-.11.06-.19.13-.19s.14.08.14.19v.13l.1,0a.21.21,0,0,1,.1.23c0,.09-.07.15-.13.15Z" transform="translate(-0.02 -0.02)"/><g class="cls-7"><path class="cls-5" d="M2.22,36.52c-.07,0-.13-.09-.13-.19v-.56c0-.1.06-.18.13-.18a.16.16,0,0,1,.14.18v.56c0,.1-.06.19-.14.19Zm0-1.86c-.07,0-.13-.08-.13-.19v-.55c0-.11.06-.19.13-.19s.14.08.14.19v.55c0,.11-.06.19-.14.19Zm0-1.86c-.07,0-.13-.08-.13-.18v-.56c0-.11.06-.19.13-.19s.14.08.14.19v.56a.16.16,0,0,1-.14.18Zm0-1.86c-.07,0-.13-.08-.13-.18V30.2c0-.1.06-.19.13-.19s.14.09.14.19v.56a.16.16,0,0,1-.14.18Zm0-1.85c-.07,0-.13-.09-.13-.19v-.56c0-.1.06-.18.13-.18a.16.16,0,0,1,.14.18v.56c0,.1-.06.19-.14.19Zm0-1.86c-.07,0-.13-.08-.13-.19v-.56c0-.1.06-.18.13-.18a.16.16,0,0,1,.14.18V27c0,.11-.06.19-.14.19Zm0-1.86c-.07,0-.13-.08-.13-.19v-.55c0-.11.06-.19.13-.19s.14.08.14.19v.55c0,.11-.06.19-.14.19Zm0-1.86c-.07,0-.13-.08-.13-.18v-.56c0-.1.06-.19.13-.19s.14.09.14.19v.56a.16.16,0,0,1-.14.18Zm0-1.85c-.07,0-.13-.09-.13-.19v-.56c0-.1.06-.19.13-.19s.14.09.14.19v.56c0,.1-.06.19-.14.19Zm0-1.86c-.07,0-.13-.09-.13-.19v-.56c0-.1.06-.18.13-.18a.16.16,0,0,1,.14.18v.56c0,.1-.06.19-.14.19Zm0-1.86c-.07,0-.13-.08-.13-.19V17.2c0-.11.06-.19.13-.19s.14.08.14.19v.55c0,.11-.06.19-.14.19Zm0-1.86c-.07,0-.13-.08-.13-.19v-.55c0-.11.06-.19.13-.19s.14.08.14.19v.55c0,.11-.06.19-.14.19Zm0-1.86c-.07,0-.13-.08-.13-.18v-.56c0-.1.06-.19.13-.19s.14.09.14.19V14a.16.16,0,0,1-.14.18Zm0-1.85c-.07,0-.13-.09-.13-.19v-.56c0-.1.06-.19.13-.19s.14.09.14.19v.56c0,.1-.06.19-.14.19Zm0-1.86c-.07,0-.13-.09-.13-.19V9.76c0-.1.06-.18.13-.18a.16.16,0,0,1,.14.18v.56c0,.1-.06.19-.14.19Z" transform="translate(-0.02 -0.02)"/><g class="cls-7"><path class="cls-5" d="M2.23,8.65c-.08,0-.14-.09-.14-.19V8.18A.18.18,0,0,1,2.2,8l.2-.06a.16.16,0,0,1,.18.13.2.2,0,0,1-.11.23l-.1,0v.13c0,.1-.06.19-.14.19Z" transform="translate(-0.02 -0.02)"/><g class="cls-7"><path class="cls-5" d="M3.47,7.81a.16.16,0,0,1-.13-.11.22.22,0,0,1,.07-.25l.41-.29c.06,0,.15,0,.19.07a.22.22,0,0,1,0,.26,4.15,4.15,0,0,1-.43.3l-.06,0ZM4.78,6.65a.11.11,0,0,1-.1-.06.22.22,0,0,1,0-.27,1.84,1.84,0,0,0,.17-.22A1.16,1.16,0,0,0,5,5.89a.12.12,0,0,1,.2,0,.22.22,0,0,1,0,.27l-.16.22c-.06.07-.12.15-.19.22a.12.12,0,0,1-.09.05Zm1-1.59a.11.11,0,0,1-.08,0,.22.22,0,0,1,0-.26c.08-.18.16-.35.23-.53a.12.12,0,0,1,.19-.08.23.23,0,0,1,.06.25c-.08.19-.16.38-.25.56a.12.12,0,0,1-.11.09Z" transform="translate(-0.02 -0.02)"/><g class="cls-7"><path class="cls-5" d="M6.45,3.15h0a.21.21,0,0,1-.09-.23c0-.09,0-.18,0-.27s.07-.14.14-.14h.21c.08,0,.14.08.14.19a.16.16,0,0,1-.14.18h-.1l0,.14c0,.09-.07.14-.14.14Z" transform="translate(-0.02 -0.02)"/><g class="cls-7"><path class="cls-5" d="M72.16,2.87h-.42c-.08,0-.14-.08-.14-.19a.16.16,0,0,1,.14-.18h.42a.17.17,0,0,1,.15.18.17.17,0,0,1-.15.19Zm-1.42,0h-.42a.17.17,0,0,1-.15-.19.17.17,0,0,1,.15-.18h.42a.16.16,0,0,1,.14.18c0,.11-.06.19-.14.19Zm-1.42,0h-.43c-.08,0-.14-.08-.14-.19a.16.16,0,0,1,.14-.18h.43a.16.16,0,0,1,.14.18c0,.11-.06.19-.14.19Zm-1.42,0h-.43c-.08,0-.14-.08-.14-.19a.16.16,0,0,1,.14-.18h.43a.17.17,0,0,1,.14.18.17.17,0,0,1-.14.19Zm-1.43,0h-.42c-.08,0-.14-.08-.14-.19a.16.16,0,0,1,.14-.18h.42a.16.16,0,0,1,.14.18.16.16,0,0,1-.14.19Zm-1.42,0h-.43a.17.17,0,0,1-.14-.19.17.17,0,0,1,.14-.18h.43a.16.16,0,0,1,.14.18c0,.11-.06.19-.14.19Zm-1.42,0H63.2c-.08,0-.14-.08-.14-.19a.16.16,0,0,1,.14-.18h.43a.16.16,0,0,1,.14.18c0,.11-.06.19-.14.19Zm-1.43,0h-.42c-.08,0-.14-.08-.14-.19a.16.16,0,0,1,.14-.18h.42a.17.17,0,0,1,.15.18.17.17,0,0,1-.15.19Zm-1.42,0h-.42c-.08,0-.14-.08-.14-.19a.16.16,0,0,1,.14-.18h.42a.16.16,0,0,1,.14.18c0,.11-.06.19-.14.19Zm-1.42,0h-.43a.17.17,0,0,1-.14-.19.17.17,0,0,1,.14-.18h.43a.16.16,0,0,1,.14.18c0,.11-.06.19-.14.19Zm-1.42,0h-.43c-.08,0-.14-.08-.14-.19a.16.16,0,0,1,.14-.18h.43a.16.16,0,0,1,.14.18c0,.11-.06.19-.14.19Zm-1.43,0h-.42c-.08,0-.14-.08-.14-.19a.16.16,0,0,1,.14-.18h.42a.16.16,0,0,1,.14.18.16.16,0,0,1-.14.19Zm-1.42,0h-.42c-.08,0-.14-.08-.14-.19a.16.16,0,0,1,.14-.18h.42a.16.16,0,0,1,.14.18c0,.11-.06.19-.14.19Zm-1.42,0h-.43a.17.17,0,0,1-.14-.19.17.17,0,0,1,.14-.18h.43a.16.16,0,0,1,.14.18c0,.11-.06.19-.14.19Zm-1.42,0h-.43c-.08,0-.14-.08-.14-.19a.16.16,0,0,1,.14-.18h.43a.17.17,0,0,1,.14.18.17.17,0,0,1-.14.19Zm-1.43,0H50.4c-.08,0-.14-.08-.14-.19a.16.16,0,0,1,.14-.18h.42a.16.16,0,0,1,.14.18c0,.11-.06.19-.14.19Zm-1.42,0H49a.17.17,0,0,1-.15-.19A.17.17,0,0,1,49,2.5h.42a.16.16,0,0,1,.14.18c0,.11-.06.19-.14.19ZM48,2.87h-.43c-.08,0-.14-.08-.14-.19a.16.16,0,0,1,.14-.18H48a.16.16,0,0,1,.14.18c0,.11-.06.19-.14.19Zm-1.42,0h-.43c-.08,0-.14-.08-.14-.19a.16.16,0,0,1,.14-.18h.43a.17.17,0,0,1,.14.18.17.17,0,0,1-.14.19Zm-1.43,0h-.42c-.08,0-.14-.08-.14-.19a.16.16,0,0,1,.14-.18h.42a.16.16,0,0,1,.14.18c0,.11-.06.19-.14.19Zm-1.42,0h-.43a.17.17,0,0,1-.14-.19.17.17,0,0,1,.14-.18h.43a.16.16,0,0,1,.14.18c0,.11-.06.19-.14.19Zm-1.42,0h-.43c-.08,0-.14-.08-.14-.19a.16.16,0,0,1,.14-.18h.43a.16.16,0,0,1,.14.18c0,.11-.06.19-.14.19Zm-1.42,0h-.43c-.08,0-.14-.08-.14-.19a.16.16,0,0,1,.14-.18h.43a.17.17,0,0,1,.14.18.17.17,0,0,1-.14.19Zm-1.43,0H39a.17.17,0,0,1-.15-.19A.17.17,0,0,1,39,2.5h.42a.16.16,0,0,1,.14.18c0,.11-.06.19-.14.19ZM38,2.87h-.43c-.08,0-.14-.08-.14-.19a.16.16,0,0,1,.14-.18H38a.16.16,0,0,1,.14.18c0,.11-.06.19-.14.19Zm-1.42,0h-.43c-.08,0-.14-.08-.14-.19a.16.16,0,0,1,.14-.18h.43a.17.17,0,0,1,.14.18.17.17,0,0,1-.14.19Zm-1.43,0h-.42c-.08,0-.14-.08-.14-.19a.16.16,0,0,1,.14-.18h.42a.16.16,0,0,1,.14.18.16.16,0,0,1-.14.19Zm-1.42,0h-.43a.17.17,0,0,1-.14-.19.17.17,0,0,1,.14-.18h.43a.16.16,0,0,1,.14.18c0,.11-.06.19-.14.19Zm-1.42,0H31.9c-.08,0-.14-.08-.14-.19a.16.16,0,0,1,.14-.18h.43a.16.16,0,0,1,.14.18c0,.11-.06.19-.14.19Zm-1.43,0h-.42c-.08,0-.14-.08-.14-.19a.16.16,0,0,1,.14-.18h.42a.17.17,0,0,1,.15.18.17.17,0,0,1-.15.19Zm-1.42,0h-.42c-.08,0-.14-.08-.14-.19a.16.16,0,0,1,.14-.18h.42a.16.16,0,0,1,.14.18c0,.11-.06.19-.14.19Zm-1.42,0h-.43a.17.17,0,0,1-.14-.19.17.17,0,0,1,.14-.18h.43a.16.16,0,0,1,.14.18c0,.11-.06.19-.14.19Zm-1.42,0h-.43c-.08,0-.14-.08-.14-.19a.16.16,0,0,1,.14-.18h.43a.17.17,0,0,1,.14.18.17.17,0,0,1-.14.19Zm-1.43,0h-.42c-.08,0-.14-.08-.14-.19a.16.16,0,0,1,.14-.18h.42a.16.16,0,0,1,.14.18.16.16,0,0,1-.14.19Zm-1.42,0h-.42c-.08,0-.14-.08-.14-.19a.16.16,0,0,1,.14-.18h.42a.16.16,0,0,1,.14.18c0,.11-.06.19-.14.19Zm-1.42,0h-.43a.17.17,0,0,1-.14-.19.17.17,0,0,1,.14-.18h.43a.16.16,0,0,1,.14.18c0,.11-.06.19-.14.19ZM21,2.87h-.43c-.08,0-.14-.08-.14-.19a.16.16,0,0,1,.14-.18H21a.17.17,0,0,1,.14.18.17.17,0,0,1-.14.19Zm-1.43,0H19.1c-.08,0-.14-.08-.14-.19a.16.16,0,0,1,.14-.18h.42a.16.16,0,0,1,.14.18c0,.11-.06.19-.14.19Zm-1.42,0h-.42a.17.17,0,0,1-.15-.19.17.17,0,0,1,.15-.18h.42a.16.16,0,0,1,.14.18c0,.11-.06.19-.14.19Zm-1.42,0h-.43c-.08,0-.14-.08-.14-.19a.16.16,0,0,1,.14-.18h.43a.16.16,0,0,1,.14.18c0,.11-.06.19-.14.19Zm-1.42,0h-.43c-.08,0-.14-.08-.14-.19a.16.16,0,0,1,.14-.18h.43a.17.17,0,0,1,.14.18.17.17,0,0,1-.14.19Zm-1.43,0h-.42c-.08,0-.14-.08-.14-.19a.16.16,0,0,1,.14-.18h.42a.16.16,0,0,1,.14.18c0,.11-.06.19-.14.19Zm-1.42,0H12a.17.17,0,0,1-.14-.19A.17.17,0,0,1,12,2.5h.43a.16.16,0,0,1,.14.18c0,.11-.06.19-.14.19ZM11,2.87h-.43c-.08,0-.14-.08-.14-.19a.16.16,0,0,1,.14-.18H11a.16.16,0,0,1,.14.18c0,.11-.06.19-.14.19Zm-1.42,0H9.14c-.08,0-.14-.08-.14-.19a.16.16,0,0,1,.14-.18h.43a.17.17,0,0,1,.14.18.17.17,0,0,1-.14.19Zm-1.43,0H7.72a.17.17,0,0,1-.15-.19.17.17,0,0,1,.15-.18h.42a.16.16,0,0,1,.14.18c0,.11-.06.19-.14.19Z" transform="translate(-0.02 -0.02)"/><g class="cls-7"><path class="cls-5" d="M73.37,2.87h-.21c-.08,0-.14-.08-.14-.19a.16.16,0,0,1,.14-.18h.21a.16.16,0,0,1,.14.18c0,.11-.06.19-.14.19Z" transform="translate(-0.02 -0.02)"/></g></g></g></g></g></g></g></g></g></g></g></g></g></g></g></g></g><path class="cls-8" d="M33.12,15.57a.14.14,0,0,1,0,.2.16.16,0,0,1-.12,0,.15.15,0,0,1-.11,0,.15.15,0,0,1,0-.2.16.16,0,0,1,.11-.05A.17.17,0,0,1,33.12,15.57Zm0-1.17a.18.18,0,0,1,0,.11.18.18,0,0,1,0,.1.16.16,0,0,1-.12,0,.15.15,0,0,1-.11,0,.18.18,0,0,1,0-.1.18.18,0,0,1,0-.11.15.15,0,0,1,.11,0A.16.16,0,0,1,33.12,14.4Z" transform="translate(-0.02 -0.02)"/><path class="cls-8" d="M33.57,14.25h.59a.68.68,0,0,1,.46.14.61.61,0,0,1,.15.45v1h-.24v-1a.41.41,0,0,0-.09-.3.38.38,0,0,0-.28-.09h-.34V15.8h-.25Z" transform="translate(-0.02 -0.02)"/><path class="cls-8" d="M35.28,14.44H35.1v-.19h.43V15.8h-.25Z" transform="translate(-0.02 -0.02)"/><path class="cls-8" d="M37.1,14.39a.61.61,0,0,1,.15.45v1H37v-1a.41.41,0,0,0-.09-.3.36.36,0,0,0-.28-.09h-.22a.69.69,0,0,0-.07.19,1.64,1.64,0,0,0,0,.22v.53a.49.49,0,0,1-.1.32.37.37,0,0,1-.3.11h-.15v-.2h.09a.22.22,0,0,0,.17-.06.31.31,0,0,0,.05-.19v-.49a1,1,0,0,1,0-.24.48.48,0,0,1,.09-.19h-.29v-.19h.72A.67.67,0,0,1,37.1,14.39Z" transform="translate(-0.02 -0.02)"/><path class="cls-8" d="M37.81,14.44h-.28v-.19h.53v.86h-.25Z" transform="translate(-0.02 -0.02)"/><path class="cls-8" d="M38.79,15.8a1.22,1.22,0,0,1-.26-.06l0-.19.23.06.22,0a.54.54,0,0,0,.33-.11.4.4,0,0,0,.12-.31v-.77h-.62a.69.69,0,0,0-.07.19.83.83,0,0,0,0,.22V15l.08,0H39v.21a.94.94,0,0,1-.26,0,.45.45,0,0,1-.18-.07v-.2a1.22,1.22,0,0,1,0-.26,1,1,0,0,1,.1-.21h-.19v-.19h1.26v.91a.7.7,0,0,1-.08.37.56.56,0,0,1-.24.22.78.78,0,0,1-.35.08Z" transform="translate(-0.02 -0.02)"/><path class="cls-8" d="M40.27,14.44h-.18v-.19h.43V15.8h-.25Z" transform="translate(-0.02 -0.02)"/><path class="cls-8" d="M41.72,14.44h-.18v-.19H42v2.1h-.25Z" transform="translate(-0.02 -0.02)"/><path class="cls-8" d="M42.52,14.44h-.18v-.19h.42V15.8h-.24Z" transform="translate(-0.02 -0.02)"/><path class="cls-8" d="M43.36,14.44h-.29v-.19h.53v.86h-.24Z" transform="translate(-0.02 -0.02)"/><path class="cls-8" d="M44.34,15.8a1.1,1.1,0,0,1-.26-.06l0-.19.24.06.22,0a.54.54,0,0,0,.33-.11.4.4,0,0,0,.12-.31v-.77H44.4a.47.47,0,0,0-.06.19.83.83,0,0,0,0,.22V15l.08,0h.13v.21a.94.94,0,0,1-.26,0,.49.49,0,0,1-.19-.07v-.2a1.22,1.22,0,0,1,0-.26.67.67,0,0,1,.09-.21H44v-.19h1.27v.91a.7.7,0,0,1-.09.37.49.49,0,0,1-.23.22.83.83,0,0,1-.36.08Z" transform="translate(-0.02 -0.02)"/><path class="cls-8" d="M46.62,15.12l.49.68h-.28l-.69-1a.33.33,0,0,0-.14.3v.65h-.24v-.56a.74.74,0,0,1,.07-.33.51.51,0,0,1,.21-.2l-.33-.46H46l.48.66.38-.66h.27Z" transform="translate(-0.02 -0.02)"/><path class="cls-8" d="M16.51,18.11,16,19.33h-.42l.47-1.16H15.3v-.72h.4v.41h.81Z" transform="translate(-0.02 -0.02)"/><path class="cls-8" d="M17.75,18.71l.43.62h-.45l-.53-.78a.21.21,0,0,0,0,.12v.66h-.38v-.49a.73.73,0,0,1,.06-.32.46.46,0,0,1,.2-.19l-.32-.47h.44l.35.5.24-.5h.44Z" transform="translate(-0.02 -0.02)"/><path class="cls-8" d="M18.57,18.17h-.23v-.31H19v.84h-.4Z" transform="translate(-0.02 -0.02)"/><path class="cls-8" d="M19.37,19.34l-.15,0V19h.18a.14.14,0,0,0,.12-.05.17.17,0,0,0,0-.13v-.68h-.25v-.31H20v1a.62.62,0,0,1-.05.25.44.44,0,0,1-.16.17.6.6,0,0,1-.24.05Z" transform="translate(-0.02 -0.02)"/><path class="cls-8" d="M21.5,17.86v.31h-.26v1.16h-.39V18.17h-.62v-.31Z" transform="translate(-0.02 -0.02)"/><path class="cls-8" d="M23.55,17.86v.31h-.26v1.16H22.9V18.17h-.62v-.31Z" transform="translate(-0.02 -0.02)"/><path class="cls-8" d="M25,17.86v.84a.69.69,0,0,1-.09.36.58.58,0,0,1-.26.23.86.86,0,0,1-.38.07,1.49,1.49,0,0,1-.58-.11l.08-.28a1.57,1.57,0,0,0,.33.08A.24.24,0,0,1,24,19a.21.21,0,0,1,0-.11l-.23-1h.4l.22,1a.47.47,0,0,0,0,.14.33.33,0,0,0,.14-.12.38.38,0,0,0,.05-.19v-.86Z" transform="translate(-0.02 -0.02)"/><path class="cls-8" d="M26.49,18.11,26,19.33h-.42l.48-1.16h-.78v-.72h.4v.41h.8Z" transform="translate(-0.02 -0.02)"/><path class="cls-8" d="M27.74,18.71l.42.62h-.44l-.54-.78a.21.21,0,0,0,0,.12v.66h-.38v-.49a.73.73,0,0,1,.06-.32.41.41,0,0,1,.2-.19l-.32-.47h.44l.35.5.23-.5h.45Z" transform="translate(-0.02 -0.02)"/><path class="cls-8" d="M29.31,19.56a1.08,1.08,0,0,1-.18.24l-.19-.1,0-.05.06-.11,0-.11a.51.51,0,0,0,0-.13V19h.31v.25A.62.62,0,0,1,29.31,19.56Z" transform="translate(-0.02 -0.02)"/><path class="cls-8" d="M30.53,18.69a.5.5,0,0,1,0,.13.52.52,0,0,1,0,.14v.87h-.38v-.92a.17.17,0,0,0,0-.07s0,0,0-.07l-.62-.91H30l.29.48.22-.48H31Z" transform="translate(-0.02 -0.02)"/><path class="cls-8" d="M31.07,19.29l.06-.29a1.25,1.25,0,0,0,.31,0A.38.38,0,0,0,31.7,19a.32.32,0,0,0,.08-.23v-.57h-.66v-.31h1.06v.81a.68.68,0,0,1-.18.52.73.73,0,0,1-.51.16A1.7,1.7,0,0,1,31.07,19.29Z" transform="translate(-0.02 -0.02)"/><path class="cls-8" d="M34.28,18.11l-.48,1.22h-.42l.47-1.16h-.78v-.72h.4v.41h.81Z" transform="translate(-0.02 -0.02)"/><path class="cls-8" d="M35.52,18.71l.43.62H35.5L35,18.55a.21.21,0,0,0,0,.12v.66h-.39v-.49a.73.73,0,0,1,.06-.32.46.46,0,0,1,.2-.19l-.32-.47h.44l.35.5.24-.5H36Z" transform="translate(-0.02 -0.02)"/><path class="cls-8" d="M36.34,18.17h-.23v-.31h.63v.84h-.4Z" transform="translate(-0.02 -0.02)"/><path class="cls-8" d="M37.14,19.34l-.15,0V19h.18a.14.14,0,0,0,.12-.05.17.17,0,0,0,0-.13v-.68h-.25v-.31h.65v1a.62.62,0,0,1,0,.25.44.44,0,0,1-.16.17.6.6,0,0,1-.24.05Z" transform="translate(-0.02 -0.02)"/><path class="cls-8" d="M39.27,17.86v.31H39v1.16h-.39V18.17H38v-.31Z" transform="translate(-0.02 -0.02)"/><path class="cls-8" d="M40.4,19.56a1.08,1.08,0,0,1-.18.24l-.2-.1,0-.05.05-.11a.36.36,0,0,0,0-.11.53.53,0,0,0,0-.13V19h.32v.25A.75.75,0,0,1,40.4,19.56Z" transform="translate(-0.02 -0.02)"/><path class="cls-8" d="M40.91,18.17h-.23v-.31h.62v.84h-.39Z" transform="translate(-0.02 -0.02)"/><path class="cls-8" d="M41.71,19.34l-.15,0V19h.18a.17.17,0,0,0,.12-.05.17.17,0,0,0,0-.13v-.68h-.26v-.31h.66v1a.49.49,0,0,1-.06.25.35.35,0,0,1-.15.17.62.62,0,0,1-.25.05Z" transform="translate(-0.02 -0.02)"/><path class="cls-8" d="M42.71,18.17h-.13v-.31h.53v1.47h-.4Z" transform="translate(-0.02 -0.02)"/><path class="cls-8" d="M44,18.36a.2.2,0,0,0-.05-.14.21.21,0,0,0-.16,0h-.44v-.31h.47a.75.75,0,0,1,.31.06.49.49,0,0,1,.2.18.61.61,0,0,1,.07.28v.95H44Z" transform="translate(-0.02 -0.02)"/><path class="cls-8" d="M45.13,19l.22.07.22,0A.66.66,0,0,0,46,19a.4.4,0,0,0,.16-.34v-.75h.38v.79a.65.65,0,0,1-.12.4.76.76,0,0,1-.34.24,1.46,1.46,0,0,1-.48.08,2.18,2.18,0,0,1-.43-.05,2.07,2.07,0,0,1-.42-.14V17.86h.39Zm.3-.25c0-.06,0-.12,0-.18v-.68h.38v.59a.85.85,0,0,1,0,.23.34.34,0,0,1-.08.17h-.32A.33.33,0,0,0,45.43,18.72Z" transform="translate(-0.02 -0.02)"/><path class="cls-8" d="M47.52,18.82a.44.44,0,0,1,.09-.31h.32a1.06,1.06,0,0,0,0,.27v.55h-.39Zm.84-.44c0-.14-.07-.21-.22-.21h-.61v-.31h.64a.79.79,0,0,1,.32.06.52.52,0,0,1,.2.19.51.51,0,0,1,.07.28v.94h-.4Z" transform="translate(-0.02 -0.02)"/><path class="cls-8" d="M49.21,18.17H49v-.31h.62v.84h-.39Z" transform="translate(-0.02 -0.02)"/><path class="cls-8" d="M51.07,18.11l-.48,1.22h-.42l.48-1.16h-.78v-.72h.39v.41h.81Z" transform="translate(-0.02 -0.02)"/><path class="cls-8" d="M52.5,17.86v.31h-.26v1.16h-.4V18.17h-.61v-.31Z" transform="translate(-0.02 -0.02)"/><path class="cls-8" d="M53.63,19.56a1.08,1.08,0,0,1-.18.24l-.2-.1,0-.05,0-.11a.36.36,0,0,0,0-.11.53.53,0,0,0,0-.13V19h.32v.25A.77.77,0,0,1,53.63,19.56Z" transform="translate(-0.02 -0.02)"/><path class="cls-8" d="M54,18.82a.44.44,0,0,1,.09-.31h.31a1.87,1.87,0,0,0,0,.27v.55H54Zm.84-.44a.19.19,0,0,0-.22-.21H54v-.31h.65a.71.71,0,0,1,.31.06.55.55,0,0,1,.21.19.61.61,0,0,1,.06.28v.94h-.39Z" transform="translate(-0.02 -0.02)"/><path class="cls-8" d="M55.92,19.28a.63.63,0,0,1-.23-.23.67.67,0,0,1-.08-.33v-.86H56v.91a.4.4,0,0,0,0,.15.28.28,0,0,0,.09.1.25.25,0,0,0,.13,0,.24.24,0,0,0,.12,0,.28.28,0,0,0,.09-.1.4.4,0,0,0,0-.15v-.42a.2.2,0,0,0,0-.14.15.15,0,0,0-.12-.05l-.13,0,0-.25a.47.47,0,0,1,.15-.06l.16,0a.38.38,0,0,1,.22.06.33.33,0,0,1,.15.16.71.71,0,0,1,0,.26v.4a.67.67,0,0,1-.08.33.57.57,0,0,1-.23.23.7.7,0,0,1-.33.08A.74.74,0,0,1,55.92,19.28Z" transform="translate(-0.02 -0.02)"/><path class="cls-8" d="M57.31,18.17h-.23v-.31h.62v.84h-.39Z" transform="translate(-0.02 -0.02)"/><path class="cls-8" d="M58.11,19.34l-.15,0V19h.18a.17.17,0,0,0,.12-.05.17.17,0,0,0,0-.13v-.68H58v-.31h.66v1a.49.49,0,0,1-.06.25.35.35,0,0,1-.15.17.62.62,0,0,1-.25.05Z" transform="translate(-0.02 -0.02)"/><path class="cls-8" d="M60.22,19v.3H59V19h.7v-.64c0-.14-.08-.21-.23-.21H59v-.31h.42a.76.76,0,0,1,.32.06.46.46,0,0,1,.2.19.51.51,0,0,1,.07.28V19Z" transform="translate(-0.02 -0.02)"/><path class="cls-8" d="M61.1,18.17H61v-.31h.52v2H61.1Z" transform="translate(-0.02 -0.02)"/><path class="cls-8" d="M63,17.86v.31h-.26v1.16h-.4V18.17h-.61v-.31Z" transform="translate(-0.02 -0.02)"/><path class="cls-8" d="M64.49,17.86v.84a.69.69,0,0,1-.09.36.56.56,0,0,1-.25.23.89.89,0,0,1-.38.07,1.46,1.46,0,0,1-.58-.11l.08-.28a1.36,1.36,0,0,0,.32.08.35.35,0,0,1-.07-.09.37.37,0,0,1-.05-.11l-.22-1h.4l.21,1a.46.46,0,0,0,0,.14.41.41,0,0,0,.14-.12.38.38,0,0,0,0-.19v-.86Z" transform="translate(-0.02 -0.02)"/><path class="cls-8" d="M14.65,24.29a.18.18,0,0,1,0,.1.18.18,0,0,1,0,.11.21.21,0,0,1-.12,0,.21.21,0,0,1-.11,0,.18.18,0,0,1,0-.11.18.18,0,0,1,0-.1.15.15,0,0,1,.11,0A.16.16,0,0,1,14.65,24.29Zm0-1.17a.21.21,0,0,1,0,.11.15.15,0,0,1,0,.1.16.16,0,0,1-.12,0,.15.15,0,0,1-.11,0,.18.18,0,0,1,0-.1.14.14,0,0,1,.15-.15A.21.21,0,0,1,14.65,23.12Z" transform="translate(-0.02 -0.02)"/><path class="cls-8" d="M15.1,23h1.24v1.55H15.1Zm1,1.35V23.17h-.76v1.15Z" transform="translate(-0.02 -0.02)"/><path class="cls-8" d="M16.94,23.17h-.29V23h.53v.87h-.24Z" transform="translate(-0.02 -0.02)"/><path class="cls-8" d="M17.93,24.46a.62.62,0,0,1-.23-.25.87.87,0,0,1-.08-.37v-.16a.64.64,0,0,1,0-.2.48.48,0,0,1,.07-.18.34.34,0,0,1,.12-.12h0l-.27.07,0-.19.35-.07.35,0a.76.76,0,0,1,.38.09.56.56,0,0,1,.24.24.89.89,0,0,1,.08.38v.19a.87.87,0,0,1-.08.37.62.62,0,0,1-.23.25.68.68,0,0,1-.35.09A.67.67,0,0,1,17.93,24.46Zm.56-.18a.45.45,0,0,0,.15-.18.67.67,0,0,0,.05-.26v-.18a.78.78,0,0,0-.05-.28.5.5,0,0,0-.15-.17.44.44,0,0,0-.23-.06.37.37,0,0,0-.21.06.44.44,0,0,0-.14.18.78.78,0,0,0-.05.28v.17a.67.67,0,0,0,.05.26.45.45,0,0,0,.15.18.37.37,0,0,0,.21.06A.38.38,0,0,0,18.49,24.28Z" transform="translate(-0.02 -0.02)"/><path class="cls-8" d="M20,23.44a.26.26,0,0,0-.07-.2.27.27,0,0,0-.2-.07h-.53V23h.53A.61.61,0,0,1,20,23a.37.37,0,0,1,.18.17.53.53,0,0,1,.06.26v1.06H20Z" transform="translate(-0.02 -0.02)"/><path class="cls-8" d="M20.75,23.17h-.18V23H21v1.55h-.25Z" transform="translate(-0.02 -0.02)"/><path class="cls-8" d="M22,24.33a.4.4,0,0,0,.22-.06.33.33,0,0,0,.16-.15.56.56,0,0,0,.05-.23v-.72h-1V23h1.2v.91a.63.63,0,0,1-.08.34.57.57,0,0,1-.24.22.78.78,0,0,1-.35.08Zm-.5-.39a.92.92,0,0,1,0-.19,1.21,1.21,0,0,1,.05-.14h.2a.59.59,0,0,0,0,.14.81.81,0,0,0,0,.17v1.15H21.5Z" transform="translate(-0.02 -0.02)"/><path class="cls-8" d="M24.2,23.12l-.57,1.4h-.26l.56-1.35H23V22.5h.25V23h.93Z" transform="translate(-0.02 -0.02)"/><path class="cls-8" d="M26.33,25.07h-.24v-1.9h-.53a.61.61,0,0,0-.07.18.91.91,0,0,0,0,.23v.18l.08,0h.13V24l-.26,0a.45.45,0,0,1-.18-.07v-.26a1.22,1.22,0,0,1,0-.26.69.69,0,0,1,.1-.21h-.19V23h1.17Z" transform="translate(-0.02 -0.02)"/><path class="cls-8" d="M27.91,23.12a.57.57,0,0,1,.15.44v1h-.25v-1a.44.44,0,0,0-.08-.29.38.38,0,0,0-.28-.09h-.22a.52.52,0,0,0-.07.18.85.85,0,0,0,0,.23v.52a.44.44,0,0,1-.1.32.36.36,0,0,1-.29.12l-.16,0v-.19h.09a.21.21,0,0,0,.17-.06.24.24,0,0,0,.05-.18V23.6a.67.67,0,0,1,0-.24.57.57,0,0,1,.08-.19h-.29V23h.73A.65.65,0,0,1,27.91,23.12Z" transform="translate(-0.02 -0.02)"/><path class="cls-8" d="M28.57,23.17h-.18V23h.43v1.55h-.25Z" transform="translate(-0.02 -0.02)"/><path class="cls-8" d="M29.53,24.25l.27.08.26,0a1.16,1.16,0,0,0,.34-.05.61.61,0,0,0,.24-.17.48.48,0,0,0,.08-.27V23H31v.92a.59.59,0,0,1-.12.37.68.68,0,0,1-.32.22,1.23,1.23,0,0,1-.44.08,1.83,1.83,0,0,1-.4,0,1.63,1.63,0,0,1-.39-.13V23h.24ZM30,24a1.25,1.25,0,0,0,0-.21V23h.24v.73a.75.75,0,0,1,0,.23.4.4,0,0,1-.1.17H29.9A.27.27,0,0,0,30,24Z" transform="translate(-0.02 -0.02)"/><path class="cls-8" d="M31.54,23.53a.76.76,0,0,1,.06-.2.61.61,0,0,1,.12-.15h0l-.15,0-.16,0-.06-.18a1.69,1.69,0,0,1,.34-.09l.35,0a.65.65,0,0,1,.48.17.66.66,0,0,1,.17.49v.92h-.64v-.19h.4v-.76a.46.46,0,0,0-.1-.32.33.33,0,0,0-.27-.1.29.29,0,0,0-.21.09.55.55,0,0,0-.11.27l-.12,1h-.24Z" transform="translate(-0.02 -0.02)"/><path class="cls-8" d="M34.11,24.47a.5.5,0,0,1-.21-.22.57.57,0,0,1-.08-.32V23h.24v1a.46.46,0,0,0,0,.21.29.29,0,0,0,.13.14.34.34,0,0,0,.2.06.31.31,0,0,0,.19-.06.38.38,0,0,0,.14-.14.46.46,0,0,0,0-.21v-.53a.33.33,0,0,0-.05-.19.19.19,0,0,0-.16-.07.49.49,0,0,0-.19.05l0-.16a.35.35,0,0,1,.15-.07.4.4,0,0,1,.15,0,.37.37,0,0,1,.21.06.32.32,0,0,1,.13.15.6.6,0,0,1,.05.24v.53a.66.66,0,0,1-.08.32.47.47,0,0,1-.22.22.57.57,0,0,1-.32.08A.62.62,0,0,1,34.11,24.47Z" transform="translate(-0.02 -0.02)"/><path class="cls-8" d="M36,24.33a.4.4,0,0,0,.22-.06.33.33,0,0,0,.16-.15.56.56,0,0,0,0-.23v-.72h-1V23h1.2v.91a.63.63,0,0,1-.08.34.57.57,0,0,1-.24.22.78.78,0,0,1-.35.08Zm-.5-.39a.92.92,0,0,1,0-.19,1.21,1.21,0,0,1,0-.14h.2a.59.59,0,0,0,0,.14.81.81,0,0,0,0,.17v1.15h-.24Z" transform="translate(-0.02 -0.02)"/><path class="cls-8" d="M37.28,23.17H37V23h.53v.87h-.25Z" transform="translate(-0.02 -0.02)"/><path class="cls-8" d="M38.05,23.17h-.18V23h.43v1.55h-.25Z" transform="translate(-0.02 -0.02)"/><path class="cls-8" d="M39.41,23.44a.26.26,0,0,0-.07-.2.27.27,0,0,0-.2-.07h-.53V23h.53a.61.61,0,0,1,.28.06.37.37,0,0,1,.18.17.53.53,0,0,1,.06.26v1.06h-.25Z" transform="translate(-0.02 -0.02)"/><path class="cls-8" d="M40.38,24.53l-.26-.07.05-.18.23,0,.22,0a.49.49,0,0,0,.33-.11.39.39,0,0,0,.12-.31v-.76h-.62a.61.61,0,0,0-.07.18.83.83,0,0,0,0,.22v.12l.08,0h.13v.21H40.3l-.18-.07v-.2a1.09,1.09,0,0,1,0-.26.69.69,0,0,1,.1-.21h-.19V23h1.26v.92a.77.77,0,0,1-.08.36.59.59,0,0,1-.24.23,1,1,0,0,1-.35.07Z" transform="translate(-0.02 -0.02)"/><path class="cls-8" d="M43.56,23.12a.57.57,0,0,1,.15.44v1h-.25v-1a.44.44,0,0,0-.08-.29.38.38,0,0,0-.28-.09h-.22a.52.52,0,0,0-.07.18.85.85,0,0,0,0,.23v.52a.44.44,0,0,1-.1.32.38.38,0,0,1-.3.12l-.15,0v-.19h.09a.21.21,0,0,0,.17-.06.24.24,0,0,0,0-.18V23.6a.67.67,0,0,1,0-.24.42.42,0,0,1,.08-.19h-.29V23h.72A.66.66,0,0,1,43.56,23.12Z" transform="translate(-0.02 -0.02)"/><path class="cls-8" d="M44.79,23.44a.26.26,0,0,0-.08-.2.26.26,0,0,0-.2-.07H44V23h.53a.57.57,0,0,1,.27.06.37.37,0,0,1,.18.17.53.53,0,0,1,.06.26v1.06h-.24Z" transform="translate(-0.02 -0.02)"/><path class="cls-8" d="M45.26,24.53V24.3h.08a.39.39,0,0,0,.3-.12.52.52,0,0,0,.16-.28v-.74h-.35V23H46v.8a1.94,1.94,0,0,0,0,.24l.11.51h-.23l-.09-.43h0a.47.47,0,0,1-.09.22.55.55,0,0,1-.18.16.54.54,0,0,1-.25.06Z" transform="translate(-0.02 -0.02)"/><path class="cls-8" d="M46.82,24.46a.56.56,0,0,1-.23-.25.75.75,0,0,1-.09-.37v-.16a.64.64,0,0,1,0-.2.75.75,0,0,1,.08-.18.26.26,0,0,1,.11-.12h0l-.28.07L46.41,23l.35-.07.36,0a.72.72,0,0,1,.37.09.56.56,0,0,1,.24.24.76.76,0,0,1,.08.38v.19a.75.75,0,0,1-.08.37.56.56,0,0,1-.23.25.69.69,0,0,1-.68,0Zm.55-.18a.34.34,0,0,0,.15-.18.67.67,0,0,0,0-.26v-.18a.78.78,0,0,0,0-.28.35.35,0,0,0-.15-.17.41.41,0,0,0-.23-.06.36.36,0,0,0-.2.06.37.37,0,0,0-.14.18.78.78,0,0,0,0,.28v.17a.53.53,0,0,0,0,.26.37.37,0,0,0,.14.18.4.4,0,0,0,.22.06A.37.37,0,0,0,47.37,24.28Z" transform="translate(-0.02 -0.02)"/><path class="cls-8" d="M48.34,23.53a.76.76,0,0,1,.06-.2.61.61,0,0,1,.12-.15h0l-.15,0-.16,0-.06-.18a1.69,1.69,0,0,1,.34-.09l.35,0a.65.65,0,0,1,.48.17.66.66,0,0,1,.17.49v.92h-.64v-.19h.4v-.76a.46.46,0,0,0-.1-.32.33.33,0,0,0-.27-.1.27.27,0,0,0-.21.09.55.55,0,0,0-.11.27l-.12,1h-.24Z" transform="translate(-0.02 -0.02)"/><path class="cls-8" d="M51.07,24.33v.19H49.79v-.2h.84v-.77a.33.33,0,0,0-.38-.38h-.38V23h.39a.62.62,0,0,1,.46.15.54.54,0,0,1,.16.43v.77Z" transform="translate(-0.02 -0.02)"/><path class="cls-8" d="M52,23h.59a.64.64,0,0,1,.46.15.57.57,0,0,1,.15.44v1H53v-1a.39.39,0,0,0-.09-.29.38.38,0,0,0-.28-.09h-.34v1.35H52Z" transform="translate(-0.02 -0.02)"/><path class="cls-8" d="M54.78,23.12a.57.57,0,0,1,.15.44v1h-.25v-1a.44.44,0,0,0-.08-.29.38.38,0,0,0-.28-.09H54.1a.38.38,0,0,0-.07.18.85.85,0,0,0,0,.23v.52a.44.44,0,0,1-.1.32.38.38,0,0,1-.3.12l-.15,0v-.19h.09a.21.21,0,0,0,.17-.06.24.24,0,0,0,0-.18V23.6a1,1,0,0,1,0-.24.56.56,0,0,1,.09-.19h-.29V23h.72A.66.66,0,0,1,54.78,23.12Z" transform="translate(-0.02 -0.02)"/><path class="cls-8" d="M55.44,23.17h-.18V23h.42v1.55h-.24Z" transform="translate(-0.02 -0.02)"/><path class="cls-8" d="M56.45,24.53l-.26-.07,0-.18.24,0,.21,0a.5.5,0,0,0,.34-.11.42.42,0,0,0,.11-.31v-.76h-.62a.61.61,0,0,0-.07.18,1.64,1.64,0,0,0,0,.22v.12l.08,0h.12v.21h-.25l-.19-.07v-.2a1.09,1.09,0,0,1,0-.26.51.51,0,0,1,.09-.21h-.19V23h1.27v.92a.66.66,0,0,1-.09.36.49.49,0,0,1-.24.23,1,1,0,0,1-.35.07Z" transform="translate(-0.02 -0.02)"/><path class="cls-8" d="M57.93,23.17h-.18V23h.42v1.55h-.24Z" transform="translate(-0.02 -0.02)"/><path class="cls-8" d="M59.38,23.17H59.2V23h.42v2.1h-.24Z" transform="translate(-0.02 -0.02)"/><path class="cls-8" d="M60.22,23.17h-.29V23h.53v.87h-.24Z" transform="translate(-0.02 -0.02)"/><path class="cls-8" d="M61,23.17h-.28V23h.53v.87H61Z" transform="translate(-0.02 -0.02)"/><path class="cls-8" d="M62,24.53l-.26-.07,0-.18.23,0,.22,0a.49.49,0,0,0,.33-.11.39.39,0,0,0,.12-.31v-.76h-.62a.61.61,0,0,0-.07.18.83.83,0,0,0,0,.22v.12l.08,0h.13v.21h-.26l-.19-.07v-.2a1.09,1.09,0,0,1,0-.26.69.69,0,0,1,.09-.21h-.18V23h1.26v.92a.77.77,0,0,1-.08.36.59.59,0,0,1-.24.23,1,1,0,0,1-.36.07Z" transform="translate(-0.02 -0.02)"/><path class="cls-8" d="M63.49,23.17h-.18V23h.43v1.55h-.25Z" transform="translate(-0.02 -0.02)"/><path class="cls-8" d="M65.08,23.84l.5.68H65.3l-.69-.95a.34.34,0,0,0-.14.3v.65h-.24V24a.74.74,0,0,1,.07-.33.51.51,0,0,1,.21-.2L64.18,23h.27l.48.66.38-.66h.27Z" transform="translate(-0.02 -0.02)"/><path class="cls-8" d="M6.45,27.94l.42.62H6.43l-.54-.78a.28.28,0,0,0,0,.13v.65H5.48v-.48a.75.75,0,0,1,.06-.33.46.46,0,0,1,.2-.19l-.33-.47h.45l.34.5.24-.5h.45Z" transform="translate(-0.02 -0.02)"/><path class="cls-8" d="M7.24,27.37H7v-.69h.26v.17Zm.42,0H7.45v-.69h.26v.17Z" transform="translate(-0.02 -0.02)"/><path class="cls-8" d="M8.25,28.57,8,28.5l.07-.29.24.05.21,0a.4.4,0,0,0,.26-.08A.29.29,0,0,0,8.85,28V27.4H8.42a.7.7,0,0,0,0,.14.51.51,0,0,0,0,.13v.07H8.5V28H8.35a.65.65,0,0,1-.2,0A.46.46,0,0,1,8,27.93V27.8a1.5,1.5,0,0,1,0-.22.75.75,0,0,1,.07-.18H7.93v-.31H9.24v.83a.74.74,0,0,1-.09.38.62.62,0,0,1-.26.22.83.83,0,0,1-.36.07Z" transform="translate(-0.02 -0.02)"/><path class="cls-8" d="M10,28.2l.22.07.22,0a.66.66,0,0,0,.42-.12.38.38,0,0,0,.16-.34v-.75h.38v.8a.65.65,0,0,1-.12.39.76.76,0,0,1-.34.24,1.21,1.21,0,0,1-.48.08,2.15,2.15,0,0,1-.43,0,2.86,2.86,0,0,1-.41-.15V27.09H10Zm.3-.25a1,1,0,0,0,0-.18v-.68h.38v.59a1.66,1.66,0,0,1,0,.24.54.54,0,0,1-.08.17h-.33A.39.39,0,0,0,10.32,28Z" transform="translate(-0.02 -0.02)"/><path class="cls-8" d="M12.93,27.23a.57.57,0,0,1,.15.42v.91h-.4v-.95q0-.21-.18-.21h-.19l0,.15c0,.05,0,.1,0,.14v.42a.49.49,0,0,1,0,.25.5.5,0,0,1-.15.17.62.62,0,0,1-.25,0h-.19v-.31h.08a.16.16,0,0,0,.18-.18v-.35a.52.52,0,0,1,0-.17A.44.44,0,0,1,12,27.4h-.23v-.31h.76A.62.62,0,0,1,12.93,27.23Z" transform="translate(-0.02 -0.02)"/><path class="cls-8" d="M14.28,28.79a.61.61,0,0,1-.17.24l-.2-.1,0-.05.05-.11s0-.07,0-.11,0-.08,0-.13v-.28h.31v.26A.58.58,0,0,1,14.28,28.79Z" transform="translate(-0.02 -0.02)"/><path class="cls-8" d="M15.12,28.56V27.23l-.41.12v-.3l.76-.27h0v1.78Z" transform="translate(-0.02 -0.02)"/><path class="cls-8" d="M16.86,27.4h-.23v-.31h.62v.84h-.39Z" transform="translate(-0.02 -0.02)"/><path class="cls-8" d="M18.77,28.26v.3H17.5v-.31h.7v-.64A.19.19,0,0,0,18,27.4h-.4v-.31H18a.59.59,0,0,1,.31.07.46.46,0,0,1,.21.18.65.65,0,0,1,.07.29v.61Z" transform="translate(-0.02 -0.02)"/><path class="cls-8" d="M19.09,27.4h-.23v-.31h.63v.84h-.4Z" transform="translate(-0.02 -0.02)"/><path class="cls-8" d="M20.18,28.51a.54.54,0,0,1-.23-.22.74.74,0,0,1-.08-.34v-.86h.4V28a.33.33,0,0,0,0,.15.2.2,0,0,0,.08.1.3.3,0,0,0,.26,0,.22.22,0,0,0,.09-.1.33.33,0,0,0,0-.15v-.42a.26.26,0,0,0,0-.14.17.17,0,0,0-.13,0h-.13l0-.25a.52.52,0,0,1,.15-.06.44.44,0,0,1,.15,0,.52.52,0,0,1,.23.05.39.39,0,0,1,.14.17.49.49,0,0,1,0,.25V28a.63.63,0,0,1-.08.34.52.52,0,0,1-.22.22.74.74,0,0,1-.34.08A.67.67,0,0,1,20.18,28.51Z" transform="translate(-0.02 -0.02)"/><path class="cls-8" d="M22,28.26a.3.3,0,0,0,.32-.35V27.4h-.85v-.31h1.24v.82a.61.61,0,0,1-.08.34.56.56,0,0,1-.24.22.93.93,0,0,1-.39.09Zm-.52-.21a.58.58,0,0,1,0-.21l.06-.11h.32a1,1,0,0,0,0,.28v1.06h-.38Z" transform="translate(-0.02 -0.02)"/><path class="cls-8" d="M24.07,27.94l.42.62h-.44l-.53-.78a.2.2,0,0,0,0,.13v.65H23.1v-.48a.75.75,0,0,1,.06-.33.46.46,0,0,1,.2-.19L23,27.09h.44l.35.5.23-.5h.45Z" transform="translate(-0.02 -0.02)"/><path class="cls-8" d="M25.28,27.59a.16.16,0,0,0-.05-.14.23.23,0,0,0-.15-.05h-.44v-.31h.47a.58.58,0,0,1,.3.07.42.42,0,0,1,.2.17.54.54,0,0,1,.07.29v.94h-.4Z" transform="translate(-0.02 -0.02)"/><path class="cls-8" d="M26.35,28.51a.54.54,0,0,1-.23-.22A.74.74,0,0,1,26,28v-.86h.4V28a.33.33,0,0,0,0,.15.27.27,0,0,0,.08.1.3.3,0,0,0,.26,0,.22.22,0,0,0,.09-.1.33.33,0,0,0,0-.15v-.42a.2.2,0,0,0,0-.14.16.16,0,0,0-.12,0h-.13l0-.25a.52.52,0,0,1,.15-.06.47.47,0,0,1,.16,0,.51.51,0,0,1,.22.05.5.5,0,0,1,.15.17.62.62,0,0,1,0,.25V28a.74.74,0,0,1-.08.34.61.61,0,0,1-.23.22.74.74,0,0,1-.34.08A.7.7,0,0,1,26.35,28.51Z" transform="translate(-0.02 -0.02)"/><path class="cls-8" d="M27.67,28.58l-.15,0v-.3h.18a.16.16,0,0,0,.12,0,.26.26,0,0,0,0-.14V27.4H27.6v-.31h.65v1a.49.49,0,0,1-.05.25.42.42,0,0,1-.15.17.49.49,0,0,1-.25,0Z" transform="translate(-0.02 -0.02)"/><path class="cls-8" d="M28.74,27.4h-.23v-.31h.63v.84h-.4Z" transform="translate(-0.02 -0.02)"/><path class="cls-8" d="M30.48,27.94l.42.62h-.44l-.53-.78a.2.2,0,0,0,0,.13v.65h-.38v-.48a.75.75,0,0,1,.06-.33.46.46,0,0,1,.2-.19l-.32-.47h.44l.35.5.23-.5h.45Z" transform="translate(-0.02 -0.02)"/><path class="cls-8" d="M32.94,27.23a.57.57,0,0,1,.15.42v.91h-.4v-.95q0-.21-.18-.21h-.19l0,.15c0,.05,0,.1,0,.14v.42a.49.49,0,0,1-.05.25.5.5,0,0,1-.15.17.62.62,0,0,1-.25,0h-.19v-.31h.08a.16.16,0,0,0,.18-.18v-.35a.52.52,0,0,1,0-.17A.44.44,0,0,1,32,27.4h-.23v-.31h.76A.62.62,0,0,1,32.94,27.23Z" transform="translate(-0.02 -0.02)"/><path class="cls-8" d="M33.46,27.4h-.12v-.31h.52v1.47h-.4Z" transform="translate(-0.02 -0.02)"/><path class="cls-8" d="M34.28,28.58l-.15,0v-.3h.18c.06,0,.1,0,.12,0a.2.2,0,0,0,0-.14V27.4h-.25v-.31h.65v1a.62.62,0,0,1,0,.25.38.38,0,0,1-.16.17.47.47,0,0,1-.24,0Z" transform="translate(-0.02 -0.02)"/><path class="cls-8" d="M35.14,28.53l.06-.29a2.31,2.31,0,0,0,.32,0,.4.4,0,0,0,.26-.08.32.32,0,0,0,.08-.23V27.4H35.2v-.31h1v.82a.66.66,0,0,1-.17.51.73.73,0,0,1-.51.16A2.37,2.37,0,0,1,35.14,28.53Z" transform="translate(-0.02 -0.02)"/><path class="cls-8" d="M37.76,27.23a.57.57,0,0,1,.15.42v.91h-.4v-.95q0-.21-.18-.21h-.19l0,.15c0,.05,0,.1,0,.14v.42a.49.49,0,0,1-.05.25.5.5,0,0,1-.15.17.62.62,0,0,1-.25,0h-.19v-.31h.08a.16.16,0,0,0,.18-.18v-.35a.52.52,0,0,1,0-.17.44.44,0,0,1,.06-.16h-.23v-.31h.76A.62.62,0,0,1,37.76,27.23Z" transform="translate(-0.02 -0.02)"/><path class="cls-8" d="M40,27.9h-.43v.48h-.36V27.9h-.43v-.35h.43v-.46h.36v.46H40Z" transform="translate(-0.02 -0.02)"/><path class="cls-8" d="M41.28,28.56V27.23l-.41.12v-.3l.76-.27h0v1.78Z" transform="translate(-0.02 -0.02)"/><path class="cls-8" d="M44,27.23a.57.57,0,0,1,.15.42v.91h-.4v-.95q0-.21-.18-.21h-.19l0,.15c0,.05,0,.1,0,.14v.42a.49.49,0,0,1-.05.25.5.5,0,0,1-.15.17.62.62,0,0,1-.25,0h-.19v-.31h.08a.16.16,0,0,0,.18-.18v-.35a.52.52,0,0,1,0-.17.44.44,0,0,1,.06-.16h-.23v-.31h.76A.62.62,0,0,1,44,27.23Z" transform="translate(-0.02 -0.02)"/><path class="cls-8" d="M44.57,27.4h-.13v-.31H45v1.47h-.39Z" transform="translate(-0.02 -0.02)"/><path class="cls-8" d="M45.45,27.4h-.23v-.31h.62v.84h-.39Z" transform="translate(-0.02 -0.02)"/><path class="cls-8" d="M47.36,28.26v.3H46.09v-.31h.7v-.64c0-.14-.07-.21-.22-.21h-.4v-.31h.43a.66.66,0,0,1,.32.07.49.49,0,0,1,.2.18.54.54,0,0,1,.07.29v.61Z" transform="translate(-0.02 -0.02)"/><path class="cls-8" d="M47.68,27.4h-.23v-.31h.63v.84h-.4Z" transform="translate(-0.02 -0.02)"/><path class="cls-8" d="M48.77,28.51a.54.54,0,0,1-.23-.22.74.74,0,0,1-.08-.34v-.86h.4V28a.33.33,0,0,0,0,.15.27.27,0,0,0,.08.1.3.3,0,0,0,.26,0,.22.22,0,0,0,.09-.1.33.33,0,0,0,0-.15v-.42a.26.26,0,0,0,0-.14.17.17,0,0,0-.13,0h-.13l0-.25a.52.52,0,0,1,.15-.06.47.47,0,0,1,.16,0,.51.51,0,0,1,.22.05.5.5,0,0,1,.15.17.62.62,0,0,1,0,.25V28a.63.63,0,0,1-.08.34.52.52,0,0,1-.22.22.74.74,0,0,1-.34.08A.7.7,0,0,1,48.77,28.51Z" transform="translate(-0.02 -0.02)"/><path class="cls-8" d="M50.6,28.26a.3.3,0,0,0,.31-.35V27.4h-.85v-.31H51.3v.82a.61.61,0,0,1-.08.34.56.56,0,0,1-.24.22.92.92,0,0,1-.38.09Zm-.53-.21a.58.58,0,0,1,0-.21l.06-.11h.32a1,1,0,0,0,0,.28v1.06h-.38Z" transform="translate(-0.02 -0.02)"/><path class="cls-8" d="M52.66,27.94l.42.62h-.44l-.53-.78a.2.2,0,0,0,0,.13v.65h-.38v-.48a.75.75,0,0,1,.06-.33.46.46,0,0,1,.2-.19l-.32-.47h.44l.35.5.24-.5h.44Z" transform="translate(-0.02 -0.02)"/><path class="cls-8" d="M53.87,27.59a.16.16,0,0,0,0-.14.23.23,0,0,0-.15-.05h-.44v-.31h.47a.62.62,0,0,1,.31.07.45.45,0,0,1,.19.17.54.54,0,0,1,.07.29v.94h-.4Z" transform="translate(-0.02 -0.02)"/><path class="cls-8" d="M54.94,28.51a.61.61,0,0,1-.23-.22.74.74,0,0,1-.08-.34v-.86H55V28a.33.33,0,0,0,0,.15.22.22,0,0,0,.09.1.24.24,0,0,0,.12,0,.25.25,0,0,0,.13,0,.22.22,0,0,0,.09-.1.33.33,0,0,0,0-.15v-.42a.2.2,0,0,0,0-.14.16.16,0,0,0-.12,0h-.13l0-.25a.67.67,0,0,1,.15-.06.47.47,0,0,1,.16,0,.51.51,0,0,1,.22.05.5.5,0,0,1,.15.17.62.62,0,0,1,.05.25V28a.74.74,0,0,1-.08.34.61.61,0,0,1-.23.22.74.74,0,0,1-.34.08A.7.7,0,0,1,54.94,28.51Z" transform="translate(-0.02 -0.02)"/><path class="cls-8" d="M56.26,28.58l-.15,0v-.3h.18a.16.16,0,0,0,.12,0,.2.2,0,0,0,0-.14V27.4h-.26v-.31h.66v1a.49.49,0,0,1-.06.25.36.36,0,0,1-.15.17.49.49,0,0,1-.25,0Z" transform="translate(-0.02 -0.02)"/><path class="cls-8" d="M57.33,27.4H57.1v-.31h.63v.84h-.4Z" transform="translate(-0.02 -0.02)"/><path class="cls-8" d="M59.07,27.94l.42.62h-.44l-.53-.78a.2.2,0,0,0,0,.13v.65H58.1v-.48a.75.75,0,0,1,.06-.33.46.46,0,0,1,.2-.19L58,27.09h.44l.35.5.24-.5h.44Z" transform="translate(-0.02 -0.02)"/><path class="cls-8" d="M61.56,27.09v.31h-.25v1.16h-.4V27.4h-.62v-.31Z" transform="translate(-0.02 -0.02)"/><path class="cls-8" d="M61.86,27.4h-.12v-.31h.52v1.47h-.4Z" transform="translate(-0.02 -0.02)"/><path class="cls-8" d="M62.74,27.74a.41.41,0,0,1,0-.18.37.37,0,0,1,.08-.14l0,0h0l-.11,0-.11,0-.09-.29.33-.08.37,0a.61.61,0,0,1,.69.67v.83h-.65v-.31h.25v-.57a.34.34,0,0,0-.06-.22.19.19,0,0,0-.16-.08c-.13,0-.21.1-.23.31l-.08.87h-.4Z" transform="translate(-0.02 -0.02)"/><path class="cls-8" d="M64.41,27.4h-.22v-.31h.62v.84h-.4Z" transform="translate(-0.02 -0.02)"/><path class="cls-8" d="M66.28,27.35l-.48,1.21h-.42l.47-1.16h-.78v-.72h.4v.41h.81Z" transform="translate(-0.02 -0.02)"/><path class="cls-8" d="M68.3,27.23a.57.57,0,0,1,.15.42v.91h-.4v-.95c0-.14-.06-.21-.19-.21h-.19c0,.05,0,.1,0,.15a.71.71,0,0,0,0,.14v.42a.62.62,0,0,1,0,.25.44.44,0,0,1-.16.17.6.6,0,0,1-.24,0H67v-.31h.08c.11,0,.17-.06.17-.18v-.35a1.11,1.11,0,0,1,0-.17l.06-.16h-.22v-.31h.75A.64.64,0,0,1,68.3,27.23Z" transform="translate(-0.02 -0.02)"/><path class="cls-8" d="M68.82,27.4H68.7v-.31h.52v1.47h-.4Z" transform="translate(-0.02 -0.02)"/><path class="cls-8" d="M70.74,28.26v.3H69.48v-.31h.7v-.64c0-.14-.08-.21-.23-.21h-.39v-.31H70a.63.63,0,0,1,.32.07.39.39,0,0,1,.2.18.54.54,0,0,1,.07.29v.61Z" transform="translate(-0.02 -0.02)"/><path class="cls-8" d="M71.07,27.4h-.23v-.31h.62v.84h-.39Z" transform="translate(-0.02 -0.02)"/><path class="cls-8" d="M73,28.26v.3H71.71v-.31h.7v-.64a.19.19,0,0,0-.22-.21h-.4v-.31h.42a.61.61,0,0,1,.32.07.46.46,0,0,1,.21.18.65.65,0,0,1,.07.29v.61Z" transform="translate(-0.02 -0.02)"/><path class="cls-8" d="M73.5,28.5a.53.53,0,0,1-.23-.24.69.69,0,0,1-.09-.36v-.08a.6.6,0,0,1,0-.22.5.5,0,0,1,.1-.18s0,0,0,0h0l-.18,0-.07-.29a2.24,2.24,0,0,1,.34-.07,2.36,2.36,0,0,1,.37,0,.68.68,0,0,1,.53.18.7.7,0,0,1,.18.52v.14a.68.68,0,0,1-.08.36.49.49,0,0,1-.23.24.68.68,0,0,1-.35.09A.64.64,0,0,1,73.5,28.5Zm.48-.28a.3.3,0,0,0,.09-.13.53.53,0,0,0,0-.19v-.13a.54.54,0,0,0-.07-.29.22.22,0,0,0-.2-.1.2.2,0,0,0-.19.1.55.55,0,0,0-.07.31v.11a.54.54,0,0,0,0,.19.25.25,0,0,0,.09.13.27.27,0,0,0,.28,0Z" transform="translate(-0.02 -0.02)"/><g class="cls-9"><polygon class="cls-10" points="71.76 7.05 71.4 8.04 70.26 8.04 71.19 8.65 70.83 9.64 71.76 9.03 72.69 9.64 72.33 8.65 73.26 8.04 72.11 8.04 71.76 7.05 71.76 7.05"/><polygon class="cls-10" points="66.74 6.74 66.3 7.97 64.87 7.97 66.03 8.72 65.58 9.95 66.74 9.19 67.89 9.95 67.45 8.72 68.6 7.97 67.18 7.97 66.74 6.74 66.74 6.74"/><polygon class="cls-10" points="61.06 6.21 60.48 7.84 58.58 7.84 60.11 8.85 59.53 10.48 61.06 9.47 62.59 10.48 62.01 8.85 63.54 7.84 61.65 7.84 61.06 6.21 61.06 6.21"/></g><g class="cls-11"><polygon class="cls-10" points="8.12 7.05 8.48 8.04 9.62 8.04 8.7 8.65 9.05 9.64 8.12 9.03 7.2 9.64 7.55 8.65 6.62 8.04 7.77 8.04 8.12 7.05 8.12 7.05"/><polygon class="cls-10" points="13.15 6.74 13.58 7.97 15.01 7.97 13.86 8.72 14.3 9.95 13.15 9.19 11.99 9.95 12.43 8.72 11.28 7.97 12.71 7.97 13.15 6.74 13.15 6.74"/><polygon class="cls-10" points="18.82 6.21 19.41 7.84 21.3 7.84 19.77 8.85 20.36 10.48 18.82 9.47 17.29 10.48 17.87 8.85 16.34 7.84 18.23 7.84 18.82 6.21 18.82 6.21"/></g><path class="cls-8" d="M26.63,10.73a4.47,4.47,0,0,1-.8,0l-.46,0c0-.22-.05-.59-.07-1.13a9.26,9.26,0,0,0-.06-.95L25,8.7a1.52,1.52,0,0,0-.34,0c0,.15,0,.28,0,.41s0,.39,0,.5V10a5.06,5.06,0,0,1,0,.67.76.76,0,0,1-.41.1h-.37l-.18,0-.23,0c0-.45-.07-1.11-.11-2s-.05-1.68-.05-2.38c0-.39,0-.67,0-.83h.84a.93.93,0,0,1,.34,0,6.94,6.94,0,0,1,.06.73V6.5c0,.21,0,.4,0,.54s0,.31.07.48l.29,0,.14,0,.14,0h0a10.17,10.17,0,0,0,.05-1.09c0-.25,0-.53,0-.83a2.87,2.87,0,0,1,.42-.08l.47,0,.35,0Z" transform="translate(-0.02 -0.02)"/><path class="cls-8" d="M28.13,8.16v.41c0,.45,0,.79,0,1,0,.43,0,.8,0,1.12a.27.27,0,0,1-.16.07l-.31,0h-.32a1.5,1.5,0,0,0-.49,0c0-.33,0-.66,0-1s0-.51,0-.91,0-.63,0-.88,0-.71,0-1l.18,0h.11c.3,0,.54,0,.71,0l.23,0C28.14,7.29,28.14,7.66,28.13,8.16Zm0-2.42s0,.13,0,.26v.48a.17.17,0,0,1-.12,0h-.29l-.28,0h-.55c0-.1,0-.24,0-.4V6a5.59,5.59,0,0,1,0-.58l1.22,0C28.11,5.54,28.12,5.65,28.12,5.74Z" transform="translate(-0.02 -0.02)"/><path class="cls-8" d="M30,7.06l.68,0h.47c0,.19,0,.31,0,.34s0,.1,0,.23v.24s0,.09,0,.17H30V9.44a.61.61,0,0,0,.39.21,3.07,3.07,0,0,0,.6.07h.16v.1h0a3.84,3.84,0,0,1,0,.55,1.18,1.18,0,0,1-.07.43l-.39,0a4.16,4.16,0,0,1-1.18-.16,1,1,0,0,1-.67-.55c0-.26-.07-.53-.09-.79s0-.57,0-.91V8h-.53l0-1h.53V5.64l.29,0,.28,0h.32l.29,0V7.06Z" transform="translate(-0.02 -0.02)"/><path class="cls-8" d="M35.79,6.05a4.6,4.6,0,0,1,0,.77,2.33,2.33,0,0,0-.38-.05H35c-.13,0-.19,0-.19,0a3.4,3.4,0,0,0,0,.43c0,.44,0,1.61.05,3.51a3.49,3.49,0,0,1-.5,0h-.21a4.86,4.86,0,0,0-.69.05,1,1,0,0,1,0-.15.74.74,0,0,1,0-.21v-1c0-.9,0-1.77-.06-2.63a.68.68,0,0,0-.23,0h-.3a1,1,0,0,1-.36,0,.64.64,0,0,1,0-.24c0-.13,0-.28,0-.45V5.51h1.45a17.13,17.13,0,0,1,1.8.08h.1C35.79,5.74,35.79,5.9,35.79,6.05Z" transform="translate(-0.02 -0.02)"/><path class="cls-8" d="M37.1,7.32h0a1.72,1.72,0,0,1,.41-.19A1.91,1.91,0,0,1,38,7.05a1.09,1.09,0,0,1,.75.24c.14.12.21.53.21,1.22,0,.2,0,.51,0,.93s0,.6,0,.76,0,.35,0,.56a4.29,4.29,0,0,1-.8,0h-.34c0-.14,0-.43,0-.85v-1a2.11,2.11,0,0,0,0-.34l-.06-.15-.08-.07a.39.39,0,0,0-.17,0,.37.37,0,0,0-.24.1.45.45,0,0,0-.11.32c0,.07,0,.19,0,.34s0,.3,0,.54,0,.43,0,.55a5.34,5.34,0,0,1,0,.6l-.32.06h-.48l-.34,0V9.37c0-.4,0-1.11,0-2.14s0-1.57,0-1.88l.37,0h.25l.12,0,.26,0c.12,0,.18,0,.19.07s0,.4,0,.81V7.32Z" transform="translate(-0.02 -0.02)"/><path class="cls-8" d="M40.36,9.47a.5.5,0,0,0,.1.24.41.41,0,0,0,.15.17.36.36,0,0,0,.2.06.29.29,0,0,0,.25-.17.85.85,0,0,0,.08-.49,2.34,2.34,0,0,0,.46,0l.7,0a5.31,5.31,0,0,1,0,.68,1.05,1.05,0,0,1-.18.51.74.74,0,0,1-.43.29,2.43,2.43,0,0,1-.64.08l-.4,0h-.34a1.15,1.15,0,0,1-.46-.16,1.59,1.59,0,0,1-.53-.8,3.65,3.65,0,0,1-.17-1.12,3.59,3.59,0,0,1,.18-1.17,1,1,0,0,1,.55-.52,2.1,2.1,0,0,1,.88-.18,2.24,2.24,0,0,1,.52,0,1.25,1.25,0,0,1,.84.54,1.93,1.93,0,0,1,.26,1c0,.06,0,.17,0,.33a3.55,3.55,0,0,1-.64.07c-.34,0-.65,0-.94,0h-.4v.15A1.6,1.6,0,0,0,40.36,9.47Zm.5-1.76a.47.47,0,0,0-.37.12.56.56,0,0,0-.14.33s0,.05,0,.07a0,0,0,0,0,0,0h.89a0,0,0,0,0,0,0v0a.76.76,0,0,0,0-.27.33.33,0,0,0-.16-.17h0A.34.34,0,0,0,40.86,7.71Z" transform="translate(-0.02 -0.02)"/><path class="cls-8" d="M47.28,7.27h0a1.83,1.83,0,0,1,.08.48c0,.15,0,.26,0,.33v.12s0,.15,0,.35a3.68,3.68,0,0,1-.07.58,4.71,4.71,0,0,1-.39.82,9.11,9.11,0,0,1-.59.81l-1,0H44.14A18.26,18.26,0,0,1,44,8.34v-1c0-.19,0-.52,0-1,0-.12,0-.3,0-.54V5.63h0a4.08,4.08,0,0,1,.91-.1h1a1.69,1.69,0,0,1,.52.26,1.62,1.62,0,0,1,.4.43l0,0A3.13,3.13,0,0,1,47.28,7.27ZM46.12,8A2.29,2.29,0,0,0,46,7.45a.43.43,0,0,0-.25-.26h-.44c0,.18,0,.35,0,.51v.9c0,.22,0,.38,0,.5l.15,0h.1l.17,0q.12,0,.27-.27a1.17,1.17,0,0,0,.18-.64A1.07,1.07,0,0,0,46.12,8Z" transform="translate(-0.02 -0.02)"/><path class="cls-8" d="M49.36,10.49h0a1.4,1.4,0,0,1-.41.19,1.49,1.49,0,0,1-.47.07,1.14,1.14,0,0,1-.75-.23c-.14-.13-.21-.53-.21-1.23,0-.2,0-.51,0-.92s0-.61,0-.76,0-.36,0-.56a4.14,4.14,0,0,1,.79,0h.35c0,.15,0,.44,0,.86s0,.52,0,.74a1.78,1.78,0,0,1,0,.25.92.92,0,0,0,.18.62.35.35,0,0,0,.16,0,.32.32,0,0,0,.23-.09.47.47,0,0,0,.12-.32c0-.14,0-.24,0-.31a4.43,4.43,0,0,0,0-.51c0-.06,0-.15,0-.27s0-.21,0-.3a3.82,3.82,0,0,1,0-.64A1.51,1.51,0,0,1,49.73,7h.83V8.3c0,.65,0,1.13,0,1.46s0,.58,0,1H50.1a3.46,3.46,0,0,1-.46,0c-.18,0-.26,0-.26-.05a1.61,1.61,0,0,1,0-.26Z" transform="translate(-0.02 -0.02)"/><path class="cls-8" d="M53.87,10.1a1,1,0,0,1-.15.42.79.79,0,0,1-.42.28,2.13,2.13,0,0,1-.65.09l-.39,0h-.37a1.26,1.26,0,0,1-.68-.34,1.09,1.09,0,0,1-.32-.55,2.88,2.88,0,0,1-.08-.75V9a4.37,4.37,0,0,0,0-.62,3.12,3.12,0,0,1,0-.55,1.5,1.5,0,0,1,.09-.35l0-.09h0A.71.71,0,0,1,51.41,7a2.65,2.65,0,0,1,.77-.11h.58a1.52,1.52,0,0,1,.87.32.69.69,0,0,1,.25.43,4.31,4.31,0,0,1,.08.76v.19a2.05,2.05,0,0,1-.39,0,4.37,4.37,0,0,1-.6-.05l-.17,0a.59.59,0,0,0-.15-.34.33.33,0,0,0-.28-.13h-.11a.49.49,0,0,0-.16.1.3.3,0,0,0-.08.18A4,4,0,0,0,52,9v.25c0,.06,0,.12,0,.2a.3.3,0,0,0,.12.26.42.42,0,0,0,.28.08.55.55,0,0,0,.28-.07.57.57,0,0,0,.07-.17,2.17,2.17,0,0,0,.07-.24,2.34,2.34,0,0,0,.46,0h.32l.28,0H54C53.93,9.63,53.9,9.9,53.87,10.1Z" transform="translate(-0.02 -0.02)"/><path class="cls-8" d="M57.39,10.79H57l-.47,0a2,2,0,0,1-.49,0l-.23-.43-.1-.19L55.58,10l-.18-.35v.43a4.34,4.34,0,0,1,0,.71h-.87l-.32,0q0-.78,0-1.74c0-.38,0-.95,0-1.7s0-1.42,0-2h1.22v2a3.13,3.13,0,0,0,0,.34v.09a.51.51,0,0,0,.12-.16s0-.09.06-.12l0-.07a.25.25,0,0,0,0-.07h0A3.53,3.53,0,0,1,56,6.84a1.25,1.25,0,0,0,.43.07h.91c-.13.19-.28.42-.46.66L56.54,8a.73.73,0,0,0-.09.12l-.1.12-.27.35a.62.62,0,0,0,.08.12l.07.1a2.13,2.13,0,0,0,.16.25A18.35,18.35,0,0,1,57.39,10.79Z" transform="translate(-0.02 -0.02)"/></g></g></svg>