<svg xmlns="http://www.w3.org/2000/svg" xmlns:xlink="http://www.w3.org/1999/xlink" viewBox="0 0 80.05 63.32"><defs><style>.cls-1,.cls-18,.cls-2,.cls-3,.cls-4,.cls-5,.cls-6{fill:none;}.cls-1,.cls-2,.cls-3,.cls-5,.cls-6{clip-rule:evenodd;}.cls-2{clip-path:url(#clip-path);}.cls-3{clip-path:url(#clip-path-2);}.cls-5{clip-path:url(#clip-path-3);}.cls-6{clip-path:url(#clip-path-4);}.cls-7{fill:#6dc5a8;}.cls-7,.cls-8,.cls-9{fill-rule:evenodd;}.cls-8{fill:#fff;}.cls-12,.cls-9{fill:#b64726;}.cls-10{clip-path:url(#clip-path-5);}.cls-11{clip-path:url(#clip-path-6);}.cls-13{clip-path:url(#clip-path-7);}.cls-14{clip-path:url(#clip-path-8);}.cls-15{fill:#231f20;}.cls-16{clip-path:url(#clip-path-9);}.cls-17{clip-path:url(#clip-path-10);}.cls-18{stroke:#000;stroke-width:0.02px;}.cls-19{clip-path:url(#clip-path-11);}.cls-20{clip-path:url(#clip-path-12);}</style><clipPath id="clip-path"><polygon class="cls-1" points="56.07 9.14 71.42 9.14 71.42 4.57 56.07 4.57 56.07 9.14 56.07 9.14"/></clipPath><clipPath id="clip-path-2"><polygon class="cls-1" points="24.2 19.96 29.86 19.96 29.86 14.28 24.2 14.28 24.2 19.96 24.2 19.96"/></clipPath><clipPath id="clip-path-3"><polygon class="cls-1" points="23.98 9.14 8.62 9.14 8.62 4.57 23.98 4.57 23.98 9.14 23.98 9.14"/></clipPath><clipPath id="clip-path-4"><polygon class="cls-1" points="47.61 19.99 53.27 19.99 53.27 14.31 47.61 14.31 47.61 19.99 47.61 19.99"/></clipPath><clipPath id="clip-path-5"><polygon class="cls-2" points="71.42 4.57 56.07 4.57 56.07 9.14 71.42 9.14 71.42 4.57 71.42 4.57"/></clipPath><clipPath id="clip-path-6"><polygon class="cls-4" points="71.42 9.14 56.07 9.14 56.07 4.57 71.42 4.57 71.42 9.14 71.42 9.14"/></clipPath><clipPath id="clip-path-7"><polygon class="cls-5" points="8.62 4.57 23.98 4.57 23.98 9.14 8.62 9.14 8.62 4.57 8.62 4.57"/></clipPath><clipPath id="clip-path-8"><polygon class="cls-4" points="8.62 9.14 23.98 9.14 23.98 4.57 8.62 4.57 8.62 9.14 8.62 9.14"/></clipPath><clipPath id="clip-path-9"><polygon class="cls-6" points="47.61 14.31 53.27 14.31 53.27 19.99 47.61 19.99 47.61 14.31 47.61 14.31"/></clipPath><clipPath id="clip-path-10"><polygon class="cls-4" points="47.61 19.99 53.27 19.99 53.27 14.31 47.61 14.31 47.61 19.99 47.61 19.99"/></clipPath><clipPath id="clip-path-11"><polygon class="cls-3" points="24.2 14.28 29.86 14.28 29.86 19.96 24.2 19.96 24.2 14.28 24.2 14.28"/></clipPath><clipPath id="clip-path-12"><polygon class="cls-4" points="24.2 19.96 29.86 19.96 29.86 14.28 24.2 14.28 24.2 19.96 24.2 19.96"/></clipPath></defs><g id="Layer_2" data-name="Layer 2"><g id="Layer_1-2" data-name="Layer 1"><path class="cls-7" d="M80.05,55V8.12c-2.49,0-4.51-3.62-4.58-8.12H4.57C4.51,4.5,2.49,8.12,0,8.12V54.78c2.53,0,4.58,3.73,4.58,8.33,0,.07,0,.14,0,.21h70.9c0-4.6,2-8.33,4.58-8.33Z"/><path class="cls-8" d="M78.69,54.26V9.67c-2.4,0-4.35-3.44-4.41-7.72H5.77c-.06,4.28-2,7.72-4.42,7.72V54.06c2.44,0,4.42,3.54,4.42,7.92v.2h68.5c0-4.38,2-7.92,4.42-7.92Z"/><path class="cls-9" d="M73.14,3.59c-.06,0-.11-.07-.13-.19L73,3c0-.14,0-.29.1-.32s.16.05.18.19,0,.25,0,.37,0,.29-.1.33Z"/><path class="cls-9" d="M76.1,10.12l-.06,0q-.21-.19-.42-.42a.41.41,0,0,1-.05-.36c0-.13.12-.17.19-.1a5,5,0,0,0,.4.4.4.4,0,0,1,.07.35c0,.1-.07.16-.13.16ZM74.81,8.5a.09.09,0,0,1-.09-.07,3.21,3.21,0,0,1-.19-.31c0-.1-.11-.2-.16-.31a.48.48,0,0,1,0-.37c.06-.1.14-.1.2,0l.16.29c0,.1.11.2.17.3a.43.43,0,0,1,0,.37c0,.06-.06.09-.1.09Zm-1-2.23s-.09,0-.11-.12c-.09-.25-.17-.51-.25-.78A.47.47,0,0,1,73.49,5c.07-.06.16,0,.19.11s.15.51.23.75a.44.44,0,0,1,0,.36.09.09,0,0,1-.08,0Z"/><path class="cls-9" d="M77.33,11.31c-.07,0-.13-.12-.13-.26v-.19a.31.31,0,0,1-.1,0c-.07,0-.12-.18-.1-.31s.09-.23.16-.19l.2.08a.3.3,0,0,1,.11.26v.4c0,.14-.06.26-.14.26Z"/><path class="cls-9" d="M77.34,50.55c-.08,0-.14-.12-.14-.27V49.5c0-.15.06-.26.14-.26s.13.11.13.26v.78c0,.15-.06.27-.13.27Zm0-2.62c-.08,0-.14-.12-.14-.26v-.79c0-.14.06-.26.14-.26s.13.12.13.26v.79c0,.14-.06.26-.13.26Zm0-2.61c-.08,0-.14-.12-.14-.27v-.78c0-.15.06-.26.14-.26s.13.11.13.26v.78c0,.15-.06.27-.13.27Zm0-2.62c-.08,0-.14-.12-.14-.26v-.79c0-.14.06-.26.14-.26s.13.12.13.26v.79c0,.14-.06.26-.13.26Zm0-2.61c-.08,0-.14-.12-.14-.27V39c0-.15.06-.27.14-.27s.13.12.13.27v.78c0,.15-.06.27-.13.27Zm0-2.62c-.08,0-.14-.12-.14-.26v-.79c0-.14.06-.26.14-.26s.13.12.13.26v.79c0,.14-.06.26-.13.26Zm0-2.62c-.08,0-.14-.11-.14-.26v-.78c0-.15.06-.27.14-.27s.13.12.13.27v.78c0,.15-.06.26-.13.26Zm0-2.61c-.08,0-.14-.12-.14-.26v-.79c0-.14.06-.26.14-.26s.13.12.13.26V32c0,.14-.06.26-.13.26Zm0-2.62c-.08,0-.14-.11-.14-.26v-.78c0-.15.06-.27.14-.27s.13.12.13.27v.78c0,.15-.06.26-.13.26Zm0-2.61c-.08,0-.14-.12-.14-.26V26c0-.14.06-.26.14-.26s.13.12.13.26v.79c0,.14-.06.26-.13.26Zm0-2.62c-.08,0-.14-.11-.14-.26v-.79c0-.14.06-.26.14-.26s.13.12.13.26v.79c0,.15-.06.26-.13.26Zm0-2.61c-.08,0-.14-.12-.14-.27v-.78c0-.15.06-.26.14-.26s.13.11.13.26v.78c0,.15-.06.27-.13.27Zm0-2.62c-.08,0-.14-.11-.14-.26v-.78c0-.15.06-.27.14-.27s.13.12.13.27v.78c0,.14-.06.26-.13.26Zm0-2.61c-.08,0-.14-.12-.14-.26V15.5c0-.14.06-.26.14-.26s.13.12.13.26v.79c0,.14-.06.26-.13.26Zm0-2.62c-.08,0-.14-.12-.14-.26v-.79c0-.14.06-.26.14-.26s.13.12.13.26v.79c0,.14-.06.26-.13.26Z"/><path class="cls-9" d="M77.13,52.85c-.06,0-.12-.08-.13-.2a.34.34,0,0,1,.1-.32l.09,0V52.1c0-.14.07-.26.14-.26s.14.12.14.26v.4c0,.12,0,.23-.11.25l-.2.09Z"/><path class="cls-9" d="M73.41,58.73l-.06,0a.39.39,0,0,1-.07-.35c.06-.21.11-.43.17-.65s.12-.17.19-.11a.39.39,0,0,1,.06.36c-.06.21-.12.42-.17.62s-.07.16-.12.16Zm.64-2a.08.08,0,0,1-.08-.05.43.43,0,0,1,0-.37l.24-.56c.06-.11.14-.12.2,0a.43.43,0,0,1,0,.37c-.08.18-.16.36-.23.54s-.07.1-.11.1Zm.87-1.7s-.08,0-.11-.1a.44.44,0,0,1,0-.37c.09-.15.2-.3.3-.44s.15-.06.19,0a.4.4,0,0,1,0,.37l-.29.43a.09.09,0,0,1-.08.06Zm1-1.3c-.06,0-.1-.05-.13-.14a.43.43,0,0,1,.06-.36l.35-.31c.07-.06.15,0,.18.14a.4.4,0,0,1-.07.35,4.28,4.28,0,0,0-.33.29.09.09,0,0,1-.06,0Z"/><path class="cls-9" d="M73.06,60.67h-.21c-.08,0-.14-.12-.14-.26s.06-.27.14-.27H73L73,60c0-.13.1-.22.17-.18a.32.32,0,0,1,.1.32c0,.12,0,.25,0,.38s-.07.2-.14.2Z"/><path class="cls-9" d="M71.88,60.67h-.43c-.07,0-.14-.12-.14-.26s.07-.27.14-.27h.43c.07,0,.13.12.13.27s-.06.26-.13.26Zm-1.41,0h-.42c-.08,0-.14-.12-.14-.26s.06-.27.14-.27h.42c.08,0,.14.12.14.27s-.06.26-.14.26Zm-1.41,0h-.42c-.07,0-.14-.12-.14-.26s.07-.27.14-.27h.42c.08,0,.14.12.14.27s-.06.26-.14.26Zm-1.4,0h-.42c-.08,0-.14-.12-.14-.26s.06-.27.14-.27h.42c.08,0,.14.12.14.27s-.06.26-.14.26Zm-1.41,0h-.42c-.08,0-.14-.12-.14-.26s.06-.27.14-.27h.42c.08,0,.14.12.14.27s-.06.26-.14.26Zm-1.4,0h-.42c-.08,0-.14-.12-.14-.26s.06-.27.14-.27h.42c.07,0,.14.12.14.27s-.07.26-.14.26Zm-1.41,0H63c-.08,0-.14-.12-.14-.26s.06-.27.14-.27h.42c.08,0,.14.12.14.27s-.06.26-.14.26Zm-1.4,0h-.43c-.07,0-.13-.12-.13-.26s.06-.27.13-.27H62c.07,0,.13.12.13.27s-.06.26-.13.26Zm-1.41,0h-.42c-.08,0-.14-.12-.14-.26s.06-.27.14-.27h.42c.08,0,.14.12.14.27s-.06.26-.14.26Zm-1.4,0H58.8c-.07,0-.14-.12-.14-.26s.07-.27.14-.27h.43c.07,0,.13.12.13.27s-.06.26-.13.26Zm-1.41,0H57.4c-.08,0-.14-.12-.14-.26s.06-.27.14-.27h.42c.08,0,.14.12.14.27s-.06.26-.14.26Zm-1.41,0H56c-.08,0-.14-.12-.14-.26s.06-.27.14-.27h.42c.08,0,.14.12.14.27s-.06.26-.14.26Zm-1.4,0h-.42c-.08,0-.14-.12-.14-.26s.06-.27.14-.27H55c.08,0,.14.12.14.27s-.06.26-.14.26Zm-1.41,0h-.42c-.08,0-.14-.12-.14-.26s.06-.27.14-.27h.42c.08,0,.14.12.14.27s-.06.26-.14.26Zm-1.4,0h-.42c-.08,0-.14-.12-.14-.26s.06-.27.14-.27h.42c.07,0,.14.12.14.27s-.07.26-.14.26Zm-1.41,0h-.42c-.08,0-.14-.12-.14-.26s.06-.27.14-.27h.42c.08,0,.14.12.14.27s-.06.26-.14.26Zm-1.4,0H49c-.07,0-.14-.12-.14-.26s.07-.27.14-.27h.43c.07,0,.13.12.13.27s-.06.26-.13.26Zm-1.41,0h-.42c-.08,0-.14-.12-.14-.26s.06-.27.14-.27H48c.08,0,.14.12.14.27s-.06.26-.14.26Zm-1.4,0h-.43c-.07,0-.14-.12-.14-.26s.07-.27.14-.27h.43c.07,0,.13.12.13.27s-.06.26-.13.26Zm-1.41,0h-.42c-.08,0-.14-.12-.14-.26s.06-.27.14-.27h.42c.08,0,.14.12.14.27s-.06.26-.14.26Zm-1.41,0h-.42c-.08,0-.14-.12-.14-.26s.06-.27.14-.27h.42c.08,0,.14.12.14.27s-.06.26-.14.26Zm-1.4,0h-.42c-.08,0-.14-.12-.14-.26s.06-.27.14-.27h.42c.07,0,.14.12.14.27s-.07.26-.14.26Zm-1.41,0h-.42c-.08,0-.14-.12-.14-.26s.06-.27.14-.27H41c.08,0,.14.12.14.27s-.06.26-.14.26Zm-1.4,0h-.42c-.08,0-.14-.12-.14-.26s.06-.27.14-.27h.42c.07,0,.14.12.14.27s-.07.26-.14.26Zm-1.41,0h-.42c-.08,0-.14-.12-.14-.26s.06-.27.14-.27h.42c.08,0,.14.12.14.27s-.06.26-.14.26Zm-1.4,0h-.43c-.07,0-.14-.12-.14-.26s.07-.27.14-.27h.43c.07,0,.13.12.13.27s-.06.26-.13.26Zm-1.41,0h-.42c-.08,0-.14-.12-.14-.26s.06-.27.14-.27h.42c.08,0,.14.12.14.27s-.06.26-.14.26Zm-1.41,0H33.5c-.07,0-.14-.12-.14-.26s.07-.27.14-.27h.42c.08,0,.14.12.14.27s-.06.26-.14.26Zm-1.4,0H32.1c-.08,0-.14-.12-.14-.26s.06-.27.14-.27h.42c.08,0,.14.12.14.27s-.06.26-.14.26Zm-1.41,0h-.42c-.08,0-.14-.12-.14-.26s.06-.27.14-.27h.42c.08,0,.14.12.14.27s-.06.26-.14.26Zm-1.4,0h-.42c-.08,0-.14-.12-.14-.26s.06-.27.14-.27h.42c.07,0,.14.12.14.27s-.07.26-.14.26Zm-1.41,0h-.42c-.08,0-.14-.12-.14-.26s.06-.27.14-.27h.42c.08,0,.14.12.14.27s-.06.26-.14.26Zm-1.4,0h-.42c-.08,0-.14-.12-.14-.26s.06-.27.14-.27h.42c.07,0,.14.12.14.27s-.07.26-.14.26Zm-1.41,0h-.42c-.08,0-.14-.12-.14-.26s.06-.27.14-.27h.42c.08,0,.14.12.14.27s-.06.26-.14.26Zm-1.4,0h-.43c-.07,0-.14-.12-.14-.26s.07-.27.14-.27h.43c.07,0,.13.12.13.27s-.06.26-.13.26Zm-1.41,0h-.42c-.08,0-.14-.12-.14-.26s.06-.27.14-.27h.42c.08,0,.14.12.14.27s-.06.26-.14.26Zm-1.41,0h-.42c-.07,0-.14-.12-.14-.26s.07-.27.14-.27h.42c.08,0,.14.12.14.27s-.06.26-.14.26Zm-1.4,0h-.42c-.08,0-.14-.12-.14-.26s.06-.27.14-.27h.42c.07,0,.14.12.14.27s-.07.26-.14.26Zm-1.41,0H18c-.08,0-.14-.12-.14-.26s.06-.27.14-.27h.42c.08,0,.14.12.14.27s-.06.26-.14.26Zm-1.4,0h-.42c-.08,0-.14-.12-.14-.26s.06-.27.14-.27h.42c.07,0,.14.12.14.27s-.07.26-.14.26Zm-1.41,0h-.42c-.08,0-.14-.12-.14-.26s.06-.27.14-.27h.42c.08,0,.14.12.14.27s-.06.26-.14.26Zm-1.4,0h-.43c-.07,0-.14-.12-.14-.26s.07-.27.14-.27h.43c.07,0,.13.12.13.27s-.06.26-.13.26Zm-1.41,0h-.42c-.08,0-.14-.12-.14-.26s.06-.27.14-.27h.42c.08,0,.14.12.14.27s-.06.26-.14.26Zm-1.41,0H11c-.07,0-.14-.12-.14-.26s.07-.27.14-.27h.42c.08,0,.14.12.14.27s-.06.26-.14.26Zm-1.4,0H9.61c-.08,0-.14-.12-.14-.26s.06-.27.14-.27H10c.08,0,.14.12.14.27s-.06.26-.14.26Zm-1.41,0H8.2c-.08,0-.14-.12-.14-.26s.06-.27.14-.27h.42c.08,0,.14.12.14.27s-.06.26-.14.26Z"/><path class="cls-9" d="M7.21,60.67H7c-.07,0-.13-.09-.14-.21s0-.25,0-.37,0-.29.11-.32.15,0,.16.19l0,.18h.09c.08,0,.14.12.14.26s-.06.27-.14.27Z"/><path class="cls-9" d="M6.68,58.69s-.1-.06-.13-.16-.1-.43-.16-.64a.4.4,0,0,1,.06-.35c.07-.07.16,0,.19.11s.12.44.17.67a.4.4,0,0,1-.07.35l-.06,0ZM6,56.61s-.08,0-.11-.11-.15-.37-.23-.55a.47.47,0,0,1,0-.37c.06-.1.15-.09.2,0s.17.39.25.58a.46.46,0,0,1,0,.37.12.12,0,0,1-.09.06Zm-.87-1.76s-.06,0-.09-.07-.19-.29-.29-.43a.43.43,0,0,1,0-.37c0-.12.13-.15.19-.06s.21.3.31.46a.43.43,0,0,1,0,.37c0,.07-.07.1-.11.1ZM4.11,53.51a.09.09,0,0,1-.06,0l-.34-.31a.37.37,0,0,1-.07-.34c0-.14.11-.2.18-.14s.24.2.36.32a.43.43,0,0,1,.06.35c0,.1-.08.15-.13.15Z"/><path class="cls-9" d="M2.92,52.65h0l-.19-.09a.29.29,0,0,1-.11-.26V51.9c0-.15.06-.26.14-.26s.13.11.13.26v.18l.1.05a.34.34,0,0,1,.1.32c0,.12-.07.2-.13.2Z"/><path class="cls-9" d="M2.71,50.34c-.07,0-.13-.11-.13-.26V49.3c0-.14.06-.26.13-.26s.14.12.14.26v.78c0,.15-.06.26-.14.26Zm0-2.6c-.07,0-.13-.12-.13-.26V46.7c0-.15.06-.26.13-.26s.14.11.14.26v.78c0,.14-.06.26-.14.26Zm0-2.6c-.07,0-.13-.12-.13-.26V44.1c0-.15.06-.27.13-.27s.14.12.14.27v.78c0,.14-.06.26-.14.26Zm0-2.6c-.07,0-.13-.12-.13-.27v-.78c0-.14.06-.26.13-.26s.14.12.14.26v.78c0,.15-.06.27-.14.27Zm0-2.61c-.07,0-.13-.11-.13-.26v-.78c0-.14.06-.26.13-.26s.14.12.14.26v.78c0,.15-.06.26-.14.26Zm0-2.6c-.07,0-.13-.12-.13-.26v-.78c0-.15.06-.26.13-.26s.14.11.14.26v.78c0,.14-.06.26-.14.26Zm0-2.6c-.07,0-.13-.12-.13-.26v-.78c0-.15.06-.27.13-.27s.14.12.14.27v.78c0,.14-.06.26-.14.26Zm0-2.6c-.07,0-.13-.12-.13-.27v-.78c0-.14.06-.26.13-.26s.14.12.14.26v.78c0,.15-.06.27-.14.27Zm0-2.61c-.07,0-.13-.11-.13-.26v-.78c0-.14.06-.26.13-.26s.14.12.14.26v.78c0,.15-.06.26-.14.26Zm0-2.6c-.07,0-.13-.12-.13-.26v-.78c0-.15.06-.27.13-.27s.14.12.14.27v.78c0,.14-.06.26-.14.26Zm0-2.6c-.07,0-.13-.12-.13-.27v-.78c0-.14.06-.26.13-.26s.14.12.14.26v.78c0,.15-.06.27-.14.27Zm0-2.61c-.07,0-.13-.11-.13-.26v-.78c0-.14.06-.26.13-.26s.14.12.14.26v.78c0,.15-.06.26-.14.26Zm0-2.6c-.07,0-.13-.12-.13-.26v-.78c0-.15.06-.26.13-.26s.14.11.14.26v.78c0,.14-.06.26-.14.26Zm0-2.6c-.07,0-.13-.12-.13-.26v-.78c0-.15.06-.27.13-.27s.14.12.14.27v.78c0,.14-.06.26-.14.26Zm0-2.6c-.07,0-.13-.12-.13-.27v-.78c0-.14.06-.26.13-.26s.14.12.14.26v.78c0,.15-.06.27-.14.27Z"/><path class="cls-9" d="M2.72,11.31c-.08,0-.14-.12-.14-.26v-.4c0-.12,0-.23.11-.26l.19-.08c.08,0,.15,0,.17.18s0,.29-.1.32l-.1,0v.19c0,.14-.06.26-.13.26Z"/><path class="cls-9" d="M3.94,10.12s-.1-.06-.12-.15a.39.39,0,0,1,.07-.35c.13-.13.27-.26.4-.41s.15,0,.19.1a.43.43,0,0,1-.05.36,5.66,5.66,0,0,1-.43.42.06.06,0,0,1-.06,0ZM5.24,8.5a.11.11,0,0,1-.1-.09.43.43,0,0,1,0-.37c.06-.1.12-.2.17-.3s.11-.2.16-.3.14-.11.2,0a.47.47,0,0,1,0,.37c0,.1-.11.2-.16.31a3.21,3.21,0,0,1-.19.31.1.1,0,0,1-.09.07Zm1-2.23a.09.09,0,0,1-.07,0,.4.4,0,0,1,0-.36c.08-.25.16-.49.23-.75S6.49,5,6.55,5a.39.39,0,0,1,.06.36q-.11.4-.24.78,0,.12-.12.12Z"/><path class="cls-9" d="M6.9,3.59h0a.36.36,0,0,1-.09-.33c0-.12,0-.24.05-.37s.07-.2.14-.2h.21c.08,0,.14.12.14.26s-.06.27-.14.27h-.1L7,3.4c0,.12-.08.19-.14.19Z"/><path class="cls-9" d="M71.89,3.21h-.42c-.08,0-.14-.12-.14-.27s.06-.26.14-.26h.42c.08,0,.14.12.14.26s-.06.27-.14.27Zm-1.41,0h-.42c-.08,0-.14-.12-.14-.27s.06-.26.14-.26h.42c.08,0,.14.12.14.26s-.06.27-.14.27Zm-1.4,0h-.43c-.07,0-.13-.12-.13-.27s.06-.26.13-.26h.43c.07,0,.13.12.13.26s-.06.27-.13.27Zm-1.41,0h-.42c-.08,0-.14-.12-.14-.27s.06-.26.14-.26h.42c.08,0,.14.12.14.26s-.06.27-.14.27Zm-1.41,0h-.42c-.08,0-.14-.12-.14-.27s.06-.26.14-.26h.42c.08,0,.14.12.14.26s-.06.27-.14.27Zm-1.4,0h-.43c-.07,0-.14-.12-.14-.27s.07-.26.14-.26h.43c.07,0,.13.12.13.26s-.06.27-.13.27Zm-1.41,0H63c-.08,0-.14-.12-.14-.27s.06-.26.14-.26h.42c.08,0,.14.12.14.26s-.06.27-.14.27ZM62,3.21h-.42c-.08,0-.14-.12-.14-.27s.06-.26.14-.26H62c.08,0,.14.12.14.26s-.06.27-.14.27Zm-1.41,0h-.42c-.07,0-.14-.12-.14-.27s.07-.26.14-.26h.42c.08,0,.14.12.14.26s-.06.27-.14.27Zm-1.4,0h-.42c-.08,0-.14-.12-.14-.27s.06-.26.14-.26h.42c.07,0,.14.12.14.26s-.07.27-.14.27Zm-1.41,0H57.4c-.08,0-.14-.12-.14-.27s.06-.26.14-.26h.42c.08,0,.14.12.14.26s-.06.27-.14.27Zm-1.41,0H56c-.07,0-.14-.12-.14-.27s.07-.26.14-.26h.42c.08,0,.14.12.14.26s-.06.27-.14.27Zm-1.4,0h-.42c-.08,0-.14-.12-.14-.27s.06-.26.14-.26H55c.07,0,.14.12.14.26s-.07.27-.14.27Zm-1.41,0h-.42c-.08,0-.14-.12-.14-.27s.06-.26.14-.26h.42c.08,0,.14.12.14.26s-.06.27-.14.27Zm-1.41,0h-.42c-.08,0-.14-.12-.14-.27s.06-.26.14-.26h.42c.08,0,.14.12.14.26s-.06.27-.14.27Zm-1.4,0h-.43c-.07,0-.13-.12-.13-.27s.06-.26.13-.26h.43c.07,0,.14.12.14.26s-.07.27-.14.27Zm-1.41,0H49c-.08,0-.14-.12-.14-.27s.06-.26.14-.26h.42c.08,0,.14.12.14.26s-.06.27-.14.27ZM48,3.21h-.42c-.08,0-.14-.12-.14-.27s.06-.26.14-.26H48c.08,0,.14.12.14.26s-.06.27-.14.27Zm-1.4,0h-.43c-.07,0-.13-.12-.13-.27s.06-.26.13-.26h.43c.07,0,.13.12.13.26s-.06.27-.13.27Zm-1.41,0h-.42c-.08,0-.14-.12-.14-.27s.06-.26.14-.26h.42c.08,0,.14.12.14.26s-.06.27-.14.27Zm-1.41,0h-.42c-.08,0-.14-.12-.14-.27s.06-.26.14-.26h.42c.08,0,.14.12.14.26s-.06.27-.14.27Zm-1.41,0h-.42c-.07,0-.14-.12-.14-.27s.07-.26.14-.26h.42c.08,0,.14.12.14.26s-.06.27-.14.27Zm-1.4,0h-.42c-.08,0-.14-.12-.14-.27s.06-.26.14-.26h.42c.08,0,.14.12.14.26s-.06.27-.14.27Zm-1.41,0h-.42c-.08,0-.14-.12-.14-.27s.06-.26.14-.26h.42c.08,0,.14.12.14.26s-.06.27-.14.27Zm-1.41,0H37.7c-.07,0-.14-.12-.14-.27s.07-.26.14-.26h.42c.08,0,.14.12.14.26s-.06.27-.14.27Zm-1.4,0H36.3c-.08,0-.14-.12-.14-.27s.06-.26.14-.26h.42c.07,0,.14.12.14.26s-.07.27-.14.27Zm-1.41,0h-.42c-.08,0-.14-.12-.14-.27s.06-.26.14-.26h.42c.08,0,.14.12.14.26s-.06.27-.14.27Zm-1.41,0h-.42c-.08,0-.14-.12-.14-.27s.06-.26.14-.26h.42c.08,0,.14.12.14.26s-.06.27-.14.27Zm-1.4,0h-.42c-.08,0-.14-.12-.14-.27s.06-.26.14-.26h.42c.07,0,.14.12.14.26s-.07.27-.14.27Zm-1.41,0h-.42c-.08,0-.14-.12-.14-.27s.06-.26.14-.26h.42c.08,0,.14.12.14.26s-.06.27-.14.27Zm-1.41,0h-.42c-.08,0-.14-.12-.14-.27s.06-.26.14-.26h.42c.08,0,.14.12.14.26s-.06.27-.14.27Zm-1.4,0h-.43c-.07,0-.13-.12-.13-.27s.06-.26.13-.26h.43c.07,0,.13.12.13.26s-.06.27-.13.27Zm-1.41,0h-.42c-.08,0-.14-.12-.14-.27s.06-.26.14-.26h.42c.08,0,.14.12.14.26s-.06.27-.14.27Zm-1.41,0H25c-.08,0-.14-.12-.14-.27s.06-.26.14-.26h.42c.08,0,.14.12.14.26s-.06.27-.14.27Zm-1.4,0h-.43c-.07,0-.14-.12-.14-.27s.07-.26.14-.26h.43c.07,0,.13.12.13.26s-.06.27-.13.27Zm-1.41,0h-.42c-.08,0-.14-.12-.14-.27s.06-.26.14-.26h.42c.08,0,.14.12.14.26s-.06.27-.14.27Zm-1.41,0h-.42c-.08,0-.14-.12-.14-.27s.06-.26.14-.26h.42c.08,0,.14.12.14.26s-.06.27-.14.27Zm-1.41,0h-.42c-.07,0-.14-.12-.14-.27s.07-.26.14-.26h.42c.08,0,.14.12.14.26s-.06.27-.14.27Zm-1.4,0H18c-.08,0-.14-.12-.14-.27s.06-.26.14-.26h.42c.08,0,.14.12.14.26s-.06.27-.14.27ZM17,3.21H16.6c-.08,0-.14-.12-.14-.27s.06-.26.14-.26H17c.08,0,.14.12.14.26s-.06.27-.14.27Zm-1.41,0h-.42c-.07,0-.14-.12-.14-.27s.07-.26.14-.26h.42c.08,0,.14.12.14.26s-.06.27-.14.27Zm-1.4,0h-.42c-.08,0-.14-.12-.14-.27s.06-.26.14-.26h.42c.07,0,.14.12.14.26s-.07.27-.14.27Zm-1.41,0h-.42c-.08,0-.14-.12-.14-.27s.06-.26.14-.26h.42c.08,0,.14.12.14.26s-.06.27-.14.27Zm-1.41,0H11c-.08,0-.14-.12-.14-.27s.06-.26.14-.26h.42c.08,0,.14.12.14.26s-.06.27-.14.27Zm-1.4,0H9.56c-.07,0-.13-.12-.13-.27s.06-.26.13-.26H10c.07,0,.14.12.14.26s-.07.27-.14.27Zm-1.41,0H8.16c-.08,0-.14-.12-.14-.27s.06-.26.14-.26h.42c.08,0,.14.12.14.26s-.06.27-.14.27Z"/><path class="cls-9" d="M73.09,3.21h-.21c-.08,0-.14-.12-.14-.27s.06-.26.14-.26h.21c.07,0,.14.12.14.26s-.07.27-.14.27Z"/><g class="cls-10"><g class="cls-11"><polygon class="cls-12" points="69.45 5.69 69.09 6.68 67.95 6.68 68.88 7.29 68.52 8.28 69.45 7.67 70.37 8.28 70.02 7.29 70.95 6.68 69.8 6.68 69.45 5.69 69.45 5.69"/><polygon class="cls-12" points="64.42 5.37 63.98 6.6 62.56 6.6 63.71 7.36 63.27 8.59 64.42 7.83 65.57 8.59 65.14 7.36 66.29 6.6 64.86 6.6 64.42 5.37 64.42 5.37"/><polygon class="cls-12" points="58.74 4.84 58.16 6.48 56.26 6.48 57.79 7.49 57.21 9.12 58.74 8.11 60.28 9.12 59.69 7.49 61.23 6.48 59.33 6.48 58.74 4.84 58.74 4.84"/></g></g><g class="cls-13"><g class="cls-14"><polygon class="cls-12" points="10.6 5.69 10.96 6.68 12.1 6.68 11.17 7.29 11.53 8.28 10.6 7.67 9.67 8.28 10.03 7.29 9.1 6.68 10.25 6.68 10.6 5.69 10.6 5.69"/><polygon class="cls-12" points="15.63 5.37 16.06 6.6 17.49 6.6 16.34 7.36 16.78 8.59 15.63 7.83 14.47 8.59 14.91 7.36 13.76 6.6 15.18 6.6 15.63 5.37 15.63 5.37"/><polygon class="cls-12" points="21.3 4.84 21.89 6.48 23.79 6.48 22.25 7.49 22.84 9.12 21.3 8.11 19.77 9.12 20.36 7.49 18.82 6.48 20.72 6.48 21.3 4.84 21.3 4.84"/></g></g><path class="cls-15" d="M27.17,6.59a.76.76,0,0,1,.2-.28,1.13,1.13,0,0,0,.22-.22.36.36,0,0,0,.06-.2c0-.19-.08-.28-.26-.28a.26.26,0,0,0-.19.07.29.29,0,0,0-.08.22h-.56a.79.79,0,0,1,.11-.42A.71.71,0,0,1,27,5.23a1.18,1.18,0,0,1,.43-.08,1.25,1.25,0,0,1,.45.08.73.73,0,0,1,.28.24.81.81,0,0,1,.1.39.62.62,0,0,1,0,.25,1,1,0,0,1-.13.2l-.23.22,0,0a.49.49,0,0,0-.14.19.55.55,0,0,0,0,.24h-.49A1.12,1.12,0,0,1,27.17,6.59Zm.35.69a.32.32,0,0,1,.12.11.33.33,0,0,1,0,.15.37.37,0,0,1,0,.15.32.32,0,0,1-.12.11.38.38,0,0,1-.16,0,.42.42,0,0,1-.16,0,.23.23,0,0,1-.11-.11.26.26,0,0,1,0-.15.24.24,0,0,1,0-.15.23.23,0,0,1,.11-.11.42.42,0,0,1,.16,0A.38.38,0,0,1,27.52,7.28Z"/><path class="cls-15" d="M28.64,5.65h1.85V7.81H28.64Zm1.27,1.71V6.1h-.69V7.36Z"/><path class="cls-15" d="M31.21,6.1h-.33V5.65h.92V6.89h-.59Z"/><path class="cls-15" d="M33.15,7.37a.49.49,0,0,0,.35-.14.51.51,0,0,0,.12-.37V6.1H32.36V5.65H34.2v1.2a1,1,0,0,1-.12.51.89.89,0,0,1-.36.33,1.41,1.41,0,0,1-.57.12Zm-.77-.31a.8.8,0,0,1,0-.3.65.65,0,0,1,.09-.17H33A2.29,2.29,0,0,0,33,7V8.56h-.57Z"/><path class="cls-15" d="M34.79,5.65h1a.91.91,0,0,1,.64.2.85.85,0,0,1,.23.62V7.81H36V6.42c0-.21-.09-.32-.28-.32h-.37V7.81h-.58Z"/><path class="cls-15" d="M37.7,7.28a1.59,1.59,0,0,0,.33.1,1.35,1.35,0,0,0,.33,0A1,1,0,0,0,39,7.26a.59.59,0,0,0,.23-.51V5.65h.57V6.82a.94.94,0,0,1-.19.58,1.1,1.1,0,0,1-.5.36,1.94,1.94,0,0,1-.7.12,2.85,2.85,0,0,1-.64-.07,2.61,2.61,0,0,1-.61-.22V5.65h.56Zm.44-.36a1.23,1.23,0,0,0,0-.28v-1h.57v.87a1.34,1.34,0,0,1,0,.35.73.73,0,0,1-.12.25H38.1A1.73,1.73,0,0,0,38.14,6.92Z"/><path class="cls-15" d="M40.48,6.61a1.28,1.28,0,0,1,.07-.28.69.69,0,0,1,.13-.21l0,0h0l-.17,0-.16.06-.13-.43a2.93,2.93,0,0,1,.49-.12,3.5,3.5,0,0,1,.54,0,1.1,1.1,0,0,1,.76.25,1,1,0,0,1,.26.75V7.81h-1V7.36h.37V6.51a.54.54,0,0,0-.09-.33.27.27,0,0,0-.23-.11c-.2,0-.31.15-.34.46l-.13,1.28h-.57Z"/><path class="cls-15" d="M44.52,6.1h-.94V5.65H45.1V8.56h-.58Z"/><path class="cls-15" d="M45.82,6.1h-.34V5.65h.92V6.89h-.58Z"/><path class="cls-15" d="M48.39,6.9l.62.91h-.65l-.79-1.14a.3.3,0,0,0,0,.18v1H47V7.1a1,1,0,0,1,.1-.48.57.57,0,0,1,.29-.28l-.48-.69h.66l.51.73.35-.73H49Z"/><path class="cls-15" d="M50.33,6.12l-.12,0V5.65h1.21V6.1H50.9l.27,1.71h-.6Z"/><path class="cls-15" d="M53.25,6.9l.62.91h-.65l-.79-1.14a.3.3,0,0,0,0,.18v1h-.57V7.1a1,1,0,0,1,.1-.48.57.57,0,0,1,.29-.28l-.48-.69h.66l.51.73.35-.73h.66Z"/><path class="cls-15" d="M11,12.46a.16.16,0,0,1,0,.09.14.14,0,0,1,0,.09.17.17,0,0,1-.1,0,.1.1,0,0,1-.09,0,.11.11,0,0,1,0-.08.16.16,0,0,1,0-.09.12.12,0,0,1,.09,0A.17.17,0,0,1,11,12.46Z"/><path class="cls-15" d="M12.3,11.5a.46.46,0,0,1,.13.37v.79h-.2v-.8a.38.38,0,0,0-.07-.24.32.32,0,0,0-.23-.08h-.18a.34.34,0,0,0-.06.15,1.23,1.23,0,0,0,0,.19v.43a.38.38,0,0,1-.09.27.3.3,0,0,1-.24.09h-.12V12.5h.07a.18.18,0,0,0,.14-.05.21.21,0,0,0,0-.15v-.41a.63.63,0,0,1,0-.19.48.48,0,0,1,.07-.16h-.24v-.16h.59A.52.52,0,0,1,12.3,11.5Z"/><path class="cls-15" d="M12.85,11.54H12.7v-.16h.35v1.28h-.2Z"/><path class="cls-15" d="M13.31,12.65V12.5h.16a.19.19,0,0,0,.13,0,.24.24,0,0,0,0-.16v-.76H13.4v-.16h.45v.94a.36.36,0,0,1-.08.27.33.33,0,0,1-.25.09Z"/><path class="cls-15" d="M14.31,11.54h-.15v-.16h.35v1.28h-.2Z"/><path class="cls-15" d="M15.09,12.43l.22.07a.86.86,0,0,0,.22,0,.79.79,0,0,0,.28,0,.4.4,0,0,0,.19-.14.32.32,0,0,0,.07-.22v-.74h.2v.75a.46.46,0,0,1-.1.31.55.55,0,0,1-.26.18.87.87,0,0,1-.37.07,1.87,1.87,0,0,1-.32,0,1.73,1.73,0,0,1-.32-.11V11.38h.19Zm.37-.24a.5.5,0,0,0,0-.18v-.63h.2V12a.54.54,0,0,1,0,.19.32.32,0,0,1-.08.14H15.4A.17.17,0,0,0,15.46,12.19Z"/><path class="cls-15" d="M18.11,11.5a.5.5,0,0,1,.12.37v.79H18v-.8a.33.33,0,0,0-.07-.24.3.3,0,0,0-.23-.08h-.18l-.06.15a1.23,1.23,0,0,0,0,.19v.43a.38.38,0,0,1-.08.27.32.32,0,0,1-.24.09H17V12.5h.08a.2.2,0,0,0,.14-.05.27.27,0,0,0,0-.15v-.41a1.23,1.23,0,0,1,0-.19.48.48,0,0,1,.07-.16h-.23v-.16h.59A.52.52,0,0,1,18.11,11.5Z"/><path class="cls-15" d="M18.65,11.54h-.14v-.16h.35v1.28h-.21Z"/><path class="cls-15" d="M20.17,12.5v.16H19.12v-.17h.69v-.63a.27.27,0,0,0-.31-.32h-.31v-.16h.32a.51.51,0,0,1,.37.12.45.45,0,0,1,.13.36v.63Z"/><path class="cls-15" d="M20.48,11.54h-.15v-.16h.35v1.28h-.2Z"/><path class="cls-15" d="M21.26,12.43l.22.07a.86.86,0,0,0,.22,0,.79.79,0,0,0,.28,0,.4.4,0,0,0,.19-.14.32.32,0,0,0,.07-.22v-.74h.2v.75a.46.46,0,0,1-.1.31.55.55,0,0,1-.26.18.87.87,0,0,1-.37.07,1.87,1.87,0,0,1-.32,0,1.73,1.73,0,0,1-.32-.11V11.38h.19Zm.37-.24a.5.5,0,0,0,0-.18v-.63h.2V12a.54.54,0,0,1,0,.19.32.32,0,0,1-.08.14h-.17A.17.17,0,0,0,21.63,12.19Z"/><path class="cls-15" d="M23.73,11.5a.5.5,0,0,1,.12.37v.79h-.2v-.8a.33.33,0,0,0-.07-.24.3.3,0,0,0-.23-.08h-.18a.53.53,0,0,0-.05.15.63.63,0,0,0,0,.19v.43a.38.38,0,0,1-.08.27.31.31,0,0,1-.24.09h-.13V12.5h.08a.2.2,0,0,0,.14-.05.27.27,0,0,0,0-.15v-.41a1.23,1.23,0,0,1,0-.19.48.48,0,0,1,.08-.16h-.24v-.16h.59A.52.52,0,0,1,23.73,11.5Z"/><path class="cls-15" d="M24.76,11.38h1v1.28h-1Zm.82,1.11v-1H25v1Z"/><path class="cls-15" d="M26.27,11.54H26v-.16h.43v.71h-.2Z"/><path class="cls-15" d="M27.56,12.1l.4.56h-.23l-.56-.79a.27.27,0,0,0-.12.25v.54h-.2v-.47a.54.54,0,0,1,.06-.27.4.4,0,0,1,.18-.16l-.28-.38H27l.39.55.31-.55H28Z"/><path class="cls-15" d="M28.46,12.43l.22.07a.82.82,0,0,0,.22,0,.86.86,0,0,0,.28,0,.45.45,0,0,0,.19-.14.38.38,0,0,0,.07-.22v-.74h.19v.75a.52.52,0,0,1-.09.31.64.64,0,0,1-.27.18.86.86,0,0,1-.36.07,1.86,1.86,0,0,1-.33,0,1.73,1.73,0,0,1-.32-.11V11.38h.2Zm.37-.24a.9.9,0,0,0,0-.18v-.63H29V12a1,1,0,0,1,0,.19.34.34,0,0,1-.09.14h-.16A.36.36,0,0,0,28.83,12.19Z"/><path class="cls-15" d="M30.08,11.54h-.14v-.16h.35v1.28h-.21Z"/><path class="cls-15" d="M30.55,12.65V12.5h.16a.17.17,0,0,0,.13,0,.23.23,0,0,0,.05-.16v-.76h-.25v-.16h.45v.94a.37.37,0,0,1-.09.27.32.32,0,0,1-.25.09Z"/><path class="cls-15" d="M32.22,11.86a.27.27,0,0,0-.31-.32h-.46v-.16h.47a.56.56,0,0,1,.38.12.49.49,0,0,1,.13.36v.8h-.21Zm-.77.36a.58.58,0,0,1,0-.15s0-.08,0-.12h.17a.36.36,0,0,0,0,.11s0,.09,0,.15v.45h-.19Z"/><path class="cls-15" d="M33.33,11.38h1v1.28h-1Zm.82,1.11v-1h-.62v1Z"/><path class="cls-15" d="M34.84,11.54h-.23v-.16H35v.71h-.2Z"/><path class="cls-15" d="M35.65,12.62a.58.58,0,0,1-.17-.18.5.5,0,0,1-.07-.27v-.79h.2v.8a.34.34,0,0,0,0,.18.32.32,0,0,0,.11.12.27.27,0,0,0,.16,0,.29.29,0,0,0,.16,0,.32.32,0,0,0,.11-.12.34.34,0,0,0,0-.18v-.43a.25.25,0,0,0,0-.16.17.17,0,0,0-.13-.05.28.28,0,0,0-.15,0l0-.14.12,0,.13,0a.31.31,0,0,1,.17,0,.28.28,0,0,1,.11.13.42.42,0,0,1,0,.2v.43a.6.6,0,0,1-.06.27.77.77,0,0,1-.18.18.64.64,0,0,1-.54,0Z"/><path class="cls-15" d="M37.64,11.51l-.47,1.15H37l.46-1.12h-.75V11h.2v.39h.77Z"/><path class="cls-15" d="M38.11,12.43l.22.07a.86.86,0,0,0,.22,0,.82.82,0,0,0,.28,0,.45.45,0,0,0,.19-.14.32.32,0,0,0,.07-.22v-.74h.2v.75a.52.52,0,0,1-.1.31.61.61,0,0,1-.26.18.87.87,0,0,1-.37.07,1.75,1.75,0,0,1-.32,0,1.51,1.51,0,0,1-.32-.11V11.38h.19Zm.37-.24a.9.9,0,0,0,0-.18v-.63h.2V12a.54.54,0,0,1,0,.19.47.47,0,0,1-.08.14h-.17A.17.17,0,0,0,38.48,12.19Z"/><path class="cls-15" d="M40.23,11.38h1v1.28h-1ZM41,12.49v-1h-.61v1Z"/><path class="cls-15" d="M42.53,11.38v.76a.66.66,0,0,1-.07.3.49.49,0,0,1-.2.18.73.73,0,0,1-.3.06,1.2,1.2,0,0,1-.45-.09l0-.15a1.33,1.33,0,0,0,.34.09.49.49,0,0,1-.1-.22l-.22-.93h.21l.2.94a.81.81,0,0,0,0,.11l0,.09a.31.31,0,0,0,.2-.13.36.36,0,0,0,.08-.24v-.77Z"/><path class="cls-15" d="M43.47,11.38h1v1.28h-1Zm.82,1.11v-1h-.62v1Z"/><path class="cls-15" d="M45,11.54h-.23v-.16h.44v.71H45Z"/><path class="cls-15" d="M45.52,11.55h-.09v-.16h.62v.16h-.33l.18,1.12h-.2Z"/><path class="cls-15" d="M46.39,11.54h-.15v-.16h.35v1.28h-.2Z"/><path class="cls-15" d="M47,11.54H46.9v-.16h.35v1.28H47Z"/><path class="cls-15" d="M48.16,11.77a.24.24,0,0,0-.06-.17.22.22,0,0,0-.17-.06h-.42v-.16h.43a.56.56,0,0,1,.23,0,.32.32,0,0,1,.14.14.36.36,0,0,1,0,.21v.88h-.2Z"/><path class="cls-15" d="M49.64,12.5v.16h-1v-.17h.69v-.63a.28.28,0,0,0-.32-.32h-.31v-.16H49a.52.52,0,0,1,.38.12.45.45,0,0,1,.13.36v.63Z"/><path class="cls-15" d="M50.44,11.38h1v1.28h-1Zm.82,1.11v-1h-.62v1Z"/><path class="cls-15" d="M52,11.54h-.23v-.16h.43v.71H52Z"/><path class="cls-15" d="M53.41,11.38v.76a.56.56,0,0,1-.07.3.44.44,0,0,1-.2.18.67.67,0,0,1-.3.06,1.29,1.29,0,0,1-.45-.09l0-.15a1.33,1.33,0,0,0,.34.09.65.65,0,0,1-.11-.22l-.21-.93h.2l.21.94a.81.81,0,0,0,0,.11.36.36,0,0,0,0,.09.34.34,0,0,0,.2-.13.36.36,0,0,0,.07-.24v-.77Z"/><path class="cls-15" d="M53.67,12.65V12.5h.16a.19.19,0,0,0,.13,0,.24.24,0,0,0,0-.16v-.76h-.25v-.16h.45v.94a.36.36,0,0,1-.08.27.33.33,0,0,1-.25.09Z"/><path class="cls-15" d="M55.25,12.79a.86.86,0,0,1-.14.18L55,12.89a.55.55,0,0,0,.08-.15.41.41,0,0,0,0-.16v-.16h.2v.16A.54.54,0,0,1,55.25,12.79Z"/><path class="cls-15" d="M56.48,11.38v.16h-.21v1.12h-.2V11.54h-.61v-.16Z"/><path class="cls-15" d="M56.85,11.54h-.24v-.16h.44v.71h-.2Z"/><path class="cls-15" d="M57.94,11.77a.21.21,0,0,0-.23-.23h-.42v-.16h.43a.56.56,0,0,1,.23,0,.32.32,0,0,1,.14.14.36.36,0,0,1,0,.21v.88h-.2Z"/><path class="cls-15" d="M58.6,11.54h-.23v-.16h.43v.71h-.2Z"/><path class="cls-15" d="M59.91,11.86a.27.27,0,0,0-.31-.32h-.46v-.16h.47a.54.54,0,0,1,.38.12.49.49,0,0,1,.13.36v.8h-.21Zm-.77.36a.58.58,0,0,1,0-.15A.61.61,0,0,1,59.2,12h.16s0,.07,0,.11,0,.09,0,.15v.45h-.19Z"/><path class="cls-15" d="M61.07,11.54h-.15v-.16h.35v1.73h-.2Z"/><path class="cls-15" d="M61.56,12.62l0-.15a1.18,1.18,0,0,0,.3,0,.39.39,0,0,0,.28-.09.32.32,0,0,0,.09-.25v-.63H61.6v-.16h.86v.75a.53.53,0,0,1-.14.41.57.57,0,0,1-.4.13A1.2,1.2,0,0,1,61.56,12.62Z"/><path class="cls-15" d="M62.92,11.54h-.15v-.16h.35v1.28h-.2Z"/><path class="cls-15" d="M64.4,11.38v.16h-.21v1.12H64V11.54h-.6v-.16Z"/><path class="cls-15" d="M65.72,11.54h-.63v-.16h.83v1.73h-.2Z"/><path class="cls-15" d="M66.37,11.54h-.14v-.16h.35v1.28h-.21Z"/><path class="cls-15" d="M67.87,11.5a.5.5,0,0,1,.12.37v.79h-.2v-.8a.33.33,0,0,0-.07-.24.32.32,0,0,0-.23-.08h-.18a1.16,1.16,0,0,0-.06.15,1.23,1.23,0,0,0,0,.19v.43a.43.43,0,0,1-.08.27.32.32,0,0,1-.24.09h-.13V12.5h.07a.18.18,0,0,0,.14-.05A.21.21,0,0,0,67,12.3v-.41a.62.62,0,0,1,0-.19.48.48,0,0,1,.07-.16h-.24v-.16h.6A.54.54,0,0,1,67.87,11.5Z"/><path class="cls-15" d="M69.27,12.5v.16h-1v-.17h.69v-.63a.27.27,0,0,0-.31-.32h-.31v-.16h.32a.54.54,0,0,1,.38.12.49.49,0,0,1,.12.36v.63Z"/><g class="cls-16"><g class="cls-17"><path d="M52.85,17H48.5l.51-.52a.18.18,0,0,0,0-.25.16.16,0,0,0-.24,0l-.82.82a.18.18,0,0,0,0,.25l.82.82a.17.17,0,0,0,.24,0,.17.17,0,0,0,0-.25l-.51-.52h4.35a.18.18,0,0,0,.18-.18.18.18,0,0,0-.18-.17Z"/><path class="cls-18" d="M52.85,17H48.5l.51-.52a.18.18,0,0,0,0-.25.16.16,0,0,0-.24,0l-.82.82a.18.18,0,0,0,0,.25l.82.82a.17.17,0,0,0,.24,0,.17.17,0,0,0,0-.25l-.51-.52h4.35a.18.18,0,0,0,.18-.18.18.18,0,0,0-.18-.17Z"/></g></g><g class="cls-19"><g class="cls-20"><path d="M29.45,17H25.09l.52-.52a.18.18,0,0,0-.25-.25l-.81.82a.18.18,0,0,0,0,.25l.81.82a.24.24,0,0,0,.13.05.21.21,0,0,0,.12-.05.17.17,0,0,0,0-.25l-.52-.52h4.36a.17.17,0,0,0,.17-.18.17.17,0,0,0-.17-.17Z"/><path class="cls-18" d="M29.45,17H25.09l.52-.52a.18.18,0,0,0-.25-.25l-.81.82a.18.18,0,0,0,0,.25l.81.81a.19.19,0,0,0,.13.06.17.17,0,0,0,.12-.06.16.16,0,0,0,0-.24l-.52-.52h4.36a.17.17,0,0,0,.17-.18.16.16,0,0,0-.17-.17Z"/></g></g><path class="cls-15" d="M59.6,15.91H61v1.72H59.6Zm1,1.43V16.2H60v1.14Z"/><path class="cls-15" d="M61.63,16.2h-.29v-.29H62v1h-.37Z"/><path class="cls-15" d="M62.43,17a.61.61,0,0,1,0-.22.69.69,0,0,1,.07-.15h.29a1.58,1.58,0,0,0,0,.34v.62h-.36Zm1-.51a.36.36,0,0,0-.08-.25.36.36,0,0,0-.27-.08h-.66v-.29h.69a.73.73,0,0,1,.51.16.61.61,0,0,1,.17.48v1.08h-.36Z"/><path class="cls-15" d="M64.23,16.21l-.11,0v-.28H65v.29h-.43l.23,1.43h-.38Z"/><path class="cls-15" d="M65.47,16.6a.57.57,0,0,1,.07-.22.5.5,0,0,1,.11-.16s0,0,0,0h0l-.15,0-.15,0L65.29,16a1.91,1.91,0,0,1,.38-.1,2,2,0,0,1,.41,0,.81.81,0,0,1,.56.19.77.77,0,0,1,.2.57v1h-.73v-.29h.36v-.76a.51.51,0,0,0-.08-.3.31.31,0,0,0-.25-.11.28.28,0,0,0-.21.1.59.59,0,0,0-.1.29l-.11,1.07h-.37Z"/><path class="cls-15" d="M53.89,19.83a.25.25,0,0,0-.06-.19.23.23,0,0,0-.18-.05h-.36v-.13h.36a.45.45,0,0,1,.3.09.37.37,0,0,1,.1.28v.62h-.16Zm-.6.28a.41.41,0,0,1,0-.12l0-.09h.13a.28.28,0,0,0,0,.09.37.37,0,0,0,0,.11v.35h-.15Z"/><path class="cls-15" d="M54.4,19.82a.22.22,0,0,1,0-.13.22.22,0,0,1,.07-.09h0l-.09,0-.11,0,0-.11a1.16,1.16,0,0,1,.22-.06l.22,0a.43.43,0,0,1,.31.11.41.41,0,0,1,.1.31v.59h-.41v-.12H55v-.49a.3.3,0,0,0-.06-.2.25.25,0,0,0-.18-.07.15.15,0,0,0-.13.07.27.27,0,0,0-.07.17l-.07.64h-.16Z"/><path class="cls-15" d="M55.5,19.59h-.18v-.13h.33V20H55.5Z"/><path class="cls-15" d="M56.5,20l.31.43h-.17l-.44-.61a.22.22,0,0,0-.09.2v.41H56v-.36a.46.46,0,0,1,0-.21.3.3,0,0,1,.13-.12l-.21-.3h.17l.31.42.24-.42h.18Z"/><path class="cls-15" d="M57.75,19.55a.42.42,0,0,1,.1.29v.61h-.16v-.62a.25.25,0,0,0-.06-.19s-.09-.05-.17-.05h-.14a.28.28,0,0,0,0,.11.77.77,0,0,0,0,.15v.33a.33.33,0,0,1-.06.21.24.24,0,0,1-.19.07h-.1v-.12H57a.12.12,0,0,0,.11,0,.17.17,0,0,0,0-.12v-.31a.77.77,0,0,1,0-.15.34.34,0,0,1,.06-.12H57v-.13h.46A.43.43,0,0,1,57.75,19.55Z"/><path class="cls-15" d="M58.19,19.82a.65.65,0,0,1,0-.13.35.35,0,0,1,.07-.09h0l-.09,0-.11,0,0-.11a1.41,1.41,0,0,1,.22-.06l.23,0a.41.41,0,0,1,.3.11.42.42,0,0,1,.11.31v.59h-.41v-.12h.25v-.49a.3.3,0,0,0-.06-.2.22.22,0,0,0-.17-.07.17.17,0,0,0-.14.07.34.34,0,0,0-.06.17l-.08.64h-.15Z"/><path class="cls-15" d="M60.22,19.83a.19.19,0,0,0-.24-.24h-.36v-.13H60a.42.42,0,0,1,.29.09.37.37,0,0,1,.1.28v.62h-.16Zm-.6.28c0-.05,0-.09,0-.12a.36.36,0,0,1,0-.09h.12s0,.06,0,.09a.37.37,0,0,0,0,.11v.35h-.15Z"/><path class="cls-15" d="M61.38,20.33v.12h-.82v-.12h.54v-.5a.2.2,0,0,0-.25-.24h-.24v-.13h.25a.45.45,0,0,1,.3.09.41.41,0,0,1,.1.28v.49Z"/><path class="cls-15" d="M61.62,19.59H61.5v-.13h.27v1h-.15Z"/><path class="cls-15" d="M62.23,20.28l.17,0,.17,0a.54.54,0,0,0,.22,0,.31.31,0,0,0,.15-.1A.35.35,0,0,0,63,20v-.57h.15v.59a.35.35,0,0,1-.07.23.41.41,0,0,1-.21.15.82.82,0,0,1-.28,0l-.25,0a1.06,1.06,0,0,1-.25-.09v-.9h.15Zm.29-.19a.61.61,0,0,0,0-.14v-.49h.15v.47a.39.39,0,0,1,0,.15.21.21,0,0,1-.06.1h-.13A.36.36,0,0,0,62.52,20.09Z"/><path class="cls-15" d="M64.15,19.55a.42.42,0,0,1,.09.29v.61h-.15v-.62a.25.25,0,0,0-.06-.19s-.09-.05-.18-.05h-.14a.28.28,0,0,0,0,.11.77.77,0,0,0,0,.15v.33a.33.33,0,0,1-.06.21.25.25,0,0,1-.19.07h-.1v-.12h.06a.14.14,0,0,0,.11,0,.17.17,0,0,0,0-.12v-.31a.77.77,0,0,1,0-.15.23.23,0,0,1,.06-.12h-.19v-.13h.46A.45.45,0,0,1,64.15,19.55Z"/><path class="cls-15" d="M65.51,20l.31.43h-.17l-.45-.61a.22.22,0,0,0-.09.2v.41H65v-.36a.46.46,0,0,1,.05-.21.3.3,0,0,1,.13-.12l-.21-.3h.17l.31.42.24-.42h.17Z"/><path class="cls-15" d="M66.21,20.28l.17,0,.17,0a.54.54,0,0,0,.22,0,.31.31,0,0,0,.15-.1A.35.35,0,0,0,67,20v-.57h.15v.59a.35.35,0,0,1-.07.23.41.41,0,0,1-.21.15.82.82,0,0,1-.28,0l-.25,0a1.06,1.06,0,0,1-.25-.09v-.9h.15Zm.29-.19a.61.61,0,0,0,0-.14v-.49h.15v.47a.39.39,0,0,1,0,.15.21.21,0,0,1-.06.1h-.13A.36.36,0,0,0,66.5,20.09Z"/><path class="cls-15" d="M67.47,19.59h-.11v-.13h.27v1h-.16Z"/><path class="cls-15" d="M67.83,20.45v-.12H68a.14.14,0,0,0,.11,0,.21.21,0,0,0,0-.12v-.59h-.19v-.13h.35v.73a.33.33,0,0,1-.07.21.3.3,0,0,1-.2.07Z"/><path class="cls-15" d="M69.14,19.83a.2.2,0,0,0-.25-.24h-.36v-.13h.37a.4.4,0,0,1,.29.09.37.37,0,0,1,.1.28v.62h-.15Zm-.61.28a.37.37,0,0,1,0-.12.16.16,0,0,1,0-.09h.13a.29.29,0,0,0,0,.09v.46h-.16Z"/><path class="cls-15" d="M70,19.59h-.07v-.12h.49v.13h-.26l.14.86h-.16Z"/><path class="cls-15" d="M70.66,19.59h-.12v-.13h.27v1h-.15Z"/><path class="cls-15" d="M71.17,19.59h-.12v-.13h.27v1h-.15Z"/><path class="cls-15" d="M72,19.76a.19.19,0,0,0-.05-.13.17.17,0,0,0-.13,0h-.33v-.13h.33a.34.34,0,0,1,.18,0,.22.22,0,0,1,.11.1.33.33,0,0,1,0,.17v.68H72Z"/><path class="cls-15" d="M73.19,20.33v.12h-.82v-.12h.54v-.5a.25.25,0,0,0-.06-.19.23.23,0,0,0-.18-.05h-.24v-.13h.25a.42.42,0,0,1,.29.09.37.37,0,0,1,.1.28v.49Z"/><path class="cls-15" d="M55.12,22H55V21.9h.27v1.34h-.15Z"/><path class="cls-15" d="M55.5,22.86l0-.12a1.2,1.2,0,0,0,.24,0,.33.33,0,0,0,.21-.07.26.26,0,0,0,.08-.2V22h-.52V21.9h.67v.58a.46.46,0,0,1-.11.32.43.43,0,0,1-.31.1A1,1,0,0,1,55.5,22.86Z"/><path class="cls-15" d="M56.55,22h-.11V21.9h.27v1h-.16Z"/><path class="cls-15" d="M57.71,21.9V22h-.17v.87h-.15V22h-.48V21.9Z"/><path class="cls-15" d="M58.49,22.27a.25.25,0,0,0-.06-.19.24.24,0,0,0-.18-.06h-.36V21.9h.36a.45.45,0,0,1,.3.09.4.4,0,0,1,.1.28v.62h-.16Zm-.6.28a.41.41,0,0,1,0-.12l0-.09h.13s0,.05,0,.09v.46h-.15Z"/><path class="cls-15" d="M59.54,22.86a.35.35,0,0,1-.13-.14.37.37,0,0,1-.06-.21V21.9h.16v.62a.32.32,0,0,0,0,.14.2.2,0,0,0,.09.09.21.21,0,0,0,.12,0,.28.28,0,0,0,.13,0,.24.24,0,0,0,.08-.09.32.32,0,0,0,0-.14v-.33a.17.17,0,0,0,0-.13.11.11,0,0,0-.1,0l-.12,0,0-.1.09-.05h.1a.28.28,0,0,1,.13,0,.22.22,0,0,1,.09.1.37.37,0,0,1,0,.15v.34a.41.41,0,0,1-.61.35Z"/><path class="cls-15" d="M60.47,22h-.12V21.9h.27v1h-.15Z"/><path class="cls-15" d="M61.6,22l-.37.9h-.16l.36-.87h-.59V21.6H61v.3h.6Z"/><path class="cls-15" d="M61.89,22h-.18V21.9h.34v.55h-.16Z"/><path class="cls-15" d="M62.48,22.71l.18.06.16,0a.67.67,0,0,0,.22,0,.28.28,0,0,0,.15-.11.24.24,0,0,0,.06-.17V21.9h.15v.58a.36.36,0,0,1-.08.24.48.48,0,0,1-.2.14.68.68,0,0,1-.29.05l-.25,0-.25-.08v-.9h.15Zm.29-.19a.44.44,0,0,0,0-.13V21.9h.15v.46a.61.61,0,0,1,0,.15.41.41,0,0,1-.07.11h-.13A.19.19,0,0,0,62.77,22.52Z"/><path class="cls-15" d="M64.42,22.77v.12H63.6v-.13h.54v-.49a.25.25,0,0,0-.06-.19A.24.24,0,0,0,63.9,22h-.24V21.9h.24a.45.45,0,0,1,.3.09.4.4,0,0,1,.1.28v.49Z"/><path class="cls-15" d="M65.61,22.27a.31.31,0,0,0,0-.19.25.25,0,0,0-.19-.06H65V21.9h.37a.42.42,0,0,1,.29.09.36.36,0,0,1,.1.28v.62h-.16Zm-.6.28c0-.05,0-.09,0-.12l0-.09h.13s0,.05,0,.09a.37.37,0,0,0,0,.11v.35H65Z"/><path class="cls-15" d="M66.13,22h-.19V21.9h.34v.55h-.15Z"/><path class="cls-15" d="M67,22.2a.14.14,0,0,0,0-.13A.17.17,0,0,0,66.8,22h-.33V21.9h.34a.48.48,0,0,1,.18,0,.38.38,0,0,1,.11.11.43.43,0,0,1,0,.17v.68H67Z"/><path class="cls-15" d="M67.47,22h-.12V21.9h.27v1h-.15Z"/><path class="cls-15" d="M67.79,22.89v-.14h0a.32.32,0,0,0,.2-.07.31.31,0,0,0,.09-.18V22h-.22V21.9h.38v.51a.76.76,0,0,0,0,.15l.07.33h-.14l-.06-.28h0a.25.25,0,0,1-.06.14.38.38,0,0,1-.11.11.41.41,0,0,1-.16,0Z"/><path class="cls-15" d="M68.78,22.86a.38.38,0,0,1-.19-.35V21.9h.16v.62a.32.32,0,0,0,0,.14.24.24,0,0,0,.08.09.3.3,0,0,0,.26,0,.24.24,0,0,0,.08-.09.32.32,0,0,0,0-.14v-.33a.17.17,0,0,0,0-.13.11.11,0,0,0-.1,0l-.12,0,0-.1A.19.19,0,0,1,69,21.9h.1a.28.28,0,0,1,.13,0,.22.22,0,0,1,.09.1.37.37,0,0,1,0,.15v.34a.41.41,0,0,1-.61.35Z"/><path class="cls-15" d="M70,22.77l.15,0a.22.22,0,0,0,.09-.1.24.24,0,0,0,0-.15V22h-.61V21.9h.76v.58a.36.36,0,0,1,0,.21.43.43,0,0,1-.15.15.56.56,0,0,1-.23.05Zm-.32-.25a.37.37,0,0,1,0-.12.16.16,0,0,1,0-.09h.13a.19.19,0,0,0,0,.08v.85h-.16Z"/><path class="cls-15" d="M71.4,22l-.36.9h-.17l.36-.87h-.58V21.6h.15v.3h.6Z"/><path class="cls-15" d="M33.71,15.88h1.36v1.64H33.71Zm1,1.36V16.15h-.66v1.09Z"/><path class="cls-15" d="M35.66,16.15h-.28v-.27H36v.92h-.35Z"/><path class="cls-15" d="M36.46,17.54l-.15,0v-.26h.21a.18.18,0,0,0,.15-.06s0-.09,0-.18v-.87h-.3v-.27h.65v1.17a.53.53,0,0,1-.12.37.45.45,0,0,1-.35.13Z"/><path class="cls-15" d="M37.6,16.15h-.17v-.27H38v1.64H37.6Z"/><path class="cls-15" d="M38.47,16.15h-.16v-.27h.52v1.64h-.36Z"/><path class="cls-15" d="M39.16,17.48l.06-.26a1.89,1.89,0,0,0,.38.05.46.46,0,0,0,.32-.1.38.38,0,0,0,.1-.29v-.73h-.8v-.27h1.15v.93a.73.73,0,0,1-.19.56.77.77,0,0,1-.54.18A2.31,2.31,0,0,1,39.16,17.48Z"/><path class="cls-15" d="M41,16.54a.65.65,0,0,1,.06-.21.5.5,0,0,1,.11-.16l0,0h0l-.14,0-.15.05L40.77,16a2.8,2.8,0,0,1,.37-.1l.39,0a.73.73,0,0,1,.54.18.78.78,0,0,1,.19.55v.95h-.7v-.27h.35v-.73a.5.5,0,0,0-.08-.29.3.3,0,0,0-.24-.1.23.23,0,0,0-.2.1.57.57,0,0,0-.1.27l-.11,1h-.34Z"/><path class="cls-15" d="M31.65,19.5a.4.4,0,0,1,.1.29v.61h-.16v-.62a.25.25,0,0,0-.06-.19.21.21,0,0,0-.17-.06h-.14a.33.33,0,0,0,0,.12.76.76,0,0,0,0,.15v.33a.33.33,0,0,1-.07.21.27.27,0,0,1-.19.07h-.09v-.12h.05a.12.12,0,0,0,.11,0,.17.17,0,0,0,0-.12v-.31a.77.77,0,0,1,0-.15.32.32,0,0,1,.06-.13h-.19v-.12h.47A.42.42,0,0,1,31.65,19.5Z"/><path class="cls-15" d="M32.07,19.53H32v-.12h.27v1h-.16Z"/><path class="cls-15" d="M33.23,19.41V20a.41.41,0,0,1-.06.23.34.34,0,0,1-.15.14.59.59,0,0,1-.23.05,1,1,0,0,1-.36-.07l0-.11.27.06a.4.4,0,0,1-.09-.17l-.16-.72h.15l.17.73a.29.29,0,0,0,0,.09l0,.06A.32.32,0,0,0,33,20.2a.36.36,0,0,0,0-.19v-.6Z"/><path class="cls-15" d="M34,19.94l.26.38v.08h-.73v-.13H34l-.59-.86h.18l.26.4.22-.4h.18Z"/><path class="cls-15" d="M34.54,19.77a.5.5,0,0,1,0-.13.35.35,0,0,1,.07-.09l0,0h0l-.1,0-.1,0,0-.11a.79.79,0,0,1,.22-.06l.23,0a.41.41,0,0,1,.3.11.42.42,0,0,1,.11.31v.59h-.41v-.13h.25v-.48a.3.3,0,0,0-.06-.2.19.19,0,0,0-.17-.07.18.18,0,0,0-.14.06.32.32,0,0,0-.06.17l-.08.65h-.15Z"/><path class="cls-15" d="M36.12,20l.32.43h-.18l-.44-.61a.21.21,0,0,0-.09.19v.42h-.15V20a.41.41,0,0,1,0-.21.24.24,0,0,1,.14-.12l-.22-.3h.18l.31.42.24-.42h.17Z"/><path class="cls-15" d="M37.39,20.28v.12h-.82v-.13h.54v-.49a.31.31,0,0,0,0-.19.27.27,0,0,0-.19-.06h-.24v-.12h.25a.42.42,0,0,1,.29.09.37.37,0,0,1,.1.28v.49Z"/><path class="cls-15" d="M38.71,19.5a.37.37,0,0,1,.1.29v.61h-.16v-.62a.31.31,0,0,0,0-.19.24.24,0,0,0-.18-.06h-.14a.33.33,0,0,0-.05.12.76.76,0,0,0,0,.15v.33a.28.28,0,0,1-.07.21.26.26,0,0,1-.19.07h-.09v-.12h.05a.12.12,0,0,0,.11,0,.17.17,0,0,0,0-.12v-.31a.77.77,0,0,1,0-.15.53.53,0,0,1,.06-.13H38v-.12h.47A.4.4,0,0,1,38.71,19.5Z"/><path class="cls-15" d="M39,20.4v-.12h.12a.18.18,0,0,0,.11,0,.21.21,0,0,0,0-.12v-.6h-.19v-.12h.35v.73a.33.33,0,0,1-.07.21.27.27,0,0,1-.19.07Z"/><path class="cls-15" d="M39.76,19.53h-.12v-.12h.28v1h-.16Z"/><path class="cls-15" d="M40.27,19.53h-.12v-.12h.27v1h-.15Z"/><path class="cls-15" d="M40.65,20.37l0-.12a.75.75,0,0,0,.24,0,.28.28,0,0,0,.21-.07.26.26,0,0,0,.08-.2v-.49h-.52v-.12h.67V20a.44.44,0,0,1-.11.32.43.43,0,0,1-.31.1A1,1,0,0,1,40.65,20.37Z"/><path class="cls-15" d="M42.23,19.78a.31.31,0,0,0,0-.19.27.27,0,0,0-.19-.06h-.36v-.12H42a.44.44,0,0,1,.29.09.37.37,0,0,1,.1.28v.62h-.16Zm-.6.28a.41.41,0,0,1,0-.12l0-.09h.13s0,.06,0,.09a.37.37,0,0,0,0,.11v.35h-.15Z"/><path class="cls-15" d="M43.8,19.5a.4.4,0,0,1,.09.29v.61h-.15v-.62a.25.25,0,0,0-.06-.19.22.22,0,0,0-.18-.06h-.14a.34.34,0,0,0,0,.12.77.77,0,0,0,0,.15v.33a.33.33,0,0,1-.06.21.27.27,0,0,1-.19.07H43v-.12H43a.12.12,0,0,0,.11,0,.17.17,0,0,0,0-.12v-.31a.77.77,0,0,1,0-.15.23.23,0,0,1,.06-.13H43v-.12h.46A.45.45,0,0,1,43.8,19.5Z"/><path class="cls-15" d="M44.73,20l.31.43h-.17l-.44-.61a.21.21,0,0,0-.09.19v.42h-.15V20a.41.41,0,0,1,0-.21.22.22,0,0,1,.13-.12l-.21-.3h.17l.31.42.24-.42h.18Z"/><path class="cls-15" d="M34.31,22.12a.19.19,0,0,0-.05-.13.17.17,0,0,0-.13,0H33.8v-.13h.34a.33.33,0,0,1,.17,0,.29.29,0,0,1,.12.1.47.47,0,0,1,0,.17v.68h-.16Z"/><path class="cls-15" d="M35.46,22.69v.12h-.82v-.12h.54v-.5a.31.31,0,0,0,0-.19.26.26,0,0,0-.19-.05H34.7v-.13H35a.37.37,0,0,1,.29.1.33.33,0,0,1,.1.27v.49Z"/><path class="cls-15" d="M35.57,22.78l0-.12a.7.7,0,0,0,.23,0,.29.29,0,0,0,.22-.07.24.24,0,0,0,.07-.19V22h-.51v-.13h.67v.58a.44.44,0,0,1-.11.32.46.46,0,0,1-.32.11A1,1,0,0,1,35.57,22.78Z"/><path class="cls-15" d="M37.28,21.82v.59a.41.41,0,0,1-.06.23.39.39,0,0,1-.16.15.53.53,0,0,1-.23,0,.91.91,0,0,1-.35-.07l0-.11a.69.69,0,0,0,.26.06.34.34,0,0,1-.08-.17l-.17-.72h.16l.16.73a.51.51,0,0,1,0,.09l0,.06a.24.24,0,0,0,.16-.09.29.29,0,0,0,.06-.19v-.6Z"/><path class="cls-15" d="M38.16,22.19a.2.2,0,0,0-.25-.24h-.36v-.13h.37a.37.37,0,0,1,.29.1.33.33,0,0,1,.1.27v.62h-.15Zm-.61.28a.37.37,0,0,1,0-.12.16.16,0,0,1,0-.09h.13a.29.29,0,0,0,0,.09s0,.07,0,.11v.35h-.15Z"/><path class="cls-15" d="M39.72,21.91a.42.42,0,0,1,.1.29v.61h-.16v-.62a.33.33,0,0,0,0-.19.3.3,0,0,0-.18-.05h-.14a.37.37,0,0,0,0,.11.76.76,0,0,0,0,.15v.33a.33.33,0,0,1-.07.21.24.24,0,0,1-.19.07h-.1v-.12h.06a.12.12,0,0,0,.11,0,.17.17,0,0,0,0-.12v-.31a.77.77,0,0,1,0-.15.67.67,0,0,1,.06-.12H39v-.13h.46A.43.43,0,0,1,39.72,21.91Z"/><path class="cls-15" d="M40.08,22H40v-.12h.48V22h-.26l.14.86h-.16Z"/><path class="cls-15" d="M40.69,22h-.07v-.12h.48V22h-.26l.14.86h-.16Z"/><path class="cls-15" d="M41.89,22.19a.31.31,0,0,0,0-.19.27.27,0,0,0-.19-.05h-.36v-.13h.37a.38.38,0,0,1,.29.1.33.33,0,0,1,.1.27v.62h-.16Zm-.6.28a.41.41,0,0,1,0-.12l0-.09h.13a.28.28,0,0,0,0,.09.37.37,0,0,0,0,.11v.35h-.15Z"/><path class="cls-15" d="M10.16,15.88h1.36v1.64H10.16Zm1,1.36V16.15h-.66v1.09Z"/><path class="cls-15" d="M12.11,16.15h-.28v-.27h.63v.92h-.35Z"/><path class="cls-15" d="M14.08,16.1l-.57,1.42h-.38l.57-1.37h-.92V15.4h.35v.48h.95Z"/><path class="cls-15" d="M14.53,16.15h-.28v-.27h.63v.92h-.35Z"/><path class="cls-15" d="M15.64,17.53a1.38,1.38,0,0,1-.29-.08l.07-.25.26.05a.93.93,0,0,0,.23,0,.44.44,0,0,0,.32-.1.38.38,0,0,0,.11-.29v-.73h-.57a.78.78,0,0,0,0,.18.58.58,0,0,0,0,.19v.1l.17,0v.26h-.12a.66.66,0,0,1-.21,0,.48.48,0,0,1-.18-.07v-.18a1.24,1.24,0,0,1,0-.27,1,1,0,0,1,.09-.21h-.19v-.27h1.41v.94a.73.73,0,0,1-.1.41.55.55,0,0,1-.26.24.85.85,0,0,1-.39.08Z"/><path class="cls-15" d="M17.27,16.54a.65.65,0,0,1,.06-.21.5.5,0,0,1,.11-.16l0,0h0l-.14,0-.15.05L17.09,16a2.8,2.8,0,0,1,.37-.1l.39,0a.73.73,0,0,1,.54.18.78.78,0,0,1,.19.55v.95h-.7v-.27h.35v-.73a.5.5,0,0,0-.08-.29.3.3,0,0,0-.24-.1.23.23,0,0,0-.2.1.57.57,0,0,0-.1.27l-.11,1h-.34Z"/><path class="cls-15" d="M7.85,19.53l-.36.89H7.32l.36-.87H7.1v-.42h.16v.3h.59Z"/><path class="cls-15" d="M8.76,19.43V20a.52.52,0,0,1,0,.23.36.36,0,0,1-.16.14.41.41,0,0,1-.23.05A.91.91,0,0,1,8,20.37l0-.11a.88.88,0,0,0,.26.06.34.34,0,0,1-.08-.17L8,19.43h.16l.16.73s0,.06,0,.09l0,.06a.24.24,0,0,0,.16-.09A.29.29,0,0,0,8.61,20v-.6Z"/><path class="cls-15" d="M10.07,19.8a.25.25,0,0,0-.06-.19.24.24,0,0,0-.18-.06H9.47v-.12h.36a.45.45,0,0,1,.3.09.41.41,0,0,1,.1.28v.62h-.16Zm-.6.28a.41.41,0,0,1,0-.12l0-.09h.13s0,.06,0,.09v.46H9.47Z"/><path class="cls-15" d="M10.94,20l.26.38v.08h-.73v-.13H11l-.59-.86h.17l.27.4.22-.4h.17Z"/><path class="cls-15" d="M11.52,19.55h-.18v-.12h.34V20h-.16Z"/><path class="cls-15" d="M12,19.43h.37a.43.43,0,0,1,.3.09.42.42,0,0,1,.09.29v.61h-.15V19.8a.25.25,0,0,0-.06-.19.21.21,0,0,0-.17-.06h-.22v.87H12Z"/><path class="cls-15" d="M13.69,19.53l-.37.89h-.16l.36-.87h-.59v-.42h.16v.3h.6Z"/><path class="cls-15" d="M14.62,20.3v.12H13.8v-.13h.54V19.8a.25.25,0,0,0-.06-.19.24.24,0,0,0-.18-.06h-.25v-.12h.25a.45.45,0,0,1,.3.09.41.41,0,0,1,.1.28v.49Z"/><path class="cls-15" d="M15.22,19.56h-.07v-.12h.48v.12h-.25l.14.87h-.17Z"/><path class="cls-15" d="M15.9,19.55h-.12v-.12h.27v1H15.9Z"/><path class="cls-15" d="M16.4,19.55h-.11v-.12h.27v1H16.4Z"/><path class="cls-15" d="M17.27,19.73a.18.18,0,0,0,0-.13.21.21,0,0,0-.13-.05h-.34v-.12h.34a.34.34,0,0,1,.18,0,.27.27,0,0,1,.11.1.33.33,0,0,1,0,.17v.68h-.16Z"/><path class="cls-15" d="M18.43,20.3v.12h-.82v-.13h.54V19.8a.22.22,0,0,0-.25-.25h-.24v-.12h.25a.45.45,0,0,1,.3.09.41.41,0,0,1,.1.28v.49Z"/><path class="cls-15" d="M19.2,19.8a.22.22,0,0,0-.25-.25h-.36v-.12H19a.4.4,0,0,1,.29.09.37.37,0,0,1,.1.28v.62H19.2Zm-.61.28s0-.09,0-.12a.36.36,0,0,1,0-.09h.13a.29.29,0,0,0,0,.09v.46h-.16Z"/><path class="cls-15" d="M20.76,19.52a.38.38,0,0,1,.1.29v.61H20.7V19.8a.31.31,0,0,0-.05-.19.24.24,0,0,0-.18-.06h-.14a.43.43,0,0,0,0,.12.76.76,0,0,0,0,.15v.33a.28.28,0,0,1-.07.21.22.22,0,0,1-.19.07h-.09V20.3h0a.12.12,0,0,0,.11,0,.17.17,0,0,0,0-.12v-.31a.77.77,0,0,1,0-.15l.06-.13H20v-.12h.47A.4.4,0,0,1,20.76,19.52Z"/><path class="cls-15" d="M21.69,20l.32.43h-.18l-.44-.61a.21.21,0,0,0-.09.19v.42h-.15v-.36a.46.46,0,0,1,0-.21.28.28,0,0,1,.14-.12l-.22-.3h.18l.31.42.24-.42H22Z"/><path class="cls-15" d="M7,22H6.86v-.13H7.2v.55H7Z"/><path class="cls-15" d="M8.16,21.92l-.37.89H7.63L8,22H7.4v-.43h.16v.3h.6Z"/><path class="cls-15" d="M8.93,22.38l.31.43H9.07l-.45-.61a.23.23,0,0,0-.09.2v.41H8.38v-.36a.46.46,0,0,1,0-.21.3.3,0,0,1,.13-.12l-.21-.3h.17l.31.43.24-.43h.17Z"/><path class="cls-15" d="M9.55,22.18a.31.31,0,0,1,0-.13A.36.36,0,0,1,9.66,22a0,0,0,0,1,0,0h0l-.09,0-.11,0,0-.12.22-.06.22,0a.45.45,0,0,1,.31.11.48.48,0,0,1,.1.31v.59H9.88v-.12h.26v-.48a.33.33,0,0,0-.06-.21.25.25,0,0,0-.18-.07.17.17,0,0,0-.13.07.29.29,0,0,0-.07.17l-.08.64H9.47Z"/><path class="cls-15" d="M10.72,22.64l.17.05.17,0a.73.73,0,0,0,.22,0,.42.42,0,0,0,.15-.11.27.27,0,0,0,.05-.18v-.57h.16v.59a.36.36,0,0,1-.08.23.43.43,0,0,1-.2.15.88.88,0,0,1-.29.05,1.15,1.15,0,0,1-.5-.12v-.9h.15Zm.29-.19a.57.57,0,0,0,0-.14v-.49h.16v.47a.77.77,0,0,1,0,.15.26.26,0,0,1-.07.1H11A.19.19,0,0,0,11,22.45Z"/><path class="cls-15" d="M12.52,22.19a.27.27,0,0,0-.06-.19.31.31,0,0,0-.19-.05h-.36v-.13h.37a.37.37,0,0,1,.29.1.34.34,0,0,1,.1.28v.61h-.15Zm-.61.28a.37.37,0,0,1,0-.12.13.13,0,0,1,0-.08h.13a.19.19,0,0,0,0,.08s0,.07,0,.12v.34h-.15Z"/><path class="cls-15" d="M13.79,22.12a.19.19,0,0,0,0-.13.17.17,0,0,0-.13,0h-.33v-.13h.34a.31.31,0,0,1,.17,0,.25.25,0,0,1,.12.11.38.38,0,0,1,0,.16v.68h-.16Z"/><path class="cls-15" d="M14.94,22.69v.12h-.81v-.12h.53v-.5a.33.33,0,0,0-.05-.19.31.31,0,0,0-.19-.05h-.24v-.13h.25a.37.37,0,0,1,.29.1.34.34,0,0,1,.1.28v.48Z"/><path class="cls-15" d="M15.05,22.78l0-.11.23,0a.29.29,0,0,0,.22-.07.24.24,0,0,0,.07-.19V22h-.51v-.13h.67v.58a.44.44,0,0,1-.11.32.46.46,0,0,1-.32.11A1,1,0,0,1,15.05,22.78Z"/><path class="cls-15" d="M16.76,21.82v.6a.38.38,0,0,1-.06.22.43.43,0,0,1-.15.15.61.61,0,0,1-.24,0,.91.91,0,0,1-.35-.07l0-.11a.69.69,0,0,0,.26.06.34.34,0,0,1-.08-.17L16,21.82h.15l.16.73,0,.09a.07.07,0,0,0,0,.06.21.21,0,0,0,.15-.09.29.29,0,0,0,.06-.19v-.6Z"/><path class="cls-15" d="M17.64,22.19a.27.27,0,0,0-.06-.19.31.31,0,0,0-.19-.05H17v-.13h.37a.37.37,0,0,1,.29.1.34.34,0,0,1,.1.28v.61h-.15Zm-.61.28a.37.37,0,0,1,0-.12.13.13,0,0,1,0-.08h.13a.19.19,0,0,0,0,.08v.46H17Z"/><path class="cls-15" d="M18.65,22.64l.17.05.17,0a.73.73,0,0,0,.22,0,.42.42,0,0,0,.15-.11.28.28,0,0,0,.06-.18v-.57h.15v.59a.36.36,0,0,1-.08.23.43.43,0,0,1-.2.15.88.88,0,0,1-.29.05l-.25,0a1.06,1.06,0,0,1-.25-.09v-.9h.15Zm.29-.19a.57.57,0,0,0,0-.14v-.49h.16v.47a.77.77,0,0,1,0,.15.26.26,0,0,1-.07.1h-.13A.19.19,0,0,0,18.94,22.45Z"/><path class="cls-15" d="M20.2,22.69a.24.24,0,0,0,.15,0,.28.28,0,0,0,.1-.09.37.37,0,0,0,0-.15V22h-.61v-.13h.77v.58a.38.38,0,0,1-.06.22.29.29,0,0,1-.15.14.52.52,0,0,1-.23,0Zm-.31-.25a.41.41,0,0,1,0-.12l0-.09h.13s0,.06,0,.09v.84h-.15Z"/><path class="cls-15" d="M21,22.18a.33.33,0,0,1,0-.13.22.22,0,0,1,.07-.09h0L21,22l-.1,0,0-.12.22-.06.22,0a.42.42,0,0,1,.31.11.48.48,0,0,1,.11.31v.59h-.41v-.12h.25v-.48a.33.33,0,0,0-.06-.21.24.24,0,0,0-.17-.07.19.19,0,0,0-.14.07.29.29,0,0,0-.07.17l-.07.64h-.16Z"/></g></g></svg>