<svg xmlns="http://www.w3.org/2000/svg" xmlns:xlink="http://www.w3.org/1999/xlink" viewBox="0 0 77.86 50.54"><defs><style>.cls-1,.cls-18,.cls-2,.cls-3,.cls-4,.cls-5,.cls-6{fill:none;}.cls-1,.cls-2,.cls-3,.cls-5,.cls-6{clip-rule:evenodd;}.cls-2{clip-path:url(#clip-path);}.cls-3{clip-path:url(#clip-path-2);}.cls-5{clip-path:url(#clip-path-3);}.cls-6{clip-path:url(#clip-path-4);}.cls-7{fill:#6dc5a8;}.cls-7,.cls-8,.cls-9{fill-rule:evenodd;}.cls-8{fill:#fff;}.cls-12,.cls-9{fill:#b64726;}.cls-10{clip-path:url(#clip-path-5);}.cls-11{clip-path:url(#clip-path-6);}.cls-13{clip-path:url(#clip-path-7);}.cls-14{clip-path:url(#clip-path-8);}.cls-15{fill:#231f20;}.cls-16{clip-path:url(#clip-path-9);}.cls-17{clip-path:url(#clip-path-10);}.cls-18{stroke:#000;stroke-width:0.02px;}.cls-19{clip-path:url(#clip-path-11);}.cls-20{clip-path:url(#clip-path-12);}</style><clipPath id="clip-path"><polygon class="cls-1" points="54.98 8.88 70.33 8.88 70.33 4.32 54.98 4.32 54.98 8.88 54.98 8.88"/></clipPath><clipPath id="clip-path-2"><polygon class="cls-1" points="24.77 18.62 29.84 18.62 29.84 13.54 24.77 13.54 24.77 18.62 24.77 18.62"/></clipPath><clipPath id="clip-path-3"><polygon class="cls-1" points="22.89 8.88 7.53 8.88 7.53 4.32 22.89 4.32 22.89 8.88 22.89 8.88"/></clipPath><clipPath id="clip-path-4"><polygon class="cls-1" points="45.72 18.64 50.78 18.64 50.78 13.56 45.72 13.56 45.72 18.64 45.72 18.64"/></clipPath><clipPath id="clip-path-5"><polygon class="cls-2" points="70.33 4.32 54.98 4.32 54.98 8.88 70.33 8.88 70.33 4.32 70.33 4.32"/></clipPath><clipPath id="clip-path-6"><polygon class="cls-4" points="70.33 8.88 54.98 8.88 54.98 4.32 70.33 4.32 70.33 8.88 70.33 8.88"/></clipPath><clipPath id="clip-path-7"><polygon class="cls-5" points="7.53 4.32 22.89 4.32 22.89 8.88 7.53 8.88 7.53 4.32 7.53 4.32"/></clipPath><clipPath id="clip-path-8"><polygon class="cls-4" points="7.53 8.88 22.89 8.88 22.89 4.32 7.53 4.32 7.53 8.88 7.53 8.88"/></clipPath><clipPath id="clip-path-9"><polygon class="cls-6" points="45.72 13.56 50.78 13.56 50.78 18.64 45.72 18.64 45.72 13.56 45.72 13.56"/></clipPath><clipPath id="clip-path-10"><polygon class="cls-4" points="45.72 18.64 50.78 18.64 50.78 13.56 45.72 13.56 45.72 18.64 45.72 18.64"/></clipPath><clipPath id="clip-path-11"><polygon class="cls-3" points="24.77 13.54 29.84 13.54 29.84 18.62 24.77 18.62 24.77 13.54 24.77 13.54"/></clipPath><clipPath id="clip-path-12"><polygon class="cls-4" points="24.77 18.62 29.84 18.62 29.84 13.54 24.77 13.54 24.77 18.62 24.77 18.62"/></clipPath></defs><g id="Layer_2" data-name="Layer 2"><g id="Layer_1-2" data-name="Layer 1"><path class="cls-7" d="M77.86,43.89V6.48c-2.42,0-4.39-2.89-4.45-6.48h-69C4.39,3.59,2.42,6.48,0,6.48V43.73c2.46,0,4.45,3,4.45,6.65v.16h69c0-3.67,2-6.65,4.45-6.65Z"/><path class="cls-8" d="M76.55,43V7.4c-2.34,0-4.24-2.75-4.3-6.17H5.61c-.05,3.42-2,6.17-4.29,6.17V42.82c2.37,0,4.3,2.84,4.3,6.33,0,.05,0,.11,0,.16H72.24c0-3.49,1.93-6.32,4.31-6.32Z"/><path class="cls-9" d="M71.15,2.89c-.06,0-.12-.06-.14-.16s0-.2-.05-.31a.22.22,0,0,1,.1-.25c.07,0,.15,0,.17.15s0,.2,0,.3a.23.23,0,0,1-.1.26Z"/><path class="cls-9" d="M74,8.09l0,0c-.14-.1-.28-.22-.42-.34a.29.29,0,0,1,0-.29c0-.1.12-.13.18-.07l.39.32a.27.27,0,0,1,.07.28c0,.08-.07.12-.13.12ZM72.76,6.8a.14.14,0,0,1-.09,0L72.5,6.5c-.06-.08-.11-.17-.16-.25a.3.3,0,0,1,0-.29.11.11,0,0,1,.19,0l.15.24.17.23a.32.32,0,0,1,0,.3.13.13,0,0,1-.11.07ZM71.78,5s-.09,0-.12-.1-.16-.41-.23-.62A.27.27,0,0,1,71.49,4c.06,0,.14,0,.18.09s.14.4.22.59a.29.29,0,0,1,0,.29.09.09,0,0,1-.07,0Z"/><path class="cls-9" d="M75.22,9c-.07,0-.13-.09-.13-.21V8.68l-.1,0a.24.24,0,0,1-.09-.26c0-.11.09-.18.16-.15l.19.07a.21.21,0,0,1,.1.2v.32c0,.12-.06.21-.13.21Z"/><path class="cls-9" d="M75.22,40.31c-.07,0-.13-.09-.13-.21v-.62c0-.12.06-.21.13-.21s.13.09.13.21v.62c0,.12-.06.21-.13.21Zm0-2.08c-.07,0-.13-.1-.13-.21v-.63c0-.11.06-.21.13-.21s.13.1.13.21V38c0,.11-.06.21-.13.21Zm0-2.08c-.07,0-.13-.1-.13-.21v-.63c0-.12.06-.21.13-.21s.13.09.13.21v.63c0,.11-.06.21-.13.21Zm0-2.09c-.07,0-.13-.09-.13-.21v-.62c0-.12.06-.21.13-.21s.13.09.13.21v.62c0,.12-.06.21-.13.21Zm0-2.08c-.07,0-.13-.1-.13-.21v-.63c0-.12.06-.21.13-.21s.13.09.13.21v.63c0,.11-.06.21-.13.21Zm0-2.09c-.07,0-.13-.09-.13-.21v-.62c0-.12.06-.21.13-.21s.13.09.13.21v.62c0,.12-.06.21-.13.21Zm0-2.08c-.07,0-.13-.1-.13-.21V27c0-.12.06-.21.13-.21s.13.09.13.21v.63c0,.11-.06.21-.13.21Zm0-2.09c-.07,0-.13-.09-.13-.21v-.62c0-.12.06-.21.13-.21s.13.09.13.21v.62c0,.12-.06.21-.13.21Zm0-2.08c-.07,0-.13-.1-.13-.21V22.8c0-.11.06-.21.13-.21s.13.1.13.21v.63c0,.11-.06.21-.13.21Zm0-2.09c-.07,0-.13-.09-.13-.21v-.62c0-.12.06-.21.13-.21s.13.09.13.21v.62c0,.12-.06.21-.13.21Zm0-2.08c-.07,0-.13-.1-.13-.21v-.63c0-.11.06-.21.13-.21s.13.1.13.21v.63c0,.11-.06.21-.13.21Zm0-2.09c-.07,0-.13-.09-.13-.21v-.62c0-.12.06-.21.13-.21s.13.09.13.21v.62c0,.12-.06.21-.13.21Zm0-2.08c-.07,0-.13-.09-.13-.21v-.63c0-.11.06-.2.13-.2s.13.09.13.2v.63c0,.11-.06.21-.13.21Zm0-2.08c-.07,0-.13-.1-.13-.21v-.63c0-.12.06-.21.13-.21s.13.09.13.21V13c0,.11-.06.21-.13.21Zm0-2.09c-.07,0-.13-.09-.13-.21V10.3c0-.12.06-.21.13-.21s.13.09.13.21v.62c0,.12-.06.21-.13.21Z"/><path class="cls-9" d="M75,42.15c-.06,0-.12-.06-.13-.16a.23.23,0,0,1,.09-.25l.1,0v-.15c0-.11.06-.21.13-.21s.13.1.13.21v.32a.2.2,0,0,1-.1.2l-.19.07Z"/><path class="cls-9" d="M71.4,46.84l-.05,0a.27.27,0,0,1-.07-.28c0-.18.11-.35.17-.52s.11-.14.18-.09a.27.27,0,0,1,.05.29c-.05.16-.11.33-.15.49s-.07.13-.13.13ZM72,45.22a.09.09,0,0,1-.08,0,.32.32,0,0,1,0-.3l.24-.45a.11.11,0,0,1,.19,0,.32.32,0,0,1,0,.3l-.23.43a.11.11,0,0,1-.1.08Zm.84-1.36a.1.1,0,0,1-.1-.07.32.32,0,0,1,0-.3l.3-.36c.06-.06.14,0,.19,0a.29.29,0,0,1,0,.29l-.29.34a.08.08,0,0,1-.08,0Zm1-1s-.1,0-.12-.12a.27.27,0,0,1,.06-.28l.34-.25c.07,0,.15,0,.18.11a.29.29,0,0,1-.08.28l-.32.23a.09.09,0,0,1-.06,0Z"/><path class="cls-9" d="M71.07,48.38h-.21c-.08,0-.14-.09-.14-.21s.06-.21.14-.21H71a.77.77,0,0,0,0-.15c0-.11.1-.18.17-.15a.23.23,0,0,1,.1.26c0,.1,0,.2,0,.3s-.07.16-.13.16Z"/><path class="cls-9" d="M69.91,48.38H69.5c-.07,0-.13-.09-.13-.21s.06-.21.13-.21h.41c.08,0,.14.1.14.21s-.06.21-.14.21Zm-1.36,0h-.41c-.08,0-.14-.09-.14-.21s.06-.21.14-.21h.41c.07,0,.13.1.13.21s-.06.21-.13.21Zm-1.37,0h-.41c-.08,0-.14-.09-.14-.21s.06-.21.14-.21h.41c.07,0,.13.1.13.21s-.06.21-.13.21Zm-1.37,0H65.4c-.07,0-.13-.09-.13-.21s.06-.21.13-.21h.41c.08,0,.14.1.14.21s-.06.21-.14.21Zm-1.37,0H64c-.07,0-.13-.09-.13-.21S64,48,64,48h.41c.08,0,.14.1.14.21s-.06.21-.14.21Zm-1.36,0h-.41c-.08,0-.14-.09-.14-.21s.06-.21.14-.21h.41c.07,0,.13.1.13.21s-.06.21-.13.21Zm-1.37,0H61.3c-.08,0-.14-.09-.14-.21s.06-.21.14-.21h.41c.07,0,.13.1.13.21s-.06.21-.13.21Zm-1.37,0h-.41c-.07,0-.13-.09-.13-.21s.06-.21.13-.21h.41c.08,0,.14.1.14.21s-.06.21-.14.21Zm-1.37,0h-.41c-.07,0-.13-.09-.13-.21s.06-.21.13-.21H59c.08,0,.14.1.14.21s-.06.21-.14.21Zm-1.36,0H57.2c-.08,0-.14-.09-.14-.21s.06-.21.14-.21h.41c.07,0,.13.1.13.21s-.06.21-.13.21Zm-1.37,0h-.41c-.07,0-.13-.09-.13-.21s.06-.21.13-.21h.41c.08,0,.14.1.14.21s-.06.21-.14.21Zm-1.37,0h-.41c-.07,0-.13-.09-.13-.21s.06-.21.13-.21h.41c.08,0,.14.1.14.21s-.06.21-.14.21Zm-1.36,0H53.1c-.08,0-.14-.09-.14-.21S53,48,53.1,48h.41c.07,0,.13.1.13.21s-.06.21-.13.21Zm-1.37,0h-.41c-.08,0-.14-.09-.14-.21s.06-.21.14-.21h.41c.07,0,.13.1.13.21s-.06.21-.13.21Zm-1.37,0h-.41c-.07,0-.13-.09-.13-.21s.06-.21.13-.21h.41c.08,0,.14.1.14.21s-.06.21-.14.21Zm-1.37,0H49c-.07,0-.13-.09-.13-.21S48.92,48,49,48h.41c.08,0,.14.1.14.21s-.06.21-.14.21Zm-1.36,0h-.41c-.08,0-.14-.09-.14-.21s.06-.21.14-.21H48c.07,0,.13.1.13.21s-.06.21-.13.21Zm-1.37,0h-.41c-.08,0-.14-.09-.14-.21s.06-.21.14-.21h.41c.07,0,.14.1.14.21s-.07.21-.14.21Zm-1.37,0h-.41c-.07,0-.13-.09-.13-.21s.06-.21.13-.21h.41c.08,0,.14.1.14.21s-.06.21-.14.21Zm-1.36,0h-.41c-.08,0-.14-.09-.14-.21s.06-.21.14-.21h.41c.07,0,.13.1.13.21s-.06.21-.13.21Zm-1.37,0h-.41c-.08,0-.14-.09-.14-.21s.06-.21.14-.21h.41c.07,0,.13.1.13.21s-.06.21-.13.21Zm-1.37,0h-.41c-.07,0-.13-.09-.13-.21s.06-.21.13-.21h.41c.08,0,.14.1.14.21s-.06.21-.14.21Zm-1.37,0h-.41c-.07,0-.13-.09-.13-.21s.06-.21.13-.21h.41c.08,0,.14.1.14.21s-.06.21-.14.21Zm-1.36,0h-.41c-.08,0-.14-.09-.14-.21S38,48,38.06,48h.41c.07,0,.13.1.13.21s-.06.21-.13.21Zm-1.37,0h-.41c-.08,0-.14-.09-.14-.21s.06-.21.14-.21h.41c.07,0,.13.1.13.21s-.06.21-.13.21Zm-1.37,0h-.41c-.07,0-.13-.09-.13-.21s.06-.21.13-.21h.41c.08,0,.14.1.14.21s-.06.21-.14.21Zm-1.36,0H34c-.08,0-.14-.09-.14-.21S33.88,48,34,48h.41c.07,0,.13.1.13.21s-.06.21-.13.21Zm-1.37,0h-.41c-.08,0-.14-.09-.14-.21s.06-.21.14-.21H33c.07,0,.13.1.13.21s-.06.21-.13.21Zm-1.37,0h-.41c-.08,0-.14-.09-.14-.21s.06-.21.14-.21h.41c.07,0,.14.1.14.21s-.07.21-.14.21Zm-1.37,0h-.41c-.07,0-.13-.09-.13-.21s.06-.21.13-.21h.41c.08,0,.14.1.14.21s-.06.21-.14.21Zm-1.36,0h-.41c-.08,0-.14-.09-.14-.21s.06-.21.14-.21h.41c.07,0,.13.1.13.21s-.06.21-.13.21Zm-1.37,0h-.41c-.08,0-.14-.09-.14-.21S27,48,27.12,48h.41c.07,0,.13.1.13.21s-.06.21-.13.21Zm-1.37,0h-.41c-.07,0-.13-.09-.13-.21s.06-.21.13-.21h.41c.08,0,.14.1.14.21s-.06.21-.14.21Zm-1.37,0h-.41c-.07,0-.13-.09-.13-.21s.06-.21.13-.21h.41c.08,0,.14.1.14.21s-.06.21-.14.21Zm-1.36,0H23c-.08,0-.14-.09-.14-.21S22.94,48,23,48h.41c.07,0,.13.1.13.21s-.06.21-.13.21Zm-1.37,0h-.41c-.07,0-.13-.09-.13-.21s.06-.21.13-.21h.41c.08,0,.14.1.14.21s-.06.21-.14.21Zm-1.37,0h-.41c-.07,0-.13-.09-.13-.21s.06-.21.13-.21h.41c.08,0,.14.1.14.21s-.06.21-.14.21Zm-1.36,0h-.41c-.08,0-.14-.09-.14-.21s.06-.21.14-.21h.41c.07,0,.13.1.13.21s-.06.21-.13.21Zm-1.37,0h-.41c-.08,0-.14-.09-.14-.21s.06-.21.14-.21H18c.07,0,.13.1.13.21s-.06.21-.13.21Zm-1.37,0h-.41c-.07,0-.13-.09-.13-.21s.06-.21.13-.21h.41c.08,0,.14.1.14.21s-.06.21-.14.21Zm-1.37,0h-.41c-.07,0-.13-.09-.13-.21s.06-.21.13-.21h.41c.08,0,.14.1.14.21s-.06.21-.14.21Zm-1.36,0h-.41c-.08,0-.14-.09-.14-.21s.06-.21.14-.21h.41c.07,0,.13.1.13.21s-.06.21-.13.21Zm-1.37,0h-.41c-.08,0-.14-.09-.14-.21S12,48,12.08,48h.41c.07,0,.13.1.13.21s-.06.21-.13.21Zm-1.37,0h-.41c-.07,0-.13-.09-.13-.21s.06-.21.13-.21h.41c.08,0,.14.1.14.21s-.06.21-.14.21Zm-1.36,0H9.35c-.08,0-.14-.09-.14-.21s.06-.21.14-.21h.41c.07,0,.13.1.13.21s-.06.21-.13.21Zm-1.37,0H8c-.08,0-.14-.09-.14-.21S7.9,48,8,48h.41c.07,0,.13.1.13.21s-.06.21-.13.21Z"/><path class="cls-9" d="M7,48.38H6.81c-.06,0-.11-.07-.13-.17s0-.2,0-.29a.23.23,0,0,1,.1-.26c.07,0,.14,0,.16.15a.77.77,0,0,1,0,.15H7c.07,0,.13.1.13.21s-.06.21-.13.21Z"/><path class="cls-9" d="M6.5,46.8s-.1,0-.12-.12-.1-.35-.16-.51a.3.3,0,0,1,.06-.29c.06-.05.15,0,.18.09s.11.36.16.54a.27.27,0,0,1-.07.28Zm-.62-1.66a.14.14,0,0,1-.11-.08c-.07-.15-.15-.3-.23-.44a.29.29,0,0,1,0-.3.11.11,0,0,1,.19,0l.24.47a.3.3,0,0,1,0,.29.09.09,0,0,1-.08,0ZM5,43.74a.11.11,0,0,1-.09-.05l-.28-.35a.27.27,0,0,1,0-.29c0-.1.13-.12.19,0l.3.37a.32.32,0,0,1,0,.3.1.1,0,0,1-.1.07ZM4,42.67a.07.07,0,0,1-.06,0l-.33-.24a.27.27,0,0,1-.07-.28c0-.11.11-.15.18-.11l.34.25a.3.3,0,0,1,.06.29.14.14,0,0,1-.12.11Z"/><path class="cls-9" d="M2.84,42h0l-.19-.07a.21.21,0,0,1-.1-.2v-.32c0-.11.06-.21.13-.21s.13.1.13.21v.15l.1,0c.07,0,.11.14.09.25S2.9,42,2.84,42Z"/><path class="cls-9" d="M2.64,40.15c-.07,0-.13-.09-.13-.21v-.62c0-.11.06-.21.13-.21s.13.1.13.21v.62c0,.12-.06.21-.13.21Zm0-2.07c-.07,0-.13-.1-.13-.21v-.62c0-.12.06-.21.13-.21s.13.09.13.21v.62c0,.11-.06.21-.13.21Zm0-2.08c-.07,0-.13-.09-.13-.21v-.62c0-.11.06-.21.13-.21s.13.1.13.21v.62c0,.12-.06.21-.13.21Zm0-2.07c-.07,0-.13-.09-.13-.21V33.1c0-.12.06-.21.13-.21s.13.09.13.21v.62c0,.12-.06.21-.13.21Zm0-2.08c-.07,0-.13-.09-.13-.2V31c0-.11.06-.21.13-.21s.13.1.13.21v.63c0,.11-.06.2-.13.2Zm0-2.07c-.07,0-.13-.09-.13-.21V29c0-.12.06-.21.13-.21s.13.09.13.21v.62c0,.12-.06.21-.13.21Zm0-2.07c-.07,0-.13-.1-.13-.21v-.63c0-.11.06-.2.13-.2s.13.09.13.2v.63c0,.11-.06.21-.13.21Zm0-2.08c-.07,0-.13-.09-.13-.21V24.8c0-.12.06-.21.13-.21s.13.09.13.21v.62c0,.12-.06.21-.13.21Zm0-2.07c-.07,0-.13-.1-.13-.21v-.62c0-.12.06-.21.13-.21s.13.09.13.21v.62c0,.11-.06.21-.13.21Zm0-2.08c-.07,0-.13-.09-.13-.21v-.62c0-.11.06-.21.13-.21s.13.1.13.21v.62c0,.12-.06.21-.13.21Zm0-2.07c-.07,0-.13-.1-.13-.21v-.62c0-.12.06-.21.13-.21s.13.09.13.21v.62c0,.11-.06.21-.13.21Zm0-2.08c-.07,0-.13-.09-.13-.21V16.5c0-.11.06-.21.13-.21s.13.1.13.21v.62c0,.12-.06.21-.13.21Zm0-2.07c-.07,0-.13-.09-.13-.21v-.62c0-.12.06-.21.13-.21s.13.09.13.21v.62c0,.12-.06.21-.13.21Zm0-2.08c-.07,0-.13-.09-.13-.2v-.63c0-.11.06-.21.13-.21s.13.1.13.21V13c0,.11-.06.2-.13.2Zm0-2.07c-.07,0-.13-.09-.13-.21v-.62c0-.12.06-.21.13-.21s.13.09.13.21v.62c0,.12-.06.21-.13.21Z"/><path class="cls-9" d="M2.64,9c-.07,0-.13-.09-.13-.21V8.51a.21.21,0,0,1,.1-.2l.19-.07c.08,0,.15,0,.16.15s0,.23-.09.25l-.1,0v.15c0,.12-.06.21-.13.21Z"/><path class="cls-9" d="M3.84,8.09s-.1,0-.13-.12a.27.27,0,0,1,.07-.28l.39-.32c.07-.06.15,0,.19.08a.3.3,0,0,1-.05.28l-.41.34-.06,0ZM5.1,6.8A.1.1,0,0,1,5,6.73a.29.29,0,0,1,0-.3l.17-.24L5.33,6a.1.1,0,0,1,.19,0,.27.27,0,0,1,0,.3l-.15.24-.18.26a.14.14,0,0,1-.09,0ZM6.08,5A.11.11,0,0,1,6,5,.29.29,0,0,1,6,4.7c.08-.19.15-.39.22-.59S6.31,4,6.37,4a.27.27,0,0,1,.06.29c-.07.21-.15.42-.23.62A.14.14,0,0,1,6.08,5Z"/><path class="cls-9" d="M6.71,2.89h0a.23.23,0,0,1-.1-.26c0-.1,0-.2,0-.3s.07-.16.14-.16H7c.08,0,.14.1.14.21s-.06.21-.14.21h-.1a.8.8,0,0,1,0,.15c0,.1-.07.16-.13.16Z"/><path class="cls-9" d="M69.93,2.58h-.41c-.08,0-.14-.09-.14-.21s.06-.21.14-.21h.41c.07,0,.13.1.13.21s-.06.21-.13.21Zm-1.37,0h-.41c-.08,0-.14-.09-.14-.21s.06-.21.14-.21h.41c.07,0,.13.1.13.21s-.06.21-.13.21Zm-1.37,0h-.41c-.08,0-.14-.09-.14-.21s.06-.21.14-.21h.41c.07,0,.13.1.13.21s-.06.21-.13.21Zm-1.37,0h-.41c-.07,0-.13-.09-.13-.21s.06-.21.13-.21h.41c.08,0,.14.1.14.21s-.06.21-.14.21Zm-1.37,0H64c-.07,0-.13-.09-.13-.21s.06-.21.13-.21h.41c.08,0,.14.1.14.21s-.06.21-.14.21Zm-1.37,0h-.41c-.07,0-.13-.09-.13-.21s.06-.21.13-.21h.41c.08,0,.14.1.14.21s-.06.21-.14.21Zm-1.36,0h-.41c-.08,0-.14-.09-.14-.21s.06-.21.14-.21h.41c.07,0,.13.1.13.21s-.06.21-.13.21Zm-1.37,0h-.41c-.08,0-.14-.09-.14-.21s.06-.21.14-.21h.41c.07,0,.13.1.13.21s-.06.21-.13.21ZM59,2.58h-.41c-.08,0-.14-.09-.14-.21s.06-.21.14-.21H59c.07,0,.13.1.13.21s-.06.21-.13.21Zm-1.37,0H57.2c-.07,0-.13-.09-.13-.21s.06-.21.13-.21h.41c.08,0,.14.1.14.21s-.06.21-.14.21Zm-1.37,0h-.41c-.07,0-.13-.09-.13-.21s.06-.21.13-.21h.41c.08,0,.14.1.14.21s-.06.21-.14.21Zm-1.37,0h-.41c-.07,0-.13-.09-.13-.21s.06-.21.13-.21h.41c.08,0,.14.1.14.21s-.06.21-.14.21Zm-1.37,0h-.41c-.07,0-.13-.09-.13-.21s.06-.21.13-.21h.41c.08,0,.14.1.14.21s-.06.21-.14.21Zm-1.36,0h-.41c-.08,0-.14-.09-.14-.21s.06-.21.14-.21h.41c.07,0,.13.1.13.21s-.06.21-.13.21Zm-1.37,0h-.41c-.08,0-.14-.09-.14-.21s.06-.21.14-.21h.41c.07,0,.13.1.13.21s-.06.21-.13.21Zm-1.37,0H49c-.08,0-.14-.09-.14-.21s.06-.21.14-.21h.41c.07,0,.13.1.13.21s-.06.21-.13.21ZM48,2.58h-.41c-.07,0-.13-.09-.13-.21s.06-.21.13-.21H48c.08,0,.14.1.14.21s-.06.21-.14.21Zm-1.37,0h-.41c-.07,0-.13-.09-.13-.21s.06-.21.13-.21h.41c.08,0,.14.1.14.21s-.06.21-.14.21Zm-1.37,0h-.41c-.07,0-.13-.09-.13-.21s.06-.21.13-.21h.41c.08,0,.14.1.14.21s-.06.21-.14.21Zm-1.36,0h-.41c-.08,0-.14-.09-.14-.21s.06-.21.14-.21h.41c.07,0,.13.1.13.21s-.06.21-.13.21Zm-1.37,0h-.41c-.08,0-.14-.09-.14-.21s.06-.21.14-.21h.41c.07,0,.13.1.13.21s-.06.21-.13.21Zm-1.37,0h-.41c-.08,0-.14-.09-.14-.21s.06-.21.14-.21h.41c.07,0,.13.1.13.21s-.06.21-.13.21Zm-1.37,0h-.41c-.07,0-.13-.09-.13-.21s.06-.21.13-.21h.41c.08,0,.14.1.14.21s-.06.21-.14.21Zm-1.37,0H38c-.07,0-.13-.09-.13-.21s.06-.21.13-.21h.41c.08,0,.14.1.14.21s-.06.21-.14.21Zm-1.37,0h-.41c-.07,0-.13-.09-.13-.21s.06-.21.13-.21h.41c.08,0,.14.1.14.21s-.06.21-.14.21Zm-1.37,0H35.3c-.07,0-.13-.09-.13-.21s.06-.21.13-.21h.41c.08,0,.14.1.14.21s-.06.21-.14.21Zm-1.36,0h-.41c-.08,0-.14-.09-.14-.21s.06-.21.14-.21h.41c.07,0,.13.1.13.21s-.06.21-.13.21ZM33,2.58h-.41c-.08,0-.14-.09-.14-.21s.06-.21.14-.21H33c.07,0,.13.1.13.21s-.06.21-.13.21Zm-1.37,0H31.2c-.08,0-.14-.09-.14-.21s.06-.21.14-.21h.41c.07,0,.13.1.13.21s-.06.21-.13.21Zm-1.37,0h-.41c-.08,0-.14-.09-.14-.21s.06-.21.14-.21h.41c.07,0,.13.1.13.21s-.06.21-.13.21Zm-1.37,0h-.41c-.07,0-.13-.09-.13-.21s.06-.21.13-.21h.41c.08,0,.14.1.14.21s-.06.21-.14.21Zm-1.37,0h-.41c-.07,0-.13-.09-.13-.21s.06-.21.13-.21h.41c.08,0,.14.1.14.21s-.06.21-.14.21Zm-1.37,0h-.41c-.07,0-.13-.09-.13-.21s.06-.21.13-.21h.41c.08,0,.14.1.14.21s-.06.21-.14.21Zm-1.36,0h-.41c-.08,0-.14-.09-.14-.21s.06-.21.14-.21h.41c.07,0,.13.1.13.21s-.06.21-.13.21Zm-1.37,0H23c-.08,0-.14-.09-.14-.21s.06-.21.14-.21h.41c.07,0,.13.1.13.21s-.06.21-.13.21ZM22,2.58h-.41c-.07,0-.13-.09-.13-.21s.06-.21.13-.21H22c.08,0,.14.1.14.21s-.06.21-.14.21Zm-1.37,0h-.41c-.07,0-.13-.09-.13-.21s.06-.21.13-.21h.41c.08,0,.14.1.14.21s-.06.21-.14.21Zm-1.37,0h-.41c-.07,0-.13-.09-.13-.21s.06-.21.13-.21h.41c.08,0,.14.1.14.21s-.06.21-.14.21Zm-1.37,0h-.41c-.07,0-.13-.09-.13-.21s.06-.21.13-.21h.41c.08,0,.14.1.14.21s-.06.21-.14.21Zm-1.36,0h-.41c-.08,0-.14-.09-.14-.21s.06-.21.14-.21h.41c.07,0,.13.1.13.21s-.06.21-.13.21Zm-1.37,0h-.41c-.08,0-.14-.09-.14-.21s.06-.21.14-.21h.41c.07,0,.13.1.13.21s-.06.21-.13.21Zm-1.37,0h-.41c-.08,0-.14-.09-.14-.21s.06-.21.14-.21h.41c.07,0,.13.1.13.21s-.06.21-.13.21Zm-1.37,0H12c-.08,0-.14-.09-.14-.21s.06-.21.14-.21h.41c.07,0,.13.1.13.21s-.06.21-.13.21Zm-1.37,0h-.41c-.07,0-.13-.09-.13-.21s.06-.21.13-.21h.41c.08,0,.14.1.14.21s-.06.21-.14.21Zm-1.37,0H9.3c-.07,0-.13-.09-.13-.21s.06-.21.13-.21h.41c.08,0,.14.1.14.21s-.06.21-.14.21Zm-1.37,0H7.93c-.07,0-.13-.09-.13-.21s.06-.21.13-.21h.41c.08,0,.14.1.14.21s-.06.21-.14.21Z"/><path class="cls-9" d="M71.09,2.58h-.2c-.08,0-.14-.09-.14-.21s.06-.21.14-.21h.2c.08,0,.14.1.14.21s-.06.21-.14.21Z"/><g class="cls-10"><g class="cls-11"><polygon class="cls-12" points="68.36 5.43 68 6.42 66.85 6.42 67.78 7.03 67.43 8.02 68.36 7.41 69.28 8.02 68.92 7.03 69.85 6.42 68.71 6.42 68.36 5.43 68.36 5.43"/><polygon class="cls-12" points="63.33 5.12 62.89 6.34 61.46 6.34 62.62 7.1 62.18 8.33 63.33 7.57 64.48 8.33 64.04 7.1 65.19 6.34 63.77 6.34 63.33 5.12 63.33 5.12"/><polygon class="cls-12" points="57.65 4.58 57.06 6.22 55.17 6.22 56.7 7.23 56.12 8.87 57.65 7.85 59.19 8.87 58.6 7.23 60.13 6.22 58.24 6.22 57.65 4.58 57.65 4.58"/></g></g><g class="cls-13"><g class="cls-14"><polygon class="cls-12" points="9.51 5.43 9.86 6.42 11.01 6.42 10.08 7.03 10.44 8.02 9.51 7.41 8.58 8.02 8.94 7.03 8.01 6.42 9.15 6.42 9.51 5.43 9.51 5.43"/><polygon class="cls-12" points="14.53 5.12 14.97 6.34 16.4 6.34 15.24 7.1 15.68 8.33 14.53 7.57 13.38 8.33 13.82 7.1 12.67 6.34 14.09 6.34 14.53 5.12 14.53 5.12"/><polygon class="cls-12" points="20.21 4.58 20.8 6.22 22.69 6.22 21.16 7.23 21.75 8.87 20.21 7.85 18.68 8.87 19.26 7.23 17.73 6.22 19.63 6.22 20.21 4.58 20.21 4.58"/></g></g><path class="cls-15" d="M26.07,6.33a.69.69,0,0,1,.21-.28.84.84,0,0,0,.21-.22.31.31,0,0,0,.07-.2c0-.19-.09-.28-.26-.28a.26.26,0,0,0-.19.07.32.32,0,0,0-.08.23h-.57a.83.83,0,0,1,.12-.43A.71.71,0,0,1,25.87,5a1.18,1.18,0,0,1,.43-.08,1.15,1.15,0,0,1,.44.08.65.65,0,0,1,.29.25.74.74,0,0,1,.09.38.49.49,0,0,1-.05.25.53.53,0,0,1-.13.2,2.24,2.24,0,0,1-.22.22l0,0a.54.54,0,0,0-.13.19.72.72,0,0,0-.05.24H26A1.45,1.45,0,0,1,26.07,6.33Zm.36.69a.23.23,0,0,1,.11.11.26.26,0,0,1,0,.15.24.24,0,0,1,0,.15.23.23,0,0,1-.11.11.42.42,0,0,1-.16,0,.47.47,0,0,1-.17,0A.38.38,0,0,1,26,7.43a.33.33,0,0,1,0-.15.37.37,0,0,1,0-.15A.38.38,0,0,1,26.1,7a.47.47,0,0,1,.17,0A.42.42,0,0,1,26.43,7Z"/><path class="cls-15" d="M27.54,5.39H29.4V7.55H27.54ZM28.81,7.1V5.84h-.68V7.1Z"/><path class="cls-15" d="M30.12,5.84h-.34V5.39h.93V6.63h-.59Z"/><path class="cls-15" d="M32.06,7.11A.46.46,0,0,0,32.4,7a.51.51,0,0,0,.12-.37V5.84H31.27V5.39h1.84v1.2A.92.92,0,0,1,33,7.1a.86.86,0,0,1-.35.33,1.41,1.41,0,0,1-.57.12Zm-.77-.31a.8.8,0,0,1,0-.3.31.31,0,0,1,.09-.16h.46a2.1,2.1,0,0,0,0,.4V8.31h-.56Z"/><path class="cls-15" d="M33.69,5.39h1a.88.88,0,0,1,.64.21.77.77,0,0,1,.22.61V7.55h-.58V6.16c0-.21-.09-.32-.27-.32h-.37V7.55h-.59Z"/><path class="cls-15" d="M36.61,7l.33.11a2.11,2.11,0,0,0,.33,0A1.06,1.06,0,0,0,37.89,7a.59.59,0,0,0,.22-.51V5.39h.57V6.56a.93.93,0,0,1-.18.58,1.15,1.15,0,0,1-.5.36,2,2,0,0,1-.71.12,2.83,2.83,0,0,1-.63-.07A3.23,3.23,0,0,1,36,7.34V5.39h.57Zm.44-.36a2.28,2.28,0,0,0,0-.27v-1h.57v.87a1.34,1.34,0,0,1,0,.35.58.58,0,0,1-.11.25H37A.72.72,0,0,0,37.05,6.66Z"/><path class="cls-15" d="M39.39,6.35a.89.89,0,0,1,.07-.28.69.69,0,0,1,.13-.21l0,0h0l-.16,0-.17.06-.12-.43a2.7,2.7,0,0,1,.49-.12,3.49,3.49,0,0,1,.53,0,1,1,0,0,1,.76.26.94.94,0,0,1,.26.74V7.55h-1V7.1h.37V6.25a.49.49,0,0,0-.09-.32.26.26,0,0,0-.23-.12c-.2,0-.31.15-.34.46l-.13,1.28h-.58Z"/><path class="cls-15" d="M43.43,5.84h-.94V5.39H44V8.31h-.58Z"/><path class="cls-15" d="M44.72,5.84h-.33V5.39h.92V6.63h-.59Z"/><path class="cls-15" d="M47.29,6.65l.63.9h-.65l-.8-1.14a.32.32,0,0,0,0,.18v1h-.57V6.84A1.08,1.08,0,0,1,46,6.36a.63.63,0,0,1,.3-.28l-.48-.69h.65l.51.74.36-.74h.65Z"/><path class="cls-15" d="M49.24,5.86l-.12,0V5.39h1.21v.45h-.52l.27,1.71h-.61Z"/><path class="cls-15" d="M52.15,6.65l.63.9h-.65l-.8-1.14a.32.32,0,0,0,0,.18v1h-.57V6.84a1.08,1.08,0,0,1,.09-.48.63.63,0,0,1,.3-.28l-.48-.69h.65l.52.74.35-.74h.65Z"/><path class="cls-15" d="M15.23,11.72a.1.1,0,0,1,0,.14.1.1,0,0,1-.08,0,.1.1,0,0,1,0-.2A.1.1,0,0,1,15.23,11.72Z"/><path class="cls-15" d="M16.3,10.93a.4.4,0,0,1,.1.3v.65h-.16v-.66A.22.22,0,0,0,16,11h-.15a.34.34,0,0,0,0,.12.77.77,0,0,0,0,.15v.35a.29.29,0,0,1-.07.22.25.25,0,0,1-.2.08h-.1v-.13h.06a.12.12,0,0,0,.11,0,.17.17,0,0,0,0-.13v-.32a1,1,0,0,1,0-.17A.67.67,0,0,1,15.7,11h-.2v-.13H16A.46.46,0,0,1,16.3,10.93Z"/><path class="cls-15" d="M16.74,11h-.12v-.13h.29v1h-.17Z"/><path class="cls-15" d="M17.12,11.87v-.12h.13a.15.15,0,0,0,.1,0,.17.17,0,0,0,0-.13V11h-.2v-.13h.36v.76a.29.29,0,0,1-.07.22.24.24,0,0,1-.2.07A.52.52,0,0,1,17.12,11.87Z"/><path class="cls-15" d="M17.93,11h-.12v-.13h.29v1h-.17Z"/><path class="cls-15" d="M18.58,11.69a.76.76,0,0,0,.18.06l.17,0a.56.56,0,0,0,.23,0,.31.31,0,0,0,.16-.11.28.28,0,0,0,.06-.18v-.6h.16v.61a.41.41,0,0,1-.08.25.48.48,0,0,1-.22.15.94.94,0,0,1-.3.05l-.26,0a1.14,1.14,0,0,1-.26-.09v-.94h.16Zm.3-.2a.57.57,0,0,0,0-.14v-.51h.16v.48a.39.39,0,0,1,0,.16.21.21,0,0,1-.07.11h-.13A.23.23,0,0,0,18.88,11.49Z"/><path class="cls-15" d="M21,10.93a.4.4,0,0,1,.1.3v.65H21v-.66a.22.22,0,0,0-.25-.25h-.15a.34.34,0,0,0,0,.12.77.77,0,0,0,0,.15v.35a.29.29,0,0,1-.07.22.25.25,0,0,1-.2.08h-.1v-.13h.06a.12.12,0,0,0,.11,0,.17.17,0,0,0,0-.13v-.32a1,1,0,0,1,0-.17.23.23,0,0,1,.06-.12h-.2v-.13h.49A.46.46,0,0,1,21,10.93Z"/><path class="cls-15" d="M21.48,11h-.12v-.13h.29v1h-.17Z"/><path class="cls-15" d="M22.72,11.75v.13h-.86v-.14h.57v-.52a.25.25,0,0,0-.06-.19.28.28,0,0,0-.2-.06h-.25v-.13h.26a.46.46,0,0,1,.31.09.4.4,0,0,1,.1.3v.51Z"/><path class="cls-15" d="M23,11h-.12v-.13h.29v1H23Z"/><path class="cls-15" d="M23.61,11.69l.18.06.18,0a.56.56,0,0,0,.23,0,.31.31,0,0,0,.16-.11.35.35,0,0,0,.05-.18v-.6h.16v.61a.36.36,0,0,1-.08.25.41.41,0,0,1-.21.15.94.94,0,0,1-.3.05l-.27,0a1.06,1.06,0,0,1-.25-.09v-.94h.15Zm.3-.2a.3.3,0,0,0,0-.14v-.51h.16v.48a.7.7,0,0,1,0,.16.3.3,0,0,1-.07.11h-.14A.16.16,0,0,0,23.91,11.49Z"/><path class="cls-15" d="M25.63,10.93a.45.45,0,0,1,.1.3v.65h-.16v-.66a.2.2,0,0,0-.24-.25h-.15a.34.34,0,0,0,0,.12.39.39,0,0,0,0,.15v.35a.29.29,0,0,1-.07.22.25.25,0,0,1-.2.08h-.1v-.13h.06a.12.12,0,0,0,.11,0,.17.17,0,0,0,0-.13v-.32a1,1,0,0,1,0-.17A.23.23,0,0,1,25,11h-.2v-.13h.49A.46.46,0,0,1,25.63,10.93Z"/><path class="cls-15" d="M26.47,10.84h.83v1h-.83Zm.67.9V11h-.51v.77Z"/><path class="cls-15" d="M27.7,11h-.19v-.13h.36v.58H27.7Z"/><path class="cls-15" d="M28.75,11.42l.33.46H28.9l-.47-.64a.22.22,0,0,0-.09.2v.44h-.16V11.5a.38.38,0,0,1,.05-.22.26.26,0,0,1,.14-.13l-.23-.31h.19l.32.44.25-.44h.18Z"/><path class="cls-15" d="M29.49,11.69a.76.76,0,0,0,.18.06l.18,0a.51.51,0,0,0,.22,0,.31.31,0,0,0,.16-.11.28.28,0,0,0,.06-.18v-.6h.16v.61a.41.41,0,0,1-.08.25.48.48,0,0,1-.22.15.94.94,0,0,1-.3.05l-.26,0a1.14,1.14,0,0,1-.26-.09v-.94h.16Zm.3-.2a.52.52,0,0,0,0-.14v-.51H30v.48a.38.38,0,0,1,0,.16.16.16,0,0,1-.07.11h-.13A.23.23,0,0,0,29.79,11.49Z"/><path class="cls-15" d="M30.82,11h-.13v-.13H31v1h-.16Z"/><path class="cls-15" d="M31.19,11.87v-.12h.13a.18.18,0,0,0,.11,0,.23.23,0,0,0,0-.13V11h-.2v-.13h.37v.76a.34.34,0,0,1-.07.22.28.28,0,0,1-.21.07A.52.52,0,0,1,31.19,11.87Z"/><path class="cls-15" d="M32.56,11.22A.25.25,0,0,0,32.5,11a.27.27,0,0,0-.19-.06h-.38v-.13h.38a.46.46,0,0,1,.31.09.41.41,0,0,1,.11.3v.65h-.17Zm-.63.3a.53.53,0,0,1,0-.13.36.36,0,0,1,0-.09h.13s0,.06,0,.09v.49h-.16Z"/><path class="cls-15" d="M33.47,10.84h.83v1h-.83Zm.67.9V11h-.51v.77Z"/><path class="cls-15" d="M34.7,11h-.19v-.13h.35v.58H34.7Z"/><path class="cls-15" d="M35.36,11.84a.32.32,0,0,1-.14-.14.43.43,0,0,1-.06-.22v-.64h.17v.65a.32.32,0,0,0,0,.14.22.22,0,0,0,.09.1.3.3,0,0,0,.26,0,.22.22,0,0,0,.09-.1.32.32,0,0,0,0-.14v-.35a.17.17,0,0,0,0-.13.12.12,0,0,0-.1,0,.24.24,0,0,0-.13,0l0-.11.1-.05h.1a.29.29,0,0,1,.14,0A.24.24,0,0,1,36,11a.38.38,0,0,1,0,.16v.35a.43.43,0,0,1-.06.22.32.32,0,0,1-.14.14.4.4,0,0,1-.22.06A.43.43,0,0,1,35.36,11.84Z"/><path class="cls-15" d="M37,10.94l-.39.94h-.17l.38-.91H36.2v-.45h.16v.32H37Z"/><path class="cls-15" d="M37.37,11.69l.18.06.18,0a.51.51,0,0,0,.22,0,.31.31,0,0,0,.16-.11.28.28,0,0,0,.06-.18v-.6h.16v.61a.41.41,0,0,1-.08.25.41.41,0,0,1-.21.15.94.94,0,0,1-.3.05,1.24,1.24,0,0,1-.27,0,1.14,1.14,0,0,1-.26-.09v-.94h.16Zm.3-.2a.52.52,0,0,0,0-.14v-.51h.16v.48a.7.7,0,0,1,0,.16.3.3,0,0,1-.07.11h-.14A.23.23,0,0,0,37.67,11.49Z"/><path class="cls-15" d="M39.1,10.84h.83v1H39.1Zm.66.9V11h-.5v.77Z"/><path class="cls-15" d="M41,10.84v.62a.6.6,0,0,1,0,.24.5.5,0,0,1-.17.15.6.6,0,0,1-.24.05,1.27,1.27,0,0,1-.37-.07l0-.13a1.14,1.14,0,0,0,.28.07.31.31,0,0,1-.09-.18l-.17-.75h.16l.17.76a.51.51,0,0,1,0,.09.16.16,0,0,0,0,.07.25.25,0,0,0,.16-.1.29.29,0,0,0,.06-.19v-.63Z"/><path class="cls-15" d="M41.74,10.84h.83v1h-.83Zm.67.9V11h-.5v.77Z"/><path class="cls-15" d="M43,11h-.19v-.13h.36v.58H43Z"/><path class="cls-15" d="M43.42,11h-.07v-.12h.5V11h-.27l.15.91h-.17Z"/><path class="cls-15" d="M44.13,11H44v-.13h.28v1h-.16Z"/><path class="cls-15" d="M44.66,11h-.12v-.13h.29v1h-.17Z"/><path class="cls-15" d="M45.58,11.15a.17.17,0,0,0-.19-.18H45v-.13h.36a.48.48,0,0,1,.18,0,.34.34,0,0,1,.12.12.31.31,0,0,1,0,.17v.72h-.16Z"/><path class="cls-15" d="M46.78,11.75v.13h-.85v-.14h.56v-.52a.22.22,0,0,0-.25-.25H46v-.13h.27a.45.45,0,0,1,.3.09.41.41,0,0,1,.11.3v.51Z"/><path class="cls-15" d="M47.44,10.84h.83v1h-.83Zm.66.9V11h-.5v.77Z"/><path class="cls-15" d="M48.67,11h-.19v-.13h.35v.58h-.16Z"/><path class="cls-15" d="M49.86,10.84v.62a.48.48,0,0,1-.06.24.46.46,0,0,1-.16.15.6.6,0,0,1-.24.05,1.27,1.27,0,0,1-.37-.07l0-.13a1.08,1.08,0,0,0,.27.07.37.37,0,0,1-.08-.18l-.18-.75h.17l.17.76a.64.64,0,0,0,0,.09l0,.07a.27.27,0,0,0,.17-.1.29.29,0,0,0,.06-.19v-.63Z"/><path class="cls-15" d="M50.07,11.87v-.12h.13a.18.18,0,0,0,.11,0,.23.23,0,0,0,0-.13V11h-.2v-.13h.37v.76a.34.34,0,0,1-.07.22.28.28,0,0,1-.21.07A.52.52,0,0,1,50.07,11.87Z"/><path class="cls-15" d="M51.36,12a.53.53,0,0,1-.12.14l-.09-.06a.75.75,0,0,0,.07-.12.59.59,0,0,0,0-.13v-.14h.16v.13A.39.39,0,0,1,51.36,12Z"/><path class="cls-15" d="M52.37,10.84V11h-.18v.91H52V11h-.49v-.13Z"/><path class="cls-15" d="M52.66,11h-.19v-.13h.36v.58h-.17Z"/><path class="cls-15" d="M53.56,11.15a.17.17,0,0,0-.05-.13.16.16,0,0,0-.14,0H53v-.13h.36a.48.48,0,0,1,.18,0,.23.23,0,0,1,.12.12.31.31,0,0,1,0,.17v.72h-.16Z"/><path class="cls-15" d="M54.1,11h-.19v-.13h.35v.58H54.1Z"/><path class="cls-15" d="M55.17,11.22a.25.25,0,0,0-.06-.19.28.28,0,0,0-.2-.06h-.37v-.13h.38a.46.46,0,0,1,.31.09.41.41,0,0,1,.11.3v.65h-.17Zm-.63.3a.53.53,0,0,1,0-.13l0-.09h.14s0,.06,0,.09v.49h-.16Z"/><path class="cls-15" d="M56.12,11H56v-.13h.29v1.4h-.16Z"/><path class="cls-15" d="M56.51,11.84l0-.12a.77.77,0,0,0,.25,0,.29.29,0,0,0,.22-.07.29.29,0,0,0,.08-.21V11h-.54v-.13h.7v.61a.4.4,0,0,1-.44.44A.86.86,0,0,1,56.51,11.84Z"/><path class="cls-15" d="M57.62,11H57.5v-.13h.29v1h-.17Z"/><path class="cls-15" d="M58.83,10.84V11h-.17v.91h-.17V11H58v-.13Z"/><path class="cls-15" d="M59.91,11H59.4v-.13h.68v1.4h-.17Z"/><path class="cls-15" d="M60.44,11h-.12v-.13h.29v1h-.17Z"/><path class="cls-15" d="M61.66,10.93a.4.4,0,0,1,.1.3v.65H61.6v-.66a.25.25,0,0,0-.06-.19.24.24,0,0,0-.18-.06h-.15a.33.33,0,0,0-.05.12.77.77,0,0,0,0,.15v.35a.34.34,0,0,1-.06.22.28.28,0,0,1-.2.08h-.1v-.13h.06a.12.12,0,0,0,.11,0,.23.23,0,0,0,0-.13v-.32a1,1,0,0,1,0-.17.67.67,0,0,1,.06-.12h-.19v-.13h.48A.46.46,0,0,1,61.66,10.93Z"/><path class="cls-15" d="M62.81,11.75v.13H62v-.14h.57v-.52a.25.25,0,0,0-.06-.19.28.28,0,0,0-.2-.06H62v-.13h.26a.46.46,0,0,1,.31.09.4.4,0,0,1,.1.3v.51Z"/><g class="cls-16"><g class="cls-17"><path d="M50.41,16h-3.9L47,15.5a.16.16,0,0,0-.22-.22L46,16a.14.14,0,0,0,0,.22l.73.73a.16.16,0,0,0,.11.05A.21.21,0,0,0,47,17a.16.16,0,0,0,0-.22l-.47-.47h3.9a.15.15,0,0,0,.16-.15.16.16,0,0,0-.16-.16Z"/><path class="cls-18" d="M50.41,16h-3.9L47,15.5a.16.16,0,0,0-.22-.22L46,16a.14.14,0,0,0,0,.22l.73.73a.16.16,0,0,0,.11.05A.21.21,0,0,0,47,17a.16.16,0,0,0,0-.22l-.47-.47h3.9a.15.15,0,0,0,.16-.15.16.16,0,0,0-.16-.16Z"/></g></g><g class="cls-19"><g class="cls-20"><path d="M29.47,15.94h-3.9l.46-.46a.16.16,0,1,0-.22-.22l-.73.73a.16.16,0,0,0,0,.22l.73.73a.15.15,0,0,0,.22,0,.16.16,0,0,0,0-.22l-.46-.46h3.9a.16.16,0,0,0,0-.32Z"/><path class="cls-18" d="M29.47,16h-3.9L26,15.5a.16.16,0,1,0-.22-.22l-.73.74a.16.16,0,0,0,0,.22l.73.73A.17.17,0,0,0,26,17a.16.16,0,0,0,0-.22l-.46-.47h3.9a.14.14,0,0,0,.15-.15.15.15,0,0,0-.15-.16Z"/></g></g><path class="cls-15" d="M56.45,15h1.27v1.54H56.45Zm.94,1.28v-1h-.61v1Z"/><path class="cls-15" d="M58.27,15.25H58V15h.59v.87h-.33Z"/><path class="cls-15" d="M59,16a.47.47,0,0,1,0-.19.31.31,0,0,1,.06-.13h.26a1.15,1.15,0,0,0,0,.3v.55H59Zm.91-.45a.32.32,0,0,0-.07-.23.38.38,0,0,0-.24-.07H59V15h.62a.63.63,0,0,1,.45.15.54.54,0,0,1,.16.42v1h-.33Z"/><path class="cls-15" d="M60.59,15.26l-.09,0V15h.8v.26h-.39l.21,1.28h-.34Z"/><path class="cls-15" d="M61.7,15.61a.6.6,0,0,1,.06-.19.36.36,0,0,1,.1-.15l0,0h0l-.13,0-.14,0-.07-.24a2.37,2.37,0,0,1,.34-.09l.37,0a.7.7,0,0,1,.5.17.73.73,0,0,1,.18.51v.89h-.66v-.26h.33V15.6a.41.41,0,0,0-.08-.27.27.27,0,0,0-.41,0,.73.73,0,0,0-.09.25l-.1,1H61.6Z"/><path class="cls-15" d="M51.34,18.5a.23.23,0,0,0-.05-.16.22.22,0,0,0-.17-.06H50.8v-.11h.33a.36.36,0,0,1,.26.09.32.32,0,0,1,.09.25v.55h-.14Zm-.54.26a.31.31,0,0,1,0-.11l0-.08H51a.19.19,0,0,0,0,.08v.41H50.8Z"/><path class="cls-15" d="M51.79,18.49a.36.36,0,0,1,0-.11.35.35,0,0,1,.06-.09h0l-.09,0-.09,0,0-.11.19,0,.2,0a.41.41,0,0,1,.28.1.39.39,0,0,1,.09.28v.53H52.1V19h.22v-.44a.35.35,0,0,0,0-.18.21.21,0,0,0-.16-.06.14.14,0,0,0-.12.06.34.34,0,0,0-.06.15l-.07.58h-.14Z"/><path class="cls-15" d="M52.78,18.28h-.16v-.11h.3v.5h-.14Z"/><path class="cls-15" d="M53.67,18.67l.28.39H53.8l-.4-.55a.21.21,0,0,0-.08.18v.37h-.13v-.32a.36.36,0,0,1,0-.19.19.19,0,0,1,.12-.11l-.2-.27h.16l.28.38.21-.38H54Z"/><path class="cls-15" d="M54.79,18.26a.32.32,0,0,1,.09.25v.55h-.14V18.5a.23.23,0,0,0-.05-.16.2.2,0,0,0-.16-.06h-.12a.21.21,0,0,0,0,.11.51.51,0,0,0,0,.13v.3a.24.24,0,0,1-.06.18.19.19,0,0,1-.17.07H54V19h.05a.12.12,0,0,0,.09,0,.18.18,0,0,0,0-.11v-.28a.68.68,0,0,1,0-.14.37.37,0,0,1,.05-.11h-.16v-.11h.41A.34.34,0,0,1,54.79,18.26Z"/><path class="cls-15" d="M55.19,18.49a.36.36,0,0,1,0-.11.2.2,0,0,1,.06-.09h0l-.08,0-.09,0,0-.11.2,0,.2,0a.37.37,0,0,1,.27.1.36.36,0,0,1,.1.28v.53h-.37V19h.23v-.44a.28.28,0,0,0-.06-.18.18.18,0,0,0-.15-.06.14.14,0,0,0-.12.06.34.34,0,0,0-.06.15l-.07.58h-.14Z"/><path class="cls-15" d="M57,18.5a.23.23,0,0,0,0-.16.22.22,0,0,0-.17-.06h-.32v-.11h.33a.36.36,0,0,1,.26.09.32.32,0,0,1,.09.25v.55H57Zm-.54.26a.31.31,0,0,1,0-.11.26.26,0,0,1,0-.08h.11s0,.05,0,.08,0,.06,0,.1v.31h-.13Z"/><path class="cls-15" d="M58,19v.11h-.73V19h.48V18.5a.23.23,0,0,0,0-.16.21.21,0,0,0-.17-.06h-.21v-.11h.22a.34.34,0,0,1,.26.09.32.32,0,0,1,.09.25v.43Z"/><path class="cls-15" d="M58.25,18.28h-.1v-.11h.24v.89h-.14Z"/><path class="cls-15" d="M58.8,18.9,59,19l.16,0a.58.58,0,0,0,.19,0,.34.34,0,0,0,.13-.1.21.21,0,0,0,0-.16v-.51h.14v.53a.31.31,0,0,1-.07.21.35.35,0,0,1-.18.13.71.71,0,0,1-.26,0,.83.83,0,0,1-.22,0,.81.81,0,0,1-.22-.07v-.81h.13Zm.26-.17a.41.41,0,0,0,0-.12v-.44h.14v.42a.51.51,0,0,1,0,.13.21.21,0,0,1-.06.1H59A.29.29,0,0,0,59.06,18.73Z"/><path class="cls-15" d="M60.52,18.26a.32.32,0,0,1,.08.25v.55h-.14V18.5a.24.24,0,0,0,0-.16.21.21,0,0,0-.16-.06h-.13a.36.36,0,0,0,0,.11.53.53,0,0,0,0,.13v.3A.24.24,0,0,1,60,19a.21.21,0,0,1-.17.07h-.09V19h.05a.13.13,0,0,0,.1,0,.18.18,0,0,0,0-.11v-.28a.68.68,0,0,1,0-.14.37.37,0,0,1,0-.11h-.17v-.11h.41A.37.37,0,0,1,60.52,18.26Z"/><path class="cls-15" d="M61.73,18.67l.29.39h-.16l-.4-.55a.21.21,0,0,0-.08.18v.37h-.13v-.32a.36.36,0,0,1,0-.19.19.19,0,0,1,.12-.11l-.19-.27h.15l.28.38.21-.38H62Z"/><path class="cls-15" d="M62.36,18.9l.16.05.15,0a.58.58,0,0,0,.19,0,.5.5,0,0,0,.14-.1.25.25,0,0,0,0-.16v-.51h.14v.53a.31.31,0,0,1-.07.21.35.35,0,0,1-.18.13.66.66,0,0,1-.25,0,.91.91,0,0,1-.23,0,.81.81,0,0,1-.22-.07v-.81h.13Zm.26-.17a.41.41,0,0,0,0-.12v-.44h.14v.42a.51.51,0,0,1,0,.13.21.21,0,0,1-.06.1h-.11A.15.15,0,0,0,62.62,18.73Z"/><path class="cls-15" d="M63.5,18.28h-.11v-.11h.25v.89H63.5Z"/><path class="cls-15" d="M63.82,19.06V19h.11a.1.1,0,0,0,.09,0,.16.16,0,0,0,0-.11v-.53h-.17v-.11h.31v.65c0,.09,0,.15-.06.19a.22.22,0,0,1-.17.06Z"/><path class="cls-15" d="M65,18.5a.19.19,0,0,0,0-.16.21.21,0,0,0-.17-.06h-.32v-.11h.33a.34.34,0,0,1,.26.09.32.32,0,0,1,.09.25v.55H65Zm-.54.26c0-.05,0-.09,0-.11l0-.08h.12s0,.05,0,.08v.41h-.14Z"/><path class="cls-15" d="M65.74,18.29h-.06v-.11h.43v.11h-.23l.13.78h-.15Z"/><path class="cls-15" d="M66.34,18.28h-.1v-.11h.24v.89h-.14Z"/><path class="cls-15" d="M66.8,18.28h-.1v-.11h.24v.89H66.8Z"/><path class="cls-15" d="M67.58,18.44a.12.12,0,0,0,0-.11.17.17,0,0,0-.12,0h-.3v-.11h.3a.35.35,0,0,1,.16,0,.29.29,0,0,1,.14.25v.61h-.14Z"/><path class="cls-15" d="M68.61,19v.11h-.73V19h.48V18.5a.23.23,0,0,0,0-.16.21.21,0,0,0-.17-.06h-.21v-.11h.22a.34.34,0,0,1,.26.09.32.32,0,0,1,.09.25v.43Z"/><path class="cls-15" d="M52.44,20.46h-.1v-.11h.24v1.2h-.14Z"/><path class="cls-15" d="M52.78,21.21l0-.1.21,0a.25.25,0,0,0,.19-.06.21.21,0,0,0,.07-.18v-.44h-.46v-.11h.6v.52a.38.38,0,0,1-.1.29.41.41,0,0,1-.28.09A.77.77,0,0,1,52.78,21.21Z"/><path class="cls-15" d="M53.72,20.46h-.1v-.11h.24v.89h-.14Z"/><path class="cls-15" d="M54.76,20.35v.11h-.15v.78h-.14v-.78h-.42v-.11Z"/><path class="cls-15" d="M55.46,20.68a.21.21,0,0,0-.22-.22h-.32v-.11h.32a.37.37,0,0,1,.27.09.32.32,0,0,1,.09.25v.55h-.14Zm-.54.26a.31.31,0,0,1,0-.11.13.13,0,0,1,0-.08h.11a.19.19,0,0,0,0,.08.28.28,0,0,0,0,.1v.31h-.13Z"/><path class="cls-15" d="M56.4,21.21a.37.37,0,0,1-.13-.12.41.41,0,0,1,0-.19v-.55h.14v.56a.21.21,0,0,0,0,.12.11.11,0,0,0,.07.08.21.21,0,0,0,.11,0,.25.25,0,0,0,.12,0s0,0,.07-.08a.21.21,0,0,0,0-.12v-.3a.18.18,0,0,0,0-.11.11.11,0,0,0-.09,0,.23.23,0,0,0-.11,0l0-.09.09,0,.09,0a.2.2,0,0,1,.11,0,.18.18,0,0,1,.08.09.32.32,0,0,1,0,.14v.3a.41.41,0,0,1,0,.19.34.34,0,0,1-.12.12.38.38,0,0,1-.19.05A.35.35,0,0,1,56.4,21.21Z"/><path class="cls-15" d="M57.22,20.46h-.1v-.11h.24v.89h-.14Z"/><path class="cls-15" d="M58.24,20.44l-.33.8h-.15l.32-.78h-.52v-.38h.14v.27h.54Z"/><path class="cls-15" d="M58.5,20.46h-.17v-.11h.31v.5H58.5Z"/><path class="cls-15" d="M59,21.08l.15.05.15,0a.6.6,0,0,0,.2,0,.27.27,0,0,0,.13-.1.21.21,0,0,0,.05-.16v-.51h.14v.53a.38.38,0,0,1-.07.21.46.46,0,0,1-.18.13.71.71,0,0,1-.26,0,.83.83,0,0,1-.22,0,.88.88,0,0,1-.23-.07v-.81H59Zm.26-.17a.41.41,0,0,0,0-.12v-.44h.14v.42a.51.51,0,0,1,0,.13.21.21,0,0,1-.06.1h-.12A.16.16,0,0,0,59.29,20.91Z"/><path class="cls-15" d="M60.76,21.13v.11H60v-.11h.48v-.45a.19.19,0,0,0,0-.16.21.21,0,0,0-.17-.06h-.21v-.11h.22a.34.34,0,0,1,.26.09.32.32,0,0,1,.09.25v.43Z"/><path class="cls-15" d="M61.83,20.68a.23.23,0,0,0,0-.16.22.22,0,0,0-.17-.06h-.32v-.11h.33a.36.36,0,0,1,.26.09.32.32,0,0,1,.09.25v.55h-.14Zm-.54.26a.31.31,0,0,1,0-.11l0-.08h.12a.19.19,0,0,0,0,.08v.41h-.14Z"/><path class="cls-15" d="M62.29,20.46h-.16v-.11h.3v.5h-.14Z"/><path class="cls-15" d="M63.05,20.62a.12.12,0,0,0,0-.11.16.16,0,0,0-.11-.05h-.3v-.11h.3a.29.29,0,0,1,.16,0,.22.22,0,0,1,.1.09.33.33,0,0,1,0,.15v.61h-.14Z"/><path class="cls-15" d="M63.49,20.46h-.11v-.11h.25v.89h-.14Z"/><path class="cls-15" d="M63.78,21.24v-.13h0a.33.33,0,0,0,.18-.07.35.35,0,0,0,.09-.16v-.43h-.2v-.11h.33v.46a.68.68,0,0,0,0,.14l.06.29h-.13l0-.25h0a.29.29,0,0,1,0,.13.24.24,0,0,1-.11.09.29.29,0,0,1-.14,0Z"/><path class="cls-15" d="M64.67,21.21a.3.3,0,0,1-.13-.12.41.41,0,0,1,0-.19v-.55h.14v.56a.37.37,0,0,0,0,.12.15.15,0,0,0,.08.08.17.17,0,0,0,.22,0s.06,0,.08-.08a.21.21,0,0,0,0-.12v-.3a.14.14,0,0,0,0-.11.1.1,0,0,0-.09,0l-.11,0,0-.09.09,0,.08,0a.21.21,0,0,1,.12,0,.18.18,0,0,1,.08.09.32.32,0,0,1,0,.14v.3a.41.41,0,0,1,0,.19.34.34,0,0,1-.12.12.41.41,0,0,1-.19.05A.35.35,0,0,1,64.67,21.21Z"/><path class="cls-15" d="M65.75,21.13a.28.28,0,0,0,.13,0A.26.26,0,0,0,66,21a.28.28,0,0,0,0-.13v-.42h-.55v-.11h.69v.52a.42.42,0,0,1,0,.2.33.33,0,0,1-.14.12.42.42,0,0,1-.2,0Zm-.29-.22a.31.31,0,0,1,0-.11.24.24,0,0,1,0-.08h.12s0,.05,0,.08v.75h-.14Z"/><path class="cls-15" d="M67,20.44l-.33.8h-.15l.33-.78h-.53v-.38h.14v.27H67Z"/><path class="cls-15" d="M33.28,15H34.5v1.48H33.28Zm.9,1.23v-1H33.6v1Z"/><path class="cls-15" d="M35,15.21h-.25V15h.56v.84H35Z"/><path class="cls-15" d="M35.74,16.45l-.13,0v-.24l.18,0a.17.17,0,0,0,.14-.06A.23.23,0,0,0,36,16v-.78H35.7V15h.59V16a.49.49,0,0,1-.11.33.43.43,0,0,1-.31.11Z"/><path class="cls-15" d="M36.76,15.21h-.15V15h.46v1.48h-.31Z"/><path class="cls-15" d="M37.54,15.21H37.4V15h.46v1.48h-.32Z"/><path class="cls-15" d="M38.16,16.4l.05-.23a1.48,1.48,0,0,0,.34,0,.38.38,0,0,0,.28-.09.31.31,0,0,0,.1-.26v-.65h-.72V15h1v.84a.67.67,0,0,1-.17.5.74.74,0,0,1-.49.16A1.76,1.76,0,0,1,38.16,16.4Z"/><path class="cls-15" d="M39.76,15.56a1.05,1.05,0,0,1,.05-.19.39.39,0,0,1,.1-.14l0,0h0l-.13,0-.13,0-.07-.23a1.59,1.59,0,0,1,.33-.09l.35,0a.59.59,0,0,1,.65.65v.86H40.3v-.25h.32v-.65a.4.4,0,0,0-.08-.26.26.26,0,0,0-.21-.09.23.23,0,0,0-.18.09.48.48,0,0,0-.08.24l-.1.92h-.31Z"/><path class="cls-15" d="M31.44,18.21a.37.37,0,0,1,.08.25V19h-.14v-.55c0-.08,0-.14-.05-.17a.22.22,0,0,0-.16-.05h-.12a.23.23,0,0,0,0,.1.59.59,0,0,0,0,.13v.3a.29.29,0,0,1,0,.19.24.24,0,0,1-.17.06h-.09V18.9h.05a.13.13,0,0,0,.1,0,.16.16,0,0,0,0-.11v-.28a.3.3,0,0,1,0-.13.16.16,0,0,1,.05-.11h-.17v-.11h.41A.36.36,0,0,1,31.44,18.21Z"/><path class="cls-15" d="M31.82,18.24h-.11v-.11H32V19h-.14Z"/><path class="cls-15" d="M32.85,18.13v.53a.39.39,0,0,1-.05.2.29.29,0,0,1-.14.13.46.46,0,0,1-.21,0,.89.89,0,0,1-.31-.06l0-.1a.79.79,0,0,0,.24.05.36.36,0,0,1-.08-.15l-.14-.64h.14l.14.65s0,.06,0,.08l0,.06a.25.25,0,0,0,.19-.26v-.53Z"/><path class="cls-15" d="M33.51,18.6l.23.34V19h-.66V18.9h.48L33,18.13h.16l.23.35.2-.35h.16Z"/><path class="cls-15" d="M34,18.45a.27.27,0,0,1,0-.12l.06-.08h-.07l-.09,0,0-.1.19-.05.2,0a.32.32,0,0,1,.37.37V19h-.36V18.9h.22v-.43a.24.24,0,0,0,0-.18.2.2,0,0,0-.15-.06.17.17,0,0,0-.13.05.34.34,0,0,0-.06.15L34.1,19H34Z"/><path class="cls-15" d="M35.44,18.62l.28.39h-.16l-.39-.54a.19.19,0,0,0-.08.17V19H35v-.32a.49.49,0,0,1,0-.19.32.32,0,0,1,.12-.11l-.19-.26h.16l.27.37.22-.37h.16Z"/><path class="cls-15" d="M36.57,18.91V19h-.73V18.9h.49v-.44a.21.21,0,0,0-.06-.17.19.19,0,0,0-.16-.05h-.22v-.11h.22a.36.36,0,0,1,.27.08.33.33,0,0,1,.08.25v.43Z"/><path class="cls-15" d="M37.76,18.21a.37.37,0,0,1,.08.25V19H37.7v-.55c0-.08,0-.14-.05-.17a.22.22,0,0,0-.16-.05h-.12a.23.23,0,0,0,0,.1.59.59,0,0,0,0,.13v.3a.36.36,0,0,1-.05.19.24.24,0,0,1-.17.06H37V18.9h0a.13.13,0,0,0,.1,0,.16.16,0,0,0,0-.11v-.28a.3.3,0,0,1,0-.13.23.23,0,0,1,0-.11h-.16v-.11h.41A.36.36,0,0,1,37.76,18.21Z"/><path class="cls-15" d="M38,19V18.9h.11a.12.12,0,0,0,.09,0,.18.18,0,0,0,0-.11v-.53h-.17v-.11h.31v.65a.24.24,0,0,1-.06.18.21.21,0,0,1-.17.07Z"/><path class="cls-15" d="M38.69,18.24h-.1v-.11h.24V19h-.14Z"/><path class="cls-15" d="M39.15,18.24h-.1v-.11h.24V19h-.14Z"/><path class="cls-15" d="M39.49,19l0-.11.21,0a.25.25,0,0,0,.19-.06.21.21,0,0,0,.07-.17v-.44h-.46v-.11h.6v.52a.36.36,0,0,1-.1.28.41.41,0,0,1-.28.1A1.18,1.18,0,0,1,39.49,19Z"/><path class="cls-15" d="M40.91,18.46a.25.25,0,0,0,0-.17.22.22,0,0,0-.17-.05h-.32v-.11h.33a.35.35,0,0,1,.26.08.33.33,0,0,1,.09.25V19h-.14Zm-.54.25a.34.34,0,0,1,0-.11.41.41,0,0,1,0-.08h.11s0,.05,0,.08,0,.06,0,.1V19h-.13Z"/><path class="cls-15" d="M42.31,18.21a.33.33,0,0,1,.08.25V19h-.14v-.55c0-.08,0-.14,0-.17a.21.21,0,0,0-.15-.05h-.13a.23.23,0,0,0,0,.1.57.57,0,0,0,0,.13v.3a.29.29,0,0,1-.06.19.24.24,0,0,1-.17.06h-.09V18.9h.05a.13.13,0,0,0,.1,0,.16.16,0,0,0,0-.11v-.28a.3.3,0,0,1,0-.13.23.23,0,0,1,0-.11h-.17v-.11H42A.36.36,0,0,1,42.31,18.21Z"/><path class="cls-15" d="M43.14,18.62l.28.39h-.15l-.4-.54a.19.19,0,0,0-.08.17V19h-.14v-.32a.49.49,0,0,1,0-.19.28.28,0,0,1,.13-.11l-.2-.26h.16l.28.37.21-.37h.16Z"/><path class="cls-15" d="M33.82,20.55a.14.14,0,0,0,0-.11.12.12,0,0,0-.11,0h-.3v-.12h.3a.27.27,0,0,1,.16,0,.22.22,0,0,1,.1.09.37.37,0,0,1,0,.15v.61h-.14Z"/><path class="cls-15" d="M34.85,21.06v.11h-.73v-.11h.48v-.45a.23.23,0,0,0-.05-.16.22.22,0,0,0-.17-.05h-.21v-.12h.22a.36.36,0,0,1,.26.09.32.32,0,0,1,.09.25v.43Z"/><path class="cls-15" d="M35,21.15,35,21l.21,0a.27.27,0,0,0,.19-.06.21.21,0,0,0,.07-.17V20.4H35v-.12h.6v.52a.42.42,0,0,1-.1.29.41.41,0,0,1-.28.09Z"/><path class="cls-15" d="M36.47,20.28v.54a.42.42,0,0,1,0,.2.29.29,0,0,1-.14.13.45.45,0,0,1-.2,0,.91.91,0,0,1-.32-.06l0-.11a.6.6,0,0,0,.24.06.26.26,0,0,1-.07-.15l-.15-.65H36l.14.66a.31.31,0,0,1,0,.08l0,.05a.22.22,0,0,0,.14-.08.29.29,0,0,0,0-.17v-.54Z"/><path class="cls-15" d="M37.26,20.61a.23.23,0,0,0,0-.16A.22.22,0,0,0,37,20.4h-.32v-.12h.33a.36.36,0,0,1,.26.09.32.32,0,0,1,.09.25v.55h-.14Zm-.54.26a.34.34,0,0,1,0-.11l0-.08h.11s0,.05,0,.08v.41h-.14Z"/><path class="cls-15" d="M38.66,20.37a.32.32,0,0,1,.09.25v.55h-.14v-.55a.25.25,0,0,0,0-.17.21.21,0,0,0-.16-.05h-.13a.23.23,0,0,0,0,.1.57.57,0,0,0,0,.13v.3a.29.29,0,0,1-.06.19.24.24,0,0,1-.17.06H37.9v-.11H38a.12.12,0,0,0,.09,0,.16.16,0,0,0,0-.11v-.28a.59.59,0,0,1,0-.13.23.23,0,0,1,0-.11H38v-.12h.41A.37.37,0,0,1,38.66,20.37Z"/><path class="cls-15" d="M39,20.4h-.06v-.11h.43v.12h-.23l.12.77H39.1Z"/><path class="cls-15" d="M39.52,20.4h-.06v-.11h.43v.12h-.23l.13.77h-.14Z"/><path class="cls-15" d="M40.6,20.61a.19.19,0,0,0-.05-.16s-.09-.05-.17-.05h-.32v-.12h.33a.34.34,0,0,1,.26.09.32.32,0,0,1,.09.25v.55H40.6Zm-.54.26c0-.05,0-.08,0-.11l0-.08h.12s0,.05,0,.08v.41h-.14Z"/><path class="cls-15" d="M12.21,15h1.21v1.48H12.21Zm.9,1.23v-1h-.59v1Z"/><path class="cls-15" d="M14,15.21H13.7V15h.57v.84H14Z"/><path class="cls-15" d="M15.71,15.16l-.51,1.28h-.33l.5-1.23h-.82v-.67h.31V15h.85Z"/><path class="cls-15" d="M16.12,15.21h-.25V15h.56v.84h-.31Z"/><path class="cls-15" d="M17.11,16.44a1.1,1.1,0,0,1-.26-.06l.06-.23.23.05h.21a.44.44,0,0,0,.29-.09.35.35,0,0,0,.1-.26v-.65h-.51a.75.75,0,0,0-.05.16.88.88,0,0,0,0,.17v.09l.16,0v.23h-.11a.54.54,0,0,1-.19,0,.44.44,0,0,1-.16-.06v-.16a1,1,0,0,1,0-.24.68.68,0,0,1,.08-.19h-.17V15h1.26v.85a.7.7,0,0,1-.09.37.43.43,0,0,1-.23.21.83.83,0,0,1-.36.08Z"/><path class="cls-15" d="M18.57,15.56a1.05,1.05,0,0,1,.05-.19.39.39,0,0,1,.1-.14l0,0h0l-.13,0-.13,0-.07-.23a1.59,1.59,0,0,1,.33-.09l.35,0a.59.59,0,0,1,.65.65v.86h-.63v-.25h.31v-.65a.4.4,0,0,0-.07-.26.26.26,0,0,0-.21-.09.23.23,0,0,0-.18.09.6.6,0,0,0-.09.24l-.09.92h-.31Z"/><path class="cls-15" d="M10.14,18.23l-.32.8H9.67l.32-.77H9.47v-.39h.14v.27h.53Z"/><path class="cls-15" d="M11,18.14v.54a.42.42,0,0,1-.05.2.35.35,0,0,1-.14.13.46.46,0,0,1-.21,0,1,1,0,0,1-.32-.06l0-.11a.56.56,0,0,0,.23.06.35.35,0,0,1-.07-.15l-.15-.65h.14l.15.66a.19.19,0,0,0,0,.08.08.08,0,0,0,0,.05.22.22,0,0,0,.14-.08.24.24,0,0,0,.06-.17v-.54Z"/><path class="cls-15" d="M12.13,18.47a.2.2,0,0,0-.06-.16.19.19,0,0,0-.16,0h-.33v-.12h.33a.37.37,0,0,1,.27.09.32.32,0,0,1,.09.25V19h-.14Zm-.54.26a.34.34,0,0,1,0-.11.13.13,0,0,1,0-.08h.11a.19.19,0,0,0,0,.08.31.31,0,0,0,0,.1V19h-.13Z"/><path class="cls-15" d="M12.9,18.62l.24.34V19h-.66v-.11H13l-.53-.78h.15l.24.36.2-.36h.15Z"/><path class="cls-15" d="M13.43,18.26h-.16v-.12h.3v.5h-.14Z"/><path class="cls-15" d="M13.83,18.14h.33a.33.33,0,0,1,.26.09.32.32,0,0,1,.09.25V19h-.14v-.55a.25.25,0,0,0,0-.17.19.19,0,0,0-.16,0H14V19h-.13Z"/><path class="cls-15" d="M15.36,18.23,15,19h-.15l.32-.77h-.52v-.39h.14v.27h.53Z"/><path class="cls-15" d="M16.19,18.92V19h-.73v-.11H16v-.45a.23.23,0,0,0,0-.16.22.22,0,0,0-.17,0h-.22v-.12h.23a.36.36,0,0,1,.26.09.32.32,0,0,1,.09.25v.43Z"/><path class="cls-15" d="M16.73,18.26h-.06v-.11h.43v.12h-.23L17,19h-.15Z"/><path class="cls-15" d="M17.34,18.26h-.1v-.12h.24V19h-.14Z"/><path class="cls-15" d="M17.79,18.26h-.1v-.12h.24V19h-.14Z"/><path class="cls-15" d="M18.57,18.41a.14.14,0,0,0,0-.11.16.16,0,0,0-.12,0h-.29v-.12h.3a.29.29,0,0,1,.16,0,.28.28,0,0,1,.1.09.33.33,0,0,1,0,.15V19h-.14Z"/><path class="cls-15" d="M19.6,18.92V19h-.73v-.11h.49v-.45a.2.2,0,0,0-.06-.16.19.19,0,0,0-.16,0h-.22v-.12h.22a.37.37,0,0,1,.27.09.32.32,0,0,1,.08.25v.43Z"/><path class="cls-15" d="M20.29,18.47a.19.19,0,0,0-.05-.16s-.09,0-.17,0h-.32v-.12h.33a.34.34,0,0,1,.26.09.32.32,0,0,1,.09.25V19h-.14Zm-.54.26c0-.05,0-.08,0-.11l0-.08h.12s0,.05,0,.08V19h-.14Z"/><path class="cls-15" d="M21.69,18.23a.32.32,0,0,1,.09.25V19h-.14v-.55a.25.25,0,0,0-.05-.17.19.19,0,0,0-.16,0H21.3a.51.51,0,0,0,0,.1.57.57,0,0,0,0,.13v.3a.29.29,0,0,1-.06.19A.22.22,0,0,1,21,19h-.08v-.11h0a.12.12,0,0,0,.09,0,.16.16,0,0,0,0-.11V18.5a.59.59,0,0,1,0-.13.23.23,0,0,1,.05-.11H21v-.12h.42A.34.34,0,0,1,21.69,18.23Z"/><path class="cls-15" d="M22.53,18.64l.28.39h-.16l-.39-.54a.17.17,0,0,0-.08.17V19H22v-.32a.36.36,0,0,1,0-.19.32.32,0,0,1,.12-.11L22,18.14h.16l.27.38.21-.38h.16Z"/><path class="cls-15" d="M9.41,20.4H9.25v-.11h.3v.49H9.41Z"/><path class="cls-15" d="M10.41,20.37l-.32.8H9.94l.32-.77H9.74V20h.14v.27h.53Z"/><path class="cls-15" d="M11.1,20.78l.28.39h-.15l-.4-.54a.19.19,0,0,0-.08.17v.37h-.13v-.32a.5.5,0,0,1,0-.19.28.28,0,0,1,.13-.11l-.2-.26h.16l.28.37.21-.37h.16Z"/><path class="cls-15" d="M11.66,20.61a.27.27,0,0,1,0-.12l.06-.08h0l-.09,0-.09,0,0-.1.19-.05.2,0a.39.39,0,0,1,.28.09.41.41,0,0,1,.09.28v.53H12v-.11h.22v-.43a.24.24,0,0,0,0-.18.19.19,0,0,0-.15-.06.17.17,0,0,0-.13.05.34.34,0,0,0-.06.16l-.06.57h-.14Z"/><path class="cls-15" d="M12.71,21a.82.82,0,0,0,.3.07.6.6,0,0,0,.2,0,.26.26,0,0,0,.13-.1.25.25,0,0,0,.05-.15v-.51h.14v.52a.38.38,0,0,1-.07.21.46.46,0,0,1-.18.13.71.71,0,0,1-.26,0l-.23,0-.22-.08v-.8h.14Zm.25-.16a.5.5,0,0,0,0-.12v-.44h.14v.41a.59.59,0,0,1,0,.14.7.7,0,0,1-.06.09h-.12A.12.12,0,0,0,13,20.85Z"/><path class="cls-15" d="M14.31,20.62c0-.08,0-.14-.05-.17a.19.19,0,0,0-.16-.05h-.33v-.11h.33a.36.36,0,0,1,.27.08.33.33,0,0,1,.09.25v.55h-.15Zm-.53.25a.34.34,0,0,1,0-.11.13.13,0,0,1,0-.08h.11a.22.22,0,0,0,0,.08.31.31,0,0,0,0,.1v.31h-.13Z"/><path class="cls-15" d="M15.46,20.55a.16.16,0,0,0-.05-.11.14.14,0,0,0-.11,0H15v-.11h.3a.41.41,0,0,1,.16,0,.22.22,0,0,1,.1.09.4.4,0,0,1,0,.15v.61h-.13Z"/><path class="cls-15" d="M16.48,21.07v.1h-.72v-.11h.48v-.44a.25.25,0,0,0,0-.17A.22.22,0,0,0,16,20.4H15.8v-.11H16a.35.35,0,0,1,.26.08.33.33,0,0,1,.09.25v.43Z"/><path class="cls-15" d="M16.58,21.15l0-.11.21,0A.27.27,0,0,0,17,21a.24.24,0,0,0,.07-.17V20.4h-.47v-.11h.61v.52a.4.4,0,0,1-.1.28.43.43,0,0,1-.28.1A1.38,1.38,0,0,1,16.58,21.15Z"/><path class="cls-15" d="M18.11,20.29v.53a.39.39,0,0,1-.05.2.29.29,0,0,1-.14.13.46.46,0,0,1-.21,0,.89.89,0,0,1-.31-.06l0-.1a.79.79,0,0,0,.24,0,.36.36,0,0,1-.08-.15l-.14-.64h.14l.14.65s0,.06,0,.08l0,.06a.34.34,0,0,0,.14-.09.29.29,0,0,0,0-.17v-.53Z"/><path class="cls-15" d="M18.9,20.62a.25.25,0,0,0,0-.17.22.22,0,0,0-.17-.05h-.32v-.11h.33a.35.35,0,0,1,.26.08.33.33,0,0,1,.09.25v.55H18.9Zm-.54.25a.34.34,0,0,1,0-.11l0-.08h.11s0,.05,0,.08,0,.06,0,.1v.31h-.13Z"/><path class="cls-15" d="M19.81,21a.44.44,0,0,0,.15,0,.39.39,0,0,0,.15,0,.54.54,0,0,0,.19,0,.27.27,0,0,0,.19-.25v-.51h.13v.52a.37.37,0,0,1-.06.21.43.43,0,0,1-.19.13.66.66,0,0,1-.25,0l-.23,0-.22-.08v-.8h.14Zm.25-.16a.5.5,0,0,0,0-.12v-.44h.13v.41a.32.32,0,0,1,0,.14.26.26,0,0,1-.05.09H20A.2.2,0,0,0,20.06,20.85Z"/><path class="cls-15" d="M21.19,21.06a.25.25,0,0,0,.13,0,.2.2,0,0,0,.09-.09.28.28,0,0,0,0-.13V20.4h-.55v-.11h.69v.52a.32.32,0,0,1,0,.19.33.33,0,0,1-.13.13.46.46,0,0,1-.21,0Zm-.28-.22c0-.05,0-.08,0-.11l0-.08h.12a.24.24,0,0,0,0,.08v.76h-.14Z"/><path class="cls-15" d="M21.92,20.61a.27.27,0,0,1,0-.12l.06-.08h0l-.09,0-.09,0,0-.1.19-.05.2,0a.32.32,0,0,1,.37.37v.53h-.36v-.11h.22v-.43a.24.24,0,0,0-.05-.18.2.2,0,0,0-.15-.06.15.15,0,0,0-.13.05.34.34,0,0,0-.06.16l-.06.57h-.14Z"/></g></g></svg>